<?xml version="1.0" encoding="utf-8"?>
<!-- Generator: Adobe Illustrator 15.0.0, SVG Export Plug-In . SVG Version: 6.00 Build 0)  -->
<!DOCTYPE svg PUBLIC "-//W3C//DTD SVG 1.1//EN" "http://www.w3.org/Graphics/SVG/1.1/DTD/svg11.dtd">
<svg version="1.1" id="Capa_1" xmlns="http://www.w3.org/2000/svg" xmlns:xlink="http://www.w3.org/1999/xlink" x="0px" y="0px"
	 width="425.2px" height="141.73px" viewBox="0 0 425.2 141.73" enable-background="new 0 0 425.2 141.73" xml:space="preserve">
<g>
	<path fill="#A80A2E" d="M286.461,55.756c0.527,0,1.25,1.221,1.25,1.546c0,0.175-0.26,0.677-0.342,0.958
		c-0.053,0.202-0.016,0.527-0.016,0.702v2.302c0,0.176-0.572,2.082-0.572,2.257s0.215,1.054,0.215,1.23
		c0,0.175-0.143,2.073-0.143,2.249s0.143,0.527,0.143,0.703s-0.074,0.258-0.098,0.319c0.025,0.131,0.027,2.448,0.027,2.597
		c0,0.352-0.215,0.879-0.215,1.054c0,0.176,0.215,0.914,0.215,1.089s-0.287,1.094-0.357,1.583l0.143,5.093
		c0,0.176-0.082,0.13-0.145,0.189v0.82c0.002,0.378,0.297,0.945,0.627,1.357c0.434,0.075,1.16-0.309,1.586,0.188
		c-0.033,0.365-0.387,1.075-0.869,1.418c-0.438,0.316-0.912,0.383-1.439,0.541c-0.008,0-1.617,1.037-1.939,1.037
		c-0.598,0-0.711-0.77-0.844-1.145c-0.119-0.33,0.023-0.189,0.023-0.365s-0.178-0.424-0.348-0.591
		c-0.105-0.105-0.188-0.077-0.367-0.077c-0.723,0-2.66,1.546-3.285,1.546c-0.178,0-0.523-0.159-0.756-0.194
		c-0.563-0.096-1.184,0.061-1.719-0.115c-0.537-0.176-1.115-0.416-1.58-0.706c-0.32-0.202-0.605-0.604-0.865-0.894
		c-0.67-0.756-1.803-1.494-1.963-2.477c-0.143-0.87-0.688-2.325-0.688-2.501s0.357-1.194,0.357-1.37s-0.215-0.527-0.215-0.703
		s0.467-1.543,0.807-2.264c0.295-0.623,0.533-0.834,0.641-1.396c0.045-0.229,0.156-0.462,0.291-0.646
		c0.365-0.519,0.898-1.008,1.344-1.394c0.215-0.193,0.688-0.102,1.01-0.26c0.65-0.316,1.451-0.31,2.076-0.494
		c0.285-0.088,0.689-0.397,0.867-0.397s0.357,0.114,0.5,0.114c0.357,0,0.965-0.044,1.143-0.044s0.588-0.043,0.865,0.018
		c0.365,0.079,0.957,0.333,1.135,0.333c0.5,0,1.107-0.21,1.107-0.878c0-0.176-0.072-0.281-0.072-1.055
		c0-0.14-0.178-0.268-0.195-0.417c-0.045-0.352-0.09-0.848-0.09-1.023c0-0.176,0.285-1.406,0.285-1.582c0-0.676-0.5-1.256-0.5-1.405
		c0-0.176,0.205-0.274,0.215-0.494c0.053-0.984,0.07-1.052,0.07-1.228s0.018-0.909-0.232-1.207c-0.67-0.791-2.053-1.138-2.053-1.955
		c0-0.606,0.465-1.054,1.045-1.054h0.91c0.18,0,0.287-0.157,0.43-0.192c0.428-0.105,0.867-0.018,1.285-0.114
		C285.613,56.258,286.281,55.756,286.461,55.756L286.461,55.756z M280.318,70.162c-1.732,0-1.463,0.066-3.588,1.216
		c-0.25,0.132-0.477,0.467-0.637,0.696c-0.188,0.254-0.191,0.592-0.334,0.846c-0.285,0.519-0.182,0.833-0.332,1.361
		c0.08,0.086,0.07,0.131-0.002,2.878c0.287,0.779,0.488,1.638,0.881,2.262c0.543,0.869,1.352,1.62,2.139,2.024
		c0.684,0.352,0.908,0.473,1.146,0.512c0.184,0.029,0.377,0.01,0.799,0.01c0.58,0,0.824-0.055,1.439-0.266
		c0.33-0.113,0.736-0.072,1.076-0.256c0.295-0.158,0.582-0.476,0.775-0.721c0.1-0.686,0.457-2.025,0.457-2.201
		s-0.143-0.281-0.143-0.457c0-0.175,0.143-0.632,0.143-0.808s-0.213-1.933-0.213-2.108s0.143-1.37,0.143-1.545
		c0-0.782-0.02-0.574-0.387-1.576c-0.205-0.553-0.855-0.897-1.418-1.188c-0.385-0.202-0.766-0.538-1.148-0.661
		C280.848,70.093,280.496,70.162,280.318,70.162L280.318,70.162z M228.822,69.912c-1.197,0-2.52,0.399-3.652,1.77
		c-0.197,0.237-0.354,0.563-0.436,0.784c-0.125,0.334-0.07,0.718-0.186,0.98c-0.348,0.773-0.334,1.307-0.334,2.009v0.966
		c0,0.176,0.189,0.485,0.262,0.705c0.063,0.201-0.01,0.429,0.043,0.631c0.08,0.281,0.268,0.634,0.359,0.92
		c0.059,0.076,0.199,0.214,0.24,0.279c0.08,0.311,0.211,0.815,0.471,0.974c0.713,0.431,1.803,1.488,2.508,1.69
		c0.545,0.158,1.475,0.379,1.652,0.379c0.18,0,1.656-0.424,2.426-0.713c0.107-0.221,0.332-0.482,0.369-0.649
		c0.168-0.685,0.455-2.011,0.455-2.187s-0.107-0.27-0.125-0.357c-0.055-0.281,0.027-0.557,0.027-0.767c0-0.563,0-1.126-0.045-2.25
		c-0.018-0.492,0.08-0.985,0.045-1.407c-0.027-0.281-0.26-0.55-0.314-0.778c-0.115-0.456,0.035-1.123-0.268-1.422
		C230.955,70.124,230.09,69.912,228.822,69.912L228.822,69.912z M235.143,55.787c0.18,0,0.369,0.085,0.484,0.165
		c0.912,0.641,0.801,1.118,0.801,1.663c0,0.175-0.098,0.824-0.17,1.167c-0.063,0.29-0.33,0.661-0.33,0.836
		c0,0.176,0.072,1.685,0.162,4.009c-0.02,0.075,0.053-0.004,0.053,0.172s-0.5,1.273-0.5,1.449v15.021
		c0,2.029,1.857,0.404,1.857,1.941c0,0.527-0.281,1.191-0.879,1.446c-0.535,0.229-1.26,0.177-1.859,0.396
		c-0.563,0.203-1.404,0.758-1.582,0.758c-0.777,0-0.75-1.568-0.775-1.851c-0.041-0.063-0.107-0.127-0.168-0.189
		c-0.129,0.003-0.348-0.036-0.473,0.017c-1.053,0.448-2.266,1.25-3.291,1.461c-0.84,0.176-0.936,0.07-1.115,0.07
		c-0.178,0-0.994-0.027-1.404-0.168c-0.375-0.133-0.811-0.303-1.223-0.566c-0.223-0.149-0.439-0.537-0.715-0.748
		c-1.063-0.809-1.797-2.087-2.279-3.176c-0.107-0.255-0.084-0.572-0.119-0.854c-0.027-0.211-0.215-0.491-0.24-0.702
		c-0.045-0.352-0.09-0.777-0.09-1.199c0-1.054-0.072-1.159-0.072-1.335s0.02-0.589,0.092-0.853c0.063-0.229,0.232-0.486,0.313-0.706
		c0.232-0.605,0.262-1.578,1.004-2.187c0.023-0.062,0.098-0.139,0.139-0.202c0.025-0.203-0.088-0.603,0.127-0.788
		c1.035-0.896,2.178-1.147,3.348-1.648c0.215-0.088,0.475-0.326,0.787-0.449c0.402-0.158,0.869-0.143,1.299-0.143
		c0.215,0,0.607-0.088,0.785-0.088c0.18,0,0.322,0.141,0.5,0.141c0.18,0,0.215-0.141,0.393-0.141c0.18,0,0.68,0.141,0.857,0.141
		s0.957-0.14,1.445-0.231c0.275-0.386,0.627-1.033,0.627-1.209c0-0.703-0.563-1.403-0.43-2.112l0.072-3.861
		c-0.18-2.721-2.357-1.564-2.357-3.444c0-0.421,0.938-1.089,1.33-1.089h1.482c0.178,0,0.615-0.57,0.998-0.684
		C234.365,55.92,234.965,55.787,235.143,55.787L235.143,55.787z M149.971,69.419c0.447,0,0.822,1.687,1.322,1.687
		c0.4,0,2.168-1.07,2.311-1.105c0.207-0.053,0.506-0.089,0.713-0.113c0.064-0.041,0.127-0.116,0.307-0.116h1.838
		c0.848,0,1.463,0.408,2.525,0.935c0.445,0.22,0.572,0.715,0.678,1.057c0.232,0.703,0.555,1.479,0.699,2.186l0.07,3.803
		c-0.072,0.285-0.125,0.634-0.17,0.914c-0.018,0.141-0.258,0.391-0.258,0.565v1.529c0,0.176,0.258,0.483,0.33,0.773
		c0.133,0.545,0.016,1.219,0.186,1.754c0.18,0.571,0.27,0.441,0.27,0.889c0,0.94-0.865,1.266-1.535,1.266
		c-0.178,0-0.434-0.1-0.658-0.196c-0.445-0.193-1.52,0.056-1.52-0.894l0.07-5.977c0.072-0.354,0.357-1.015,0.357-1.19
		s-0.215-0.632-0.215-0.808s0.215-0.527,0.215-0.703s-0.357-0.904-0.357-1.08v-1.002c0-0.193-1.049-1.461-1.264-1.558
		c-0.268-0.114-0.557-0.182-0.844-0.182c-0.213,0-0.463-0.044-0.643-0.044c-1,0-1.98,0.197-2.98,0.785
		c-1.018,0.606-0.912,2.184-0.912,3.01c0,0.176,0.143,1.791,0.143,1.968c0,0.175-0.355,1.405-0.355,1.581s0.123,2.219,0.516,3.291
		c0.107,0.307,1.982,1.426,1.982,1.873c0,0.642-1.24,1.125-1.57,1.125c-0.178,0-0.615-0.265-0.902-0.335
		c-0.482-0.123-1.076,0.054-1.639-0.044c-0.232-0.035-0.553-0.077-0.73-0.218c-0.25-0.202-0.586-0.8-0.586-0.976v-2.898
		c0-0.176,0.43-1.143,0.43-1.318v-7.536c0-0.176-0.277-0.461-0.482-0.576c-0.375-0.21-1.447,0.119-1.447-0.716
		c0-0.571,1.789-1.054,1.969-1.036c0.285,0.026,0.574,0.107,0.844,0.028C149.121,69.685,149.793,69.419,149.971,69.419
		L149.971,69.419z M189.932,70.544c-0.178,0-1.279,0.169-1.904,0.371c-0.438,0.141-0.926,0.371-1.211,0.695
		c-0.152,0.167-0.313,0.542-0.309,0.717v0.38c0.84,0.329,1.773,0.418,2.814,0.647l1.578-0.07c0.531-0.124,0.961-0.579,0.961-0.948
		c0-0.176-0.336-0.73-0.418-0.862C191.016,70.815,190.486,70.544,189.932,70.544L189.932,70.544z M190.074,69.349
		c0.68,0,0.832,0.119,1.549,0.538c2.207,0.288,3.094,1.965,3.094,3.397c0,0.176-0.012,0.918-0.172,1.313
		c-0.115,0.289-0.818,1.006-1.221,1.006c-0.178,0-0.844-0.486-1.301-0.688c-0.33-0.149-0.771-0.146-1.199-0.155
		c-1.537-0.053-1.145-0.211-1.717-0.264c-0.285-0.025-0.641,0.088-1.428,0.053c-0.518-0.025-1.283-0.491-1.461-0.491
		c-0.625,0-0.857,0.29-0.857,0.808c0,0.176-0.215,1.23-0.215,1.406c0,0.667,0.035,0.49,0.072,2.318c0,0.219,0.227,0.475,0.396,0.755
		c0.25,0.413,0.479,0.829,0.854,1.261c0.465,0.535,0.867,1.455,1.51,1.648c0.535,0.158,1.945,0.799,2.668,0.799
		c0.445,0,1.127-0.668,1.297-0.816c0.277-0.256,1.105-0.627,1.25-1.057c0.043-0.133,0.08-0.393,0.248-0.559
		c0.107-0.105,0.383-0.169,0.563-0.169c0.48,0,0.643,0.386,0.643,0.702c0,0.176-0.197,0.896-0.314,1.31
		c-0.018,0.07-0.117,0.245-0.225,0.342c-0.402,0.36-1.035,1.061-1.277,1.562c-0.107,0.236-0.744,0.466-0.922,0.527
		c-0.223,0.079-0.434,0.113-0.639,0.209c-0.215,0.105-0.508,0.267-0.799,0.338l-3.223-0.07c-2.031-0.625-4.244-2.842-4.459-4.669
		c-0.168-1.467,0.045-1.829,0-2.743c-0.018-0.51-0.428-1.267-0.428-1.441c0-0.176,0.225-0.504,0.332-0.82
		c0.178-0.526,0.303-1.219,0.473-1.824c0.107-0.379,0.188-0.722,0.285-1.056c0.117-0.378,0.355-0.837,0.65-1.206
		c0.268-0.334,0.803-0.385,1.133-0.596c0.885-0.563,1.715-1.322,2.725-1.577C188.646,69.263,189.896,69.349,190.074,69.349
		L190.074,69.349z M166.791,68.787c0.732,0,0.135,1.195,1.07,1.195c0.18,0,0.895-0.422,1.072-0.422s0.393,0.211,0.572,0.211
		c0.178,0,0.893-0.281,1.07-0.281s0.654,0.23,0.975,0.327c0.617,0.185,1.277,0.166,1.932,0.185c0.152,0.129,0.236,0.296,0.236,0.472
		c0,0.747-0.785,0.588-0.785,1.757c0,0.176,0.33,0.775,0.4,1.224c0.135,0.765,0.463,1.767,0.855,2.663
		c0.115,0.263,0.18,0.653,0.26,0.916c0.135,0.439,0.668,0.893,0.883,1.402c0.072,0.167,0.039,1.174,0.637,1.174
		c0.178,0,0.268-0.136,0.373-0.197c0.119-0.462,0.516-0.822,0.855-1.402c0.357-0.623,0.371-1.496,0.613-2.172
		c0.105-0.316,0.418-0.604,0.525-0.982c0.24-0.816,0.811-2.344,0.811-2.52c0-1.23-1.5-1.037-1.5-1.792
		c0-0.422,0.563-0.492,0.75-0.492c0.18,0,1.75,0.07,1.93,0.07c0.178,0,0.393,0.141,0.57,0.141c0.18,0,0.357-0.141,0.5-0.141
		c1.287,0,1.322,0.07,1.5,0.07c0.18,0,0.5-0.14,0.68-0.14c0.178,0,0.408,0.144,0.564,0.227v0.248
		c-0.438,0.292-0.936,0.602-1.443,0.831c-0.268,0.114-0.666,0.107-0.934,0.186c-0.625,0.185-1.076,0.88-1.318,1.301
		c-0.66,1.151-1.061,2.439-1.641,3.722c-0.053,0.123-0.014,0.337-0.014,0.513s-0.484,0.88-0.627,1.311
		c-0.063,0.202-0.047,0.512-0.117,0.704c-0.205,0.51-0.672,1.033-1.029,1.622c-0.072,0.114-0.014,0.368-0.014,0.544
		s-0.625,1.475-0.768,2.116c-0.063,0.272-0.055,0.571-0.117,0.844c-0.07,0.29-0.258,0.632-0.342,1.003
		c-0.094,0.008-0.059,0.078-0.236,0.078c-0.482,0-0.828-1.385-0.846-1.428c-0.242-0.633-0.457-1.355-0.645-1.971
		c-0.375-1.203-0.73-2.43-1.213-3.58c-0.197-0.475-0.445-0.953-0.738-1.473c-0.145-0.254-0.092-0.584-0.191-0.848
		c-0.115-0.308-0.391-0.604-0.525-0.912c-0.143-0.324-0.125-0.721-0.26-1.055c-0.285-0.711-0.545-1.484-0.857-2.249
		c-0.088-0.237-1.537-1.172-2.01-1.172c-0.67,0-1.287,1.047-1.322,1.583l-0.143,10.117c-0.027,0.879,1.07,1.133,1.07,1.687
		c0,0.571-1.713,0.737-1.82,0.737c-0.178,0-0.572-0.141-0.75-0.141s-0.25,0.07-0.959,0.07c-0.283,0.069-0.568,0.21-0.859,0.281
		c-0.65-0.07-0.717,0-0.803-0.002c-0.082-0.078-0.141-0.07-0.221-0.102c-0.221-0.26-0.516-0.74-0.516-0.916
		c0-0.685,2.225-1.006,2.43-2.391l0.143-2.756c0-0.176-0.037-0.018-0.139-0.027v-1.168c-0.004-0.176,0.078-0.007,0.139-0.065v-3.518
		c0-0.176-0.037-0.018-0.141-0.04c0.08-0.107,0.141-0.188,0.141-0.364s-0.143-0.141-0.143-0.316c0-0.175,0.143,0.035,0.143-0.14
		c0-0.176-0.293-0.886-0.453-1.36c-0.125-0.369-0.762-0.995-0.762-1.17c0-0.272,0.131-0.578,0.453-0.684
		c0.535-0.176,1.24-0.325,1.857-0.536C166.342,69.141,166.238,68.787,166.791,68.787L166.791,68.787z M220.334,68.719
		c0.32,0.196,0.193,0.734,0.256,0.937c0.08,0.281,0.34,0.677,0.34,0.853s-0.467,1.058-0.699,1.629
		c-0.045,0.123,0.057,0.269,0.057,0.444l-0.072,9.656c0.07,0.205,0.109,0.512,0.297,0.758c0.223,0.299,0.633,0.653,0.633,0.829
		c0,0.632-1.1,0.843-1.402,0.843h-2.053c-0.18,0-0.688,0.281-0.867,0.281c-0.563,0-1.607,0.062-1.607-1.089
		c0-0.606,0.471-0.78,1.238-1.069c0.063-0.018,0.242-0.016,0.355,0.053c0.051-0.257,0.549-0.734,0.674-0.902
		c0.098-0.131,0.207-0.33,0.207-0.541c0-0.281,0.025-0.658,0.025-0.834v-7.186c0-0.176-0.166-1.217-0.381-1.734
		c-0.16-0.396-0.832-0.83-0.832-1.173c0-0.632,2.102-1.166,2.236-1.219C219.148,69.088,219.908,68.656,220.334,68.719
		L220.334,68.719z M211.287,68.646c0.67,0,2.988,0.729,2.988,0.729c0.16,0.14,1.012,1.177,1.012,1.52c0,0.175-0.6,0.855-0.77,1.312
		c-0.117,0.325-0.045,0.723-0.189,1.056c-0.16,0.369-1.104,1.005-1.398,1.005c-0.348,0-1.188-0.908-1.26-0.996
		c-0.098-0.123-0.168-0.373-0.168-0.549c0-0.272,0.17-0.422,0.357-0.422c0.178,0,0.357,0.141,0.535,0.141
		c0.098,0,0.607-0.167,0.607-0.457c0-1.028-1.01-0.878-1.393-0.878c-0.947,0-1.535,0.035-1.535,1.23
		c0,0.738-0.061,1.088,0.439,1.879c0.34,0.535,0.791,1.084,1.266,1.611c0.098,0.105,0.379,0.172,0.539,0.294
		c0.723,0.563,1.645,1.472,2.01,2.244c0.152,0.325,0.102,0.964,0.102,1.14s0.5,1.51,0.5,1.686s-0.277,0.484-0.34,0.713
		c-0.072,0.263-0.002,0.594-0.119,0.848c-0.178,0.396-0.559,0.643-0.889,0.993c-0.162,0.176-0.416,0.738-0.816,0.896
		c-0.215,0.088-0.496,0.213-0.791,0.283c-0.84,0.202-2.438,0.449-2.615,0.449c-0.867,0-1.006-0.161-2.123-0.662
		c-0.311-0.141-1.377-1.429-1.377-1.973c0-0.176,0.172-1.306,0.449-1.912c0.072-0.167,0.336-0.231,0.516-0.231
		c0.178,0,0.242,0.083,0.361,0.229c0.439,1.623,1.049,2.722,2.459,2.722c0.91,0,2.643-0.712,2.643-1.862
		c0-0.57-0.139-0.847-0.381-1.391c-0.07-0.158-0.213-0.461-0.418-0.619c-1.213-0.932-2.184-1.885-3.246-3.123
		c-0.258-0.299-0.504-0.656-0.717-1.033c-0.145-0.246-0.219-0.646-0.264-0.997c-0.027-0.211-0.322-0.485-0.33-0.705
		c-0.055-0.843-0.072-0.95-0.072-1.126s0.143-0.989,0.225-1.5C208.68,69.397,209.779,68.646,211.287,68.646L211.287,68.646z
		 M198.752,68.646c2.17,0,1.125,2.249,2,2.249c0.18,0,0.316-0.19,0.486-0.261c0.83-0.377,1.729-1.918,2.594-1.917h0.93
		c0.938,0.549,1.098,0.896,1.098,1.66v1.317c0,0.299-0.865,0.817-0.965,0.817c-0.178,0-1.713-0.352-1.893-0.352
		c-1.545,0-2.705,2.741-2.527,3.468c0.025,0.068-0.043,0.222-0.043,0.292c-0.072,1.336-0.143,2.354-0.143,2.529
		s0.064,0.192,0.113,0.271c0.029,0.359-0.043,0.96-0.043,1.135c0,1.292,0.5,0.948,0.5,1.651c0,0.176-0.143,0.422-0.143,0.598
		s0.072,0.246,0.072,0.422c0,0.825,1.346,1.476,1.701,1.801c0.107,0.097,0.154,0.271,0.154,0.447c0,0.589-1.15,0.668-1.258,0.668
		h-4.053c-0.438,0-0.83-0.554-0.83-0.914c0-0.535,1.18-1.01,1.26-1.309c0.053-0.202,0.027-0.424,0.098-0.629l-0.072-7.016
		c-0.07-0.205-0.215-0.482-0.268-0.772c-0.08-0.413-0.02-1.166-0.02-1.342s-0.414-1.149-0.734-1.668
		c-0.357-0.571-1.049-0.904-1.246-1.555c-0.018-0.071-0.018-0.08-0.018-0.255c0-0.229,0.027-0.606,0.607-0.589
		C198.102,69.446,197.477,68.646,198.752,68.646L198.752,68.646z M244.678,77.22c-0.178,0-1.4,0.626-1.865,1.136
		c-0.26,0.281-0.264,0.744-0.406,0.99c-0.205,0.378-0.621,0.816-0.621,0.992v0.861c0,0.359,1.42,1.15,1.607,1.15
		c0.295,0,0.623-0.389,0.709-0.492c0.045,0.121,0.041,0.211,0.219,0.211c0.385,0,1.465-0.519,1.465-1.23
		c0-0.175-0.018-0.283-0.072-0.986C245.65,79.026,246.088,77.22,244.678,77.22L244.678,77.22z M243.713,66.468
		c0.18,0,0.645,0.21,0.822,0.21s0.893-0.21,1.072-0.21c0.473,0,1.207,0.455,1.43,0.789c0.197,0.299,0.242,0.704,0.434,1.008
		c0.1,0.48,0.242,0.97,0.385,1.466l-0.07,11.11c-0.1,0.758,1.168,1.087,1.627,1.181c0.35,0.556,0.301,0.855,0.301,1.417
		c0,0.229,0.08,0.735-0.18,1.008c-0.758,0.8-0.883,0.925-1.641,0.925c-1.84,0-1.705-1.897-2.322-1.897
		c-0.428,0-0.869,0.606-1.109,0.809c-0.822,0.694-1.613,0.667-2.434,0.667h-1.412c-0.82,0-1.4-1.932-1.4-2.205v-2.336
		c0-0.176,0.336-1.347,0.738-1.908c0.303-0.422,1.152-0.6,1.635-0.881c0.76-0.447,1.434-0.83,1.996-1.287
		c0.24-0.202,0.672-0.086,1.012-0.191c0.688-0.211,1.189-0.625,1.189-1.275c0-0.176-0.143-1.546-0.143-1.721
		c0-0.176,0.143-1.16,0.143-1.336c0-1.423-0.365-1.755-0.883-3.468c-0.045-0.176-1.107-0.958-1.402-0.958
		c-0.18,0-0.586,0.202-0.701,0.404c-0.18,0.307-0.225,0.817-0.402,1.125c-0.115,0.193-0.461,0.218-0.621,0.376
		c-0.51,0.492-0.383,2.381-1.383,2.381c-0.66,0-1.107-1.379-1.107-1.616c0-0.369,0.178-0.523,0.553-0.971
		c0.143-0.176,0.086-0.497,0.264-0.638C241.076,67.679,242.57,66.468,243.713,66.468L243.713,66.468z M131.793,62.955
		c-0.553,0-0.637,0.456-1.119,1.211c-0.195,0.299-0.15,0.72-0.33,0.983c-0.24,0.36-0.592,0.7-0.744,1.06
		c-0.195,0.465-0.52,1.305-0.52,1.48v1.563c0,0.176,0.303,0.627,0.33,0.908c0.035,0.352-0.096,0.731,0.047,1.064
		c0.072,0.167,0.369,0.276,0.457,0.426c0.117,0.193,0.082,0.528,0.189,0.704c0.393,0.614,0.844,1.132,1.273,1.526
		c0.293,0.272,0.746,0.177,1.096,0.177c0.383,0,1.178,0.175,1.178-0.668c0-0.176-0.357-1.229-0.357-1.405s0.182-0.639,0.369-0.893
		c0.16-0.229,0.453-0.315,0.596-0.491c0.145-0.175,0.045-0.526,0.188-0.702c0.215-0.255,0.615-0.507,0.883-0.771
		c0.348-0.352,0.443-1.011,0.602-1.34c0.068-0.065,0.043-0.125,0.221-0.125c0.17,0,0.428,0.185,0.428,0.448v1.563
		c0,1.177,1.357,1.282,1.357,2.626c0,0.412,0.053,0.452-0.447,1.067c-0.393,0.483-0.869,0.952-1.324,1.303
		c-0.178,0.141-0.449,0.222-0.645,0.397c-0.938,0.86-1.848,1.896-2.768,2.028c-0.293,0.036-0.609,0.264-0.789,0.264h-3.125
		c-0.178,0-0.83-0.506-1.105-0.831c-0.438-0.51-0.545-1.168-0.902-1.599c-0.107-0.122-0.75-0.558-0.752-0.706v-3.067
		c0.789-0.541,0.787-1.141,0.787-1.703c0-0.175,0-0.564-0.082-2.063c-0.096-0.01-0.168-0.08-0.244-0.08
		c-0.453,0.142-0.631,0.812-0.836,1.067c-0.49,0.606-1.908,1.537-2.078,2.757c-0.027,0.193-0.402,0.787-0.402,1.094
		c0,0.746,0.928,1.493,0.928,2.064v1.212c0,0.21,1.27,2.335,1.529,2.59c1.295,1.273,2.732,1.978,4.072,2.231
		c0.178,0.035,0.279,0.229,0.359,0.238c0.428,0.053,1.219,0.167,1.396,0.167s0.467-0.026,1.467-0.07
		c0.355-0.018,0.711-0.273,1.004-0.335c0.35-0.07,0.734-0.026,1.074-0.114c0.445-0.114,0.906-0.389,1.361-0.591
		c0.51-0.219,1.17-0.289,1.643-0.491c0.197-0.079,0.504-0.019,0.695-0.119c0.104-0.119,0.256-0.317,0.256-0.493l0.07-12.654
		c-0.072-0.216-0.098-1.294-0.607-1.294c-0.561,0-0.713,0.914-2.355,0.914c-0.18,0-1.215-0.352-1.393-0.352
		c-0.402,0-1.402,0.128-1.697,0.304c-1.027,0.624-0.67,0.961-1.34,0.961c-0.625,0-0.748-0.378-0.748-0.949
		c0-0.202,0.82-1.172,0.908-1.216c0.305-0.167,0.662-0.321,0.662-0.716C132.508,63.245,132.133,62.955,131.793,62.955
		L131.793,62.955z M135.33,60.847c0.07,0,0.137,0.07,0.715,0c2.014,0.334,1.855,1.194,3.426,1.194c2.42,0,0.813-1.124,2.75-1.124
		c0.725,0,1.857,0.105,1.857,1.089c0,0.808-1.143,0.984-1.143,1.484v6.377c0,0.175,0.285,2.679,0.285,2.855
		s-0.115,1.371-0.213,3.479c-0.037,0.843-0.082,1.12,0,2.386c0.018,0.316-0.117,1.302,0.713,1.302c0.393,0,0.188-0.276,0.662-0.54
		c0.25-0.141,0.838-0.232,1.018-0.232c0.178,0,0.301,0.004,0.453,0.08c0,0,0.082-0.01,0.082,0.166c0,0.211-0.732,1.225-0.816,1.912
		c-0.408,0.431-0.777,1.014-1.27,1.392c-0.963,0.737-2.068,1.042-3.094,2.035c-0.26,0.246-1.035,0.388-1.213,0.388
		c-0.188,0-0.893-0.202-0.893-0.518v-0.861c0-0.176,0.268-0.481,0.33-0.771c0.072-0.342,0.098-0.977,0.098-1.152
		c0-0.51-0.188-1.054-0.643-1.054c-0.49,0-1.205,1.034-1.68,1.534c-0.428,0.448-0.93,0.969-1.402,1.382
		c-0.17,0.149-0.547,0.124-0.787,0.325c-0.785,0.642-1.951,1.036-2.594,1.045c-3.027,0.062-1.83,0.141-2.75,0.141
		c-0.18,0-0.264,0.026-1.184-0.07c-1.08-0.114-2.084-0.391-3.227-1.041c-0.375-0.211-0.883-0.192-1.285-0.395
		c-0.445-0.229-0.836-0.778-1.113-1.252c-0.186-0.325-0.57-0.554-0.74-0.844c-0.115-0.193-0.08-0.526-0.188-0.702
		c-0.633-1.054-0.621-0.87-0.621-1.528c0-0.176-0.4-0.695-0.48-1.082c-0.063-0.272,0-0.636-0.045-0.986
		c-0.027-0.211-0.26-0.603-0.26-0.777c0-0.176,0.357-1.011,0.357-1.187V73.17c0-0.176,0.271-0.755,0.451-1.063
		c0.115-0.202,0.473-0.314,0.598-0.56c0.088-0.185,0.055-0.453,0.189-0.637c0.223-0.308,0.609-0.459,0.814-0.705
		c0.143-0.176,0.109-0.5,0.182-0.693c0.125-0.333,0.584-0.948,0.816-1.273c0.188-0.264,0.334-0.618,0.547-0.847
		c0.572-0.615,1.902-1.601,1.902-2.331c0-0.465-0.18-0.492-0.465-0.492c-0.535,0-1.125,0.773-2.25,0.773
		c-0.178,0-1.643-0.773-1.82-0.773c-0.287,0-0.895,0.457-0.895,0.747v1.037c0,0.448-0.625,1.049-0.695,1.629
		c-0.055,0.413,0.086,0.958-0.119,1.415c-0.09,0.211-0.506,0.373-0.686,0.373c-0.178,0-0.445-0.478-0.66-0.715
		c-0.277-0.316-0.725-0.537-1.027-0.915c-0.25-0.308-0.203-1.034-0.096-1.362c-0.002-0.065-0.072-0.138-0.002-1.121
		c0-0.069-0.143-0.174-0.143-0.35s0.076-0.159,0.119-0.224c0.025-0.134-0.047-0.374-0.047-0.549c0-0.333,0.561-1.057,1.016-1.347
		c0.268-0.167,0.664-0.189,1.012-0.26c0.205-0.044,0.607-0.488,0.92-0.655c0.33-0.176,0.742-0.256,1.074-0.397
		c0.313-0.132,0.701-0.679,0.879-0.679h9.34c1.205,0,0.141,0.844,1.58,1.125c0.566-0.07,0.643,0,0.713,0
		C134.684,62.252,134.178,60.812,135.33,60.847L135.33,60.847z M165.256,58.527c0.178,0,0.643,0.07,0.82,0.07
		c0.527,0,0.881,0.549,1.143,1.154c-0.07,0.711-0.082,0.753,0,0.842c-0.102,0.232-0.875,1.587-1.393,1.587
		c-0.313,0-1.158-0.593-1.301-0.936c-0.053-0.123,0.018-0.363-0.045-0.565c-0.072-0.219-0.332-0.573-0.332-0.748
		c0-0.176,0.223-0.409,0.334-0.544c0.025-0.065,0.023-0.202,0.045-0.28C164.746,58.848,164.916,58.527,165.256,58.527
		L165.256,58.527z M218.609,58.387c0.178,0,0.816,0.1,1.154,0.231c0.697,0.272,0.881,1.28,0.881,1.667
		c0,0.799-0.92,1.757-1.572,1.757c-0.607,0-0.391-0.224-1.043-0.573c-0.238-0.501-0.6-1.464-0.6-1.64
		C217.43,59.643,218.037,58.387,218.609,58.387L218.609,58.387z M257.32,70.896c-1.785,0-3.813,0.971-4.063,3.475
		c-0.035,0.36-0.33,0.803-0.33,0.979v2.126c0,0.176,0.387,1.119,0.617,1.69c0.045,0.123,0,0.359,0.045,0.491
		c0.215,0.553,0.096,1.063,0.783,1.467c0.115,0.07,0.322,0.063,0.42,0.178c0.83,0.975,1.881,1.4,2.809,1.487
		c0.305,0.026,0.682,0.194,0.861,0.194c0.178,0,1.283-0.18,1.803-0.453c0.668-0.342,0.74-1.004,0.891-1.469
		c0.09-0.281,0.262-0.563,0.271-0.783c0.061-1.475,0.07-4.146,0.07-4.322c0-0.738-0.074-1.25-0.412-2.225
		c-0.135-0.396,0.055-0.926-0.268-1.277C259.686,71.214,258.48,70.896,257.32,70.896L257.32,70.896z M263.605,56.912
		c1.07,0,1.463,0.966,1.463,1.756c0,0.176-0.57,2.53-0.57,2.706s0.143,1.265,0.143,1.44c0,0.176-0.143,1.125-0.143,1.3
		c0,0.175,0.143,0.492,0.143,0.667s-0.357,1.374-0.428,2.004l0.07,13.498c-0.074,0.148-0.143,0.203-0.143,0.379
		c0,0.597,0.16,1.427,0.48,1.594c0.197,0.105,0.486,0.022,0.701,0.04c0.33,0.026,0.824,0.538,1.004,0.918
		c0.027,0.07,0.029,0.083,0.029,0.259c0,0.544-1.055,1.335-1.545,1.335h-0.982c-0.027,0-2.07,0.844-2.152,0.844
		c-1.285,0-0.105-1.968-1.285-1.968c-0.178,0-2.174,1.13-3.344,1.587c-0.258,0.098-0.727,0.029-0.906,0.029
		c-3.07,0-4.434-2.094-5.549-4.518c-0.143-0.325-0.146-0.785-0.191-1.206c-0.018-0.211-0.211-0.36-0.311-0.624
		c-0.125-0.324-0.092-0.891-0.092-1.066s-0.035-0.645,0.072-1.479c0.027-0.211,0.189-0.419,0.26-0.639
		c0.135-0.413,0.055-0.861,0.188-1.265c0.145-0.432,0.307-0.945,0.502-1.34c0.152-0.299,0.693-0.582,0.693-0.758
		s-0.143-0.141-0.143-0.316c0-0.439,1.805-1.484,2.027-1.527c1.135-0.237,2.258-1.02,3.295-1.002c1.5,0.026,2.248,0.141,2.428,0.141
		c0.178,0,0.359-0.141,0.574-0.123c1.25,0.105,1.533-0.966,1.533-1.563c0-0.176-0.357-1.186-0.357-1.361v-1.985
		c0-0.176,0.178-1.681,0.045-2.516c-0.072-0.448-0.217-0.968-0.494-1.319c-0.74-0.949-1.838-1.093-1.838-2.024
		c0-0.474,0.703-0.975,1.104-1.01c0.5-0.053,1.078-0.053,1.57-0.14c0.293-0.053,0.617-0.428,0.992-0.586
		c0.125-0.053,0.363-0.011,0.578-0.046C263.17,57,263.426,56.912,263.605,56.912L263.605,56.912z M341.314,70.653
		c0.178,0,0.713,0.168,1.078,0.256c0.205,0.044,0.51-0.07,0.697-0.026c0.76,0.185,0.76,0.5,0.76,0.965
		c0,0.175-0.107,0.669-0.125,1.021c-0.045,0.633-0.018,3.441-0.018,3.617s-0.18,0.807-0.27,1.236
		c-0.045,0.202,0.027,0.484,0.027,0.748c0,0.229-0.115,0.545-0.115,0.721s0.275,1.18,0.375,1.751
		c0.15,0.905,1.584,1.921,2.441,1.798c0.572-0.07,0.646,0,0.713,0c0.209-0.068,0.531-0.003,0.771-0.161
		c0.75-0.492,1.764-0.633,2.102-1.572c0.17-0.466,0.311-1.288,0.311-1.464s-0.213-1.049-0.285-1.545c0.072-0.848,0-0.915,0-0.988
		c0.072-0.355,0.285-0.875,0.285-1.051s-0.141-0.165-0.193-0.341c-0.09-0.264-0.119-0.64-0.145-0.921
		c-0.037-0.352,0.09-0.778,0.027-1.121c-0.145-0.703-2.189-1.078-2.189-1.974c0-0.518,1.125-0.878,1.357-0.878
		c0.18,0,0.764,0.143,1.115,0.282l1.633,0.069c1.262-0.254,1.395,1.467,1.395,2.108c0,0.176-0.5,3.514-0.5,3.689
		s0.215,1.686,0.215,1.861s-0.215,1.336-0.215,1.512c0,0.175,0.072,1.896,0.072,2.072c0,1.037,1.713,0.448,1.713,1.055
		c0,0.176-0.213,0.46-0.445,0.6c-0.33,0.203-0.717,0.427-1.082,0.497c-0.35,0.062-0.795-0.018-1.145,0.044
		c-0.365,0.07-0.898,0.404-1.076,0.404c-0.832,0-0.814-0.934-1.23-1.408c-0.904,0.021-1.973,0.986-2.91,1.057
		c-1.215,0.098-1.793-0.07-2.363-0.123c-0.938-0.096-2.244-0.607-2.789-1.151c-0.09-0.088-1.029-2.836-1.029-3.222
		c0-0.481-0.008-0.379-0.01-0.379l0.082-2.539c0.008-0.51,0.5-1.439,0.5-1.615s-0.035-0.492-0.098-0.766
		c-0.08-0.359-0.303-0.693-0.385-1.054c-0.061-0.272,0.037-0.577-0.043-0.841c-0.135-0.439-0.404-1.064-0.404-1.24
		C339.92,70.873,340.84,70.653,341.314,70.653L341.314,70.653z M375.883,69.951c0.178,0,0.441,0.159,0.648,0.185
		c0.705,0.105,1.494,0.307,2.221,0.327c0.154,0.129,0.238,0.331,0.238,0.507c0,0.553-0.645,0.843-0.645,1.651
		c0,0.176,0.143,0.492,0.188,0.676c0.268,1.011,0.273,2.311,0.996,3.487c0.115,0.192,0.1,0.513,0.189,0.706
		c0.268,0.589,0.721,1.191,1.096,1.824c0.197,0.324-0.021,0.545,0.389,0.545c0.83,0,1.68-2.643,1.805-3.274
		c0.027-0.141,0.217-0.351,0.314-0.569c0.143-0.326,1.023-2.999,1.023-3.324c0-0.808-1.357-0.808-1.357-1.616
		c0-0.308,0.277-0.492,0.475-0.492h2.053c0.178,0,1.221,0.018,1.863-0.026c0.357-0.018,0.967-0.185,1.145-0.185
		c0.18,0,0.512,0.072,0.738,0.149c0,0,0.084-0.009,0.084,0.167s-0.48,0.653-0.873,0.916c-0.525,0.36-1.268,0.352-1.785,0.677
		c-0.582,0.369-1.021,0.984-1.229,1.512c-0.195,0.518-0.365,1.071-0.57,1.616c-0.215,0.571-0.615,1.105-0.813,1.685
		c-0.09,0.264-0.018,0.582-0.117,0.845c-0.115,0.308-0.418,0.633-0.525,0.913c-0.098,0.273-0.098,0.58-0.188,0.843
		c-0.197,0.579-0.777,1.161-1.027,1.759c-0.107,0.255-0.018,0.646-0.115,0.98c-0.115,0.378-0.41,0.754-0.525,1.193
		c-0.145,0.554-0.113,1.363-0.6,2.061h-0.406c-0.145-0.147-0.305-0.357-0.35-0.586c-0.152-0.686-0.707-1.416-0.787-1.898
		c-0.15-0.896-0.57-1.823-0.855-2.736c-0.035-0.133-0.02-0.355-0.043-0.49c-0.043-0.064-0.111-0.132-0.17-0.211
		c-0.021-0.22-0.035-0.508-0.115-0.701c-0.393-0.878-0.947-2.076-1.217-2.884c-0.07-0.22-0.313-0.483-0.383-0.702
		c-0.348-1.037-0.65-2.211-1.115-3.229c-0.107-0.237-2.119-1.147-2.119-1.525c0-0.457,0.742-0.703,0.785-0.703
		c0.18,0,0.645,0.141,0.822,0.141S375.703,69.951,375.883,69.951L375.883,69.951z M362.275,70.794c-0.178,0-0.379,0.15-0.611,0.185
		c-0.58,0.097-2.744,0.167-2.744,1.572c0,0.176,0.004,0.264,0.086,0.389c0.799,0.173,1.582,0.383,2.373,0.595
		c1.076,0.001,1.146,0.071,1.326,0.071c0.438,0,1.643-0.264,1.643-1.055c0-0.492-1.051-1.526-1.451-1.667
		C362.699,70.813,362.455,70.794,362.275,70.794L362.275,70.794z M361.963,69.6h0.912c0.482,0,2.986,1.114,3.031,1.149
		c0.223,0.176,0.5,0.476,0.766,0.711c0.174,0.553,0.533,1.653,0.533,1.829c0,1.142-0.164,1.774-1.023,2.492
		c-1.004,0.011-1.779-0.797-2.654-0.754c-0.428,0.018-0.969,0.086-1.369-0.045c-0.84-0.281-1.422-0.244-2.209-0.35
		c-0.428-0.063-1.172-0.325-1.352-0.325c-0.928,0-0.82,0.957-0.82,1.651c0.025,2.248-0.072,2.536-0.127,2.816
		c-0.018,0.258,0.441,0.91,0.752,1.019c0.078,0.075,0.018,0.136,0.018,0.312s0.422,0.543,0.609,0.824
		c0.09,0.141,0.035,0.306,0.115,0.42c0.285,0.395,0.727,0.893,1.182,1.086c0.83,0.36,2.449,0.797,2.629,0.797
		c0.955,0,2.033-1.234,2.846-2.236c0.145-0.184,0.512-0.364,0.689-0.364c0.365,0,0.643,0.404,0.643,0.633
		c0,0.175-0.201,1.081-0.461,1.503c-0.393,0.641-1.039,1.102-1.574,1.717c-0.16,0.185-0.678,0.584-1.004,0.592
		c-0.076-0.018-0.131-0.018-0.197-0.002c-0.434,0.235-1.094,0.477-1.664,0.477h-2.625c-0.18,0-0.232-0.159-0.377-0.194
		c-1.08-0.299-2.547-1.648-3.287-2.772c-0.33-0.501-0.576-1.127-0.719-1.697c-0.063-0.273,0.053-0.57,0.053-0.852l-0.072-2.105
		c-0.143-0.77-0.357-0.618-0.357-1.162c0-0.176,0.502-1.758,0.734-2.574c0.188-0.66,0.406-1.435,0.791-1.979
		c0.545-0.756,1.777-1.248,2.49-1.722c0.447-0.29,0.85-0.541,1.297-0.664C360.705,69.68,361.785,69.6,361.963,69.6L361.963,69.6z
		 M298.496,69.81c-0.18,0-0.51,0.211-0.688,0.211h-0.982c-0.357,0-1.459,0.86-1.639,1.141c-0.088,0.149-0.334,0.326-0.332,0.501
		v0.238c0.16,0.083,0.322,0.183,0.455,0.201c0.992,0.176,2.793,0.519,2.971,0.519c0.24,0,2.215-0.088,2.215-0.984
		C300.496,70.75,299.451,69.81,298.496,69.81L298.496,69.81z M298.104,68.616c1.865,0,3.324,0.683,4.637,1.623
		c0.186,0.132,0.119,0.528,0.199,0.792c0.33,1.054,0.342,0.862,0.342,1.521c0,0.703-0.125,1.827-1.322,1.827
		c-0.178,0-2.188-0.352-2.365-0.352h-0.982c-0.178,0-0.982-0.421-1.16-0.421h-1.84c-0.178,0-0.508-0.211-0.688-0.211
		c-1.188,0-1.143,0.799-1.143,1.404c0,0.176,0.143,1.371,0.143,1.547s-0.143,0.878-0.143,1.054c0,0.51,0.736,1.599,0.969,1.985
		c0.15,0.245,0.229,0.689,0.471,0.979c0.25,0.309,1.135,1.062,1.607,1.229c0.77,0.271,2.275,0.656,2.453,0.656
		c0.973,0,2.383-1.865,2.668-2.234c0.143-0.185,0.439-0.295,0.617-0.295c0.545,0,0.643,0.404,0.643,0.633
		c0,0.175-0.18,0.53-0.27,0.75c-0.045,0.123-0.012,0.373-0.119,0.566c-0.482,0.844-1.367,1.909-2.27,2.516
		c-0.41,0.271-1.492,0.313-1.672,0.313h-3.268c-0.178,0-0.523-0.311-0.738-0.407c-1.625-0.721-2.938-2.533-3.328-3.618
		c-0.043-0.067-0.191-0.112-0.191-0.288v-3.109c0-0.176-0.195-0.394-0.268-0.613c-0.063-0.201-0.09-0.607-0.09-0.783
		s0.023-0.396,0.094-0.511c0.555-0.869,0.395-1.66,0.957-2.529c0.07-0.114,0.074-0.339,0.109-0.55
		c0.027-0.149,0.254-0.318,0.316-0.433c0.135-0.237,0.492-0.906,0.75-1.117c0.117-0.096,0.324-0.106,0.43-0.186
		c1.107-0.808,1.967-1.341,3.084-1.648C297.146,68.591,297.924,68.616,298.104,68.616L298.104,68.616z M394.203,76.486
		c-0.59,0-0.93,0.462-1.627,0.893c-0.303,0.184-0.748,0.254-0.998,0.395c-0.785,0.439-0.4,1.098-0.613,1.615
		c-0.063,0.158-0.266,0.207-0.311,0.277c-0.16,0.271-0.236,0.746-0.236,0.922v0.865c1.215,1.189,0.518,1.498,2.035,1.498
		c0.82,0,1.869-0.132,2.477-1.143c0.072-0.123,0.211-0.301,0.201-0.441c-0.125-1.616-0.08-2.178-0.143-3.513
		C394.961,77.248,395.148,76.486,394.203,76.486L394.203,76.486z M395.203,63.064c0.525,0,0.594-0.018,1.129,0.43
		c0.117,0.097,0.094,0.391,0.236,0.567c0.215,0.254,0.588,0.504,0.678,0.785c0.188,0.624,0.375,1.317,0.57,1.967
		c0.08,0.264,0.027,0.636,0.1,0.991l-0.143,13.285c0,0.614,0.742,1.226,1.197,1.489c0.313,0.176,0.84-0.078,1.145,0.115
		c0.482,0.316,0.373,0.996,0.373,1.382c0,0.176-0.02,1.056-0.172,1.521c-0.188,0.606-2.088,1.009-2.15,1.009
		c-2.49,0-1.838-2.741-3.32-2.741c-0.18,0-0.525,0.198-0.705,0.409c-0.223,0.271-0.596,1.214-1.105,1.39
		c-0.473,0.167-1.484,0.521-1.662,0.521h-1.197c-0.178,0-0.846,0.076-1.238-0.1c-0.678-0.309-0.758-1.079-1.043-1.605
		c-0.26-0.483-0.467-0.975-0.602-1.484c-0.07-0.263-0.045-0.641-0.045-0.922c0-0.141-0.117-0.246-0.117-0.422
		c0-0.271,0.377-1.061,0.402-1.201c0.125-0.545,0.158-1.215,0.479-1.698c0.482-0.738,1.326-1.235,1.916-1.815
		c0.107-0.105,0.383-0.12,0.508-0.19c0.375-0.21,0.791-0.548,1.148-0.661c0.277-0.088,0.662-0.088,1.002-0.186
		c0.17-0.043,0.338-0.347,0.49-0.443c0.268-0.176,0.682-0.186,0.93-0.326c0.385-0.202,0.641-0.676,0.963-0.879
		c0.021-0.061,0.092-0.188,0.092-0.259c0-0.983,0.07-1.194,0.07-1.37s-0.143-0.352-0.143-0.527c0-0.175,0.143-0.21,0.143-0.386
		s-0.07-1.932-0.07-2.108c0-0.413-0.34-2.273-0.34-2.353c-0.055-0.834-0.537-1.799-1.287-2.273c-0.242-0.158-0.803-0.152-0.98-0.152
		c-1.313,0-1.346,0.731-2.311,2.093c-0.42,0.588-0.262,1.48-0.396,2.165c-0.053,0.272-0.828,0.801-1.078,0.801
		c-0.705,0-1.18-1.774-1.18-2.108c0-0.536,0.551-1.057,0.838-1.461c0.133-0.184,0.275-0.552,0.463-0.693
		c0.107-0.079,0.379-0.126,0.504-0.188c0.375-0.202,0.738-0.855,1.076-0.775c0.199-0.244,0.365-0.672,0.635-0.865
		c0.883-0.641,2.107-0.385,3.16-0.472C394.539,63.293,395.023,63.064,395.203,63.064L395.203,63.064z M370.74,58.005
		c0.723,0,1.57,0.774,1.535,1.792l-0.143,22.521c0,0.176-0.031,1.117,0.229,1.636c0.135,0.264,0.842,0.964,0.842,1.28
		c0,0.615-0.973,0.738-1.213,0.738c-0.18,0-2.754-0.088-3.754-0.167c-0.436-0.035-0.674-0.527-0.674-0.782
		c0-0.131-0.021-0.341,0.311-0.438c0.633-0.201,1.902-1.055,1.902-1.811l-0.143-5.48c0-0.142,0.143-0.212,0.143-0.387l-0.213-4.357
		c0-0.176,0.213-1.159,0.213-1.335s-0.143-1.089-0.143-1.265c0-0.175,0.08-0.458,0.09-0.669c0.053-0.914-0.09-1.896-0.09-2.071
		c0-0.176,0.143-0.211,0.143-0.387c0-0.415,0.004-0.416,0.006-0.418l-0.076-3.727c-0.01-0.519,0.102-1.256-0.471-1.723
		c-0.197,0.069-0.566,0.282-0.744,0.282c-0.66,0-0.715-0.65-0.715-0.984c0-0.176,0.074-0.541,0.164-0.751
		C367.939,59.502,370.07,58.005,370.74,58.005L370.74,58.005z M337.635,57.513c0.42,0,0.719,0.396,1.117,0.072
		c0.096,0.233,0.313,0.631,0.313,0.807c0,0.053-0.197,0.981-0.322,1.122c-0.303,0.325-0.586,0.646-0.979,0.919
		c-0.322,0.22-0.84,0.22-1.215,0.466c-0.68,0.439-0.648,1.135-0.871,1.653c-0.188,0.431-0.283,1.117-0.256,1.531l-0.143,17.287
		c0,0.782,1.311,1.926,1.543,1.979c0.348,0.078,0.805-0.149,1.217-0.026c0.482,0.141,0.924,0.456,1.371,0.878
		c0.115,0.114,0.357,0.238,0.582,0.469c-0.521,0.961-1.781,0.477-2.521,0.783c-0.197,0.08-0.504,0.091-0.727,0.1
		c-1.143,0.053-1.252,0.07-1.43,0.07c-0.643,0-1.232-0.492-2.25-0.492c-1.455,0-0.982,0.844-2.607,0.844
		c-0.473,0-1.82,0.018-1.82-0.949c0-1.098,1.078-0.775,1.586-1.109c0.313-0.211,0.662-0.756,1.072-1.01
		c0.348-0.221,0.697-0.296,0.697-0.621c0-0.176,0.287-0.483,0.287-0.773c0.025-4.216-0.125-4.348-0.125-4.497
		c0-0.491,0.125-1.44,0.125-1.616c0-1.405-0.018-2.564-1.965-2.564l-9.506,0.141c-0.219-0.072-0.467-0.141-0.645-0.141h-2.555
		c-0.365,0-0.688,0.475-0.688,0.738c-0.008,0.703-0.07,0.843-0.07,1.019c0,0.175,0.143,1.229,0.143,1.405s-0.143,1.194-0.143,1.37
		s0.143,0.563,0.143,0.737c0,0.176-0.098,1.09-0.143,3.339c-0.01,0.703,0.844,1.773,1.629,2.405c0.68,0.545,2.229,0.142,2.229,1.107
		c0,0.615-1.42,1.16-1.572,1.16c-0.178,0-0.75-0.211-0.928-0.211c-0.18,0-0.645,0.141-0.822,0.141s-1.965-0.492-2.143-0.492
		s-1.5,0.422-1.678,0.422c-0.18,0-0.537-0.123-0.75-0.123c-0.5,0-1.086,0.096-1.576,0.025c-0.43-0.061-0.92-0.104-1.305-0.43
		c-0.322-0.271-0.727-0.844-0.727-1.019c0-0.211,0.539-0.491,0.746-0.519c0.82-0.105,2.045,0.42,2.805-0.661
		c0.313-0.456,0.252-1.276,0.324-1.742c0.035-0.228,0.242-0.418,0.314-0.638c0.133-0.412,0.025-1.043,0.025-1.219
		s0.143-0.949,0.143-1.125s-0.215-1.511-0.215-1.686l0.072-13.944c-0.07-0.205-0.102-0.503-0.236-0.688
		c-0.223-0.307-0.773-0.618-0.951-0.618h-1.34c-0.18,0-0.844-0.333-1.158-0.597c-0.178-0.149-0.43-0.472-0.51-0.691
		c-0.125-0.334-0.037-0.786-0.117-1.129c-0.053-0.228-0.475-0.605-0.475-0.781c0-0.272,0.732-0.527,0.822-0.527
		c0.178,0,2.5,0.632,2.678,0.632c0.18,0,2.322-0.492,2.5-0.492c0.027,0,1.805,0.632,2.143,0.632c0.18,0,1.607-0.211,1.785-0.211
		c0.625,0,2.357,0.193,2.357,1.265c0,1.212-1.816,0.963-2.236,1.139c-0.365,0.149-0.361,0.72-0.514,0.887
		c-0.813,0.887-1.365,1.547-1.32,2.433c0.07,0.561,0,0.635-0.004,0.692c0.064,0.059,0.146,0.057,0.146,0.233v1.81
		c0,0.176-0.082,0.245-0.145,0.303v3.491c0.002,0.176,0.178,0.362,0.295,0.476c0.098,0.097,0.248,0.219,0.391,0.245
		c0.215,0.035,0.539,0.026,0.717,0.026h11.84c0.178,0,0.287-0.14,0.418-0.161c0.203-0.315,0.686-0.632,0.963-1.019
		c0.223-0.316,0.369-0.658,0.377-1.035c0.125-4.287,0-4.639,0.018-4.985c-0.016-0.065,0.055-0.109,0.055-0.285
		c0-1.124-0.123-0.574-0.811-2.094c-0.205-0.457-1.752-1.384-2.262-1.384c-0.178,0-0.393,0.141-0.57,0.141
		c-0.18,0-0.73-0.335-1.043-0.643c-0.045-0.044-0.1-0.2-0.1-0.376c0-0.633,0.73-1.44,1.355-1.44c0.18,0,0.787,0.351,0.965,0.351
		c0.18,0,0.563-0.209,0.854-0.281l2.793-0.07c0.361,0.071,0.926,0.281,1.104,0.281s1.01-0.42,1.527-0.543
		C336.359,57.733,337.457,57.513,337.635,57.513L337.635,57.513z"/>
	<path fill="#A80A2E" d="M59.594,35.064c19.945,0,36.113,16.168,36.113,36.114s-16.168,36.113-36.113,36.113
		c-19.944,0-36.112-16.168-36.112-36.113S39.649,35.064,59.594,35.064L59.594,35.064z M59.594,36.111
		c-19.366,0-35.065,15.7-35.065,35.067s15.699,35.066,35.065,35.066c19.367,0,35.066-15.699,35.066-35.066
		S78.961,36.111,59.594,36.111L59.594,36.111z M59.594,41.771c16.24,0,29.404,13.166,29.404,29.406
		c0,16.24-13.164,29.405-29.404,29.405c-16.239,0-29.404-13.165-29.404-29.405C30.189,54.937,43.354,41.771,59.594,41.771
		L59.594,41.771z M76.449,69.344l11.379-0.833C86.5,54.264,74.633,43.077,60.098,42.823l-0.004,11.408
		C68.611,54.478,75.553,61.006,76.449,69.344L76.449,69.344z M72.229,69.653l3.176-0.233c-0.857-7.795-7.346-13.896-15.311-14.142
		v3.183C66.379,58.704,71.494,63.505,72.229,69.653L72.229,69.653z M60.088,70.542l11.096-0.813
		c-0.693-5.605-5.357-9.979-11.092-10.22L60.088,70.542L60.088,70.542z M71.303,83.439l7.6,8.509
		c5.566-5.178,9.049-12.567,9.049-20.771c0-0.545-0.014-1.086-0.045-1.623l-11.377,0.833c0.012,0.262,0.018,0.525,0.018,0.79
		C76.547,76,74.533,80.352,71.303,83.439L71.303,83.439z M68.482,80.283l2.121,2.375c3.018-2.896,4.896-6.969,4.896-11.48
		c0-0.239-0.006-0.477-0.016-0.714l-3.174,0.232l0.008,0.481C72.318,74.746,70.85,77.973,68.482,80.283L68.482,80.283z
		 M60.68,71.547l7.105,7.955c2.152-2.119,3.486-5.065,3.486-8.324l-0.006-0.405L60.68,71.547L60.68,71.547z M54.697,81.783
		l4.07-10.176H47.924C48.088,76.125,50.816,79.988,54.697,81.783L54.697,81.783z M53.125,85.714l1.184-2.958
		c-4.268-1.95-7.268-6.19-7.432-11.148h-3.183C43.861,77.905,47.688,83.29,53.125,85.714L53.125,85.714z M48.498,97.283
		l4.238-10.597c-5.823-2.579-9.922-8.341-10.09-15.079l-11.407,0C31.411,83.148,38.475,93.018,48.498,97.283L48.498,97.283z
		 M53.707,87.08l-4.238,10.595c3.145,1.202,6.559,1.861,10.125,1.861c7.082,0,13.559-2.597,18.527-6.89l-7.598-8.508
		c-2.951,2.491-6.766,3.992-10.93,3.992C57.523,88.131,55.541,87.76,53.707,87.08L53.707,87.08z M55.277,83.152l-1.182,2.955
		c1.713,0.632,3.566,0.977,5.498,0.977c3.896,0,7.465-1.4,10.23-3.727l-2.119-2.374c-2.203,1.823-5.029,2.919-8.111,2.919
		C58.078,83.902,56.625,83.638,55.277,83.152L55.277,83.152z M59.721,72.045l-4.055,10.134c1.229,0.438,2.551,0.677,3.928,0.677
		c2.814,0,5.396-0.995,7.412-2.653L59.721,72.045L59.721,72.045z M48.559,58.308c-0.691-1.067-1.428-2.147-2.059-2.957
		c-1.394-1.797-3.994-4.728-5.082-5.942c-6.077,5.08-9.994,12.656-10.175,21.152h11.409C42.828,65.662,45.081,61.292,48.559,58.308
		L48.559,58.308z M50.824,61.958c-0.268-0.447-0.773-1.288-1.381-2.262l-0.314-0.498c-3.19,2.79-5.256,6.833-5.429,11.363h3.185
		C47.045,67.18,48.525,64.144,50.824,61.958L50.824,61.958z M57.785,70.561l-0.396-0.268c-0.979-0.674-2.195-1.614-3.1-2.666
		c-1.191-1.311-2.117-3.087-2.949-4.711c-1.979,1.978-3.252,4.664-3.408,7.645H57.785L57.785,70.561z M52.145,62.184
		c0.539,1.024,2.006,3.736,2.928,4.75c1.186,1.377,3.021,2.603,3.969,3.187l0.004-10.609C56.428,59.633,54.035,60.616,52.145,62.184
		L52.145,62.184z M49.967,58.515c0.57,0.907,1.121,1.826,1.658,2.74c2.049-1.647,4.617-2.673,7.422-2.792V55.28
		C55.639,55.396,52.504,56.583,49.967,58.515L49.967,58.515z M42.235,48.751c1.118,1.249,3.7,4.162,5.091,5.957
		c0.729,0.935,1.416,1.917,2.072,2.923c2.703-2.037,6.033-3.284,9.648-3.398l0.004-11.409
		C52.723,42.942,46.899,45.136,42.235,48.751L42.235,48.751z"/>
	<path fill="#A80A2E" d="M32.696,90.07c-0.12-0.201-0.2-0.36-0.2-0.561c0-0.201,0.04-0.32,0.16-0.4s0.24-0.08,0.44-0.04
		c0.16,0.079,0.32,0.239,0.44,0.399c0.12,0.201,0.2,0.361,0.2,0.562c0.041,0.2-0.04,0.32-0.16,0.4c-0.08,0.079-0.24,0.079-0.4,0.04
		C32.976,90.391,32.816,90.27,32.696,90.07L32.696,90.07z"/>
	<path fill="#A80A2E" d="M28.211,84.665l-0.761-2.282l0.2-0.08l0.12,0.4c0.041,0.16,0.12,0.28,0.16,0.32
		c0.04,0.08,0.08,0.08,0.12,0.08c0.041,0,0.08-0.04,0.12-0.12l1.882-2.242l-2.642-0.561h-0.16c-0.08,0.04-0.121,0.12-0.161,0.2
		c0,0.12,0,0.2,0.04,0.36l0.121,0.36l-0.161,0.08l-0.68-2.042l0.2-0.04l0.041,0.16c0.04,0.12,0.12,0.24,0.24,0.32
		c0.12,0.12,0.24,0.16,0.44,0.24l3.443,0.761l0.08,0.24l-2.442,2.963c-0.08,0.08-0.12,0.2-0.12,0.28c-0.04,0.12,0,0.24,0.04,0.36
		l0.08,0.2L28.211,84.665L28.211,84.665z M26.01,77.298l-0.12-1.361l2.522-3.724l-2.042,0.2c-0.2,0-0.36,0.08-0.44,0.24
		s-0.08,0.36-0.08,0.641h-0.16l-0.2-2.001h0.2c0,0.2,0.04,0.36,0.08,0.44c0.04,0.081,0.12,0.201,0.2,0.24
		c0.12,0.08,0.24,0.12,0.32,0.08l2.882-0.24v0.36l-2.602,3.844l2.162-0.2c0.2,0,0.32-0.08,0.4-0.24c0.08-0.2,0.12-0.44,0.12-0.761
		l0.16-0.04l0.2,2.202l-0.2,0.04c0-0.28-0.08-0.521-0.2-0.641c-0.12-0.16-0.28-0.24-0.44-0.24l-2.402,0.24l-0.04,0.08
		c-0.08,0.12-0.12,0.2-0.16,0.28v0.28l0.04,0.28H26.01L26.01,77.298z M25.649,69.53l0.2-2.642h0.2l-0.04,0.44
		c-0.04,0.24,0,0.36,0,0.4c0.04,0.08,0.08,0.08,0.2,0.12l2.722,0.2c0.12,0.04,0.16,0,0.2-0.04s0.08-0.16,0.08-0.32l0.04-0.521
		l0.2,0.04l-0.24,2.643l-0.16-0.041l0.04-0.48c0-0.2,0-0.281-0.04-0.361c0-0.04-0.08-0.08-0.2-0.08l-2.722-0.24
		c-0.08,0-0.16,0-0.2,0.04c-0.04,0.08-0.08,0.2-0.08,0.4l-0.04,0.44H25.649L25.649,69.53z M26.01,65.287l0.641-2.362l0.16,0.08
		l-0.12,0.4c-0.04,0.16-0.04,0.28-0.04,0.36c0,0.04,0.04,0.08,0.08,0.08c0.04,0.04,0.08,0,0.16,0l2.762-0.881l-1.882-1.882
		c-0.04-0.04-0.08-0.08-0.12-0.08c-0.12-0.04-0.2,0-0.24,0.08c-0.081,0.04-0.12,0.16-0.16,0.32l-0.121,0.36l-0.16-0.04l0.521-2.042
		l0.2,0.04l-0.04,0.16c-0.04,0.12-0.04,0.24,0,0.4c0.04,0.16,0.12,0.28,0.28,0.44l2.442,2.482l-0.08,0.28l-3.643,1.161
		c-0.12,0.04-0.201,0.08-0.28,0.16c-0.04,0.08-0.12,0.2-0.16,0.36l-0.04,0.16L26.01,65.287L26.01,65.287z"/>
	<path fill="#A80A2E" d="M39.302,44.307l0.08-0.44l0.2-0.2l0.881,1.001l-0.2,0.16c-0.4-0.2-0.761-0.28-1.121-0.2
		c-0.36,0.04-0.721,0.2-1.041,0.44c-0.24,0.24-0.44,0.44-0.521,0.681s-0.08,0.44,0.04,0.561c0.08,0.12,0.16,0.16,0.28,0.16
		c0.12,0.04,0.28,0,0.44-0.04c0.16-0.08,0.44-0.24,0.841-0.48c0.521-0.32,0.961-0.521,1.201-0.641c0.24-0.08,0.48-0.12,0.681-0.08
		c0.16,0,0.32,0.08,0.44,0.24c0.2,0.24,0.24,0.561,0.08,0.961c-0.12,0.4-0.4,0.761-0.84,1.081c-0.48,0.4-0.921,0.641-1.441,0.721
		l-0.12,0.521l-0.2,0.2l-0.881-1.081l0.2-0.2c0.32,0.24,0.721,0.32,1.161,0.24c0.4-0.04,0.801-0.24,1.201-0.521
		c0.28-0.24,0.48-0.521,0.601-0.761c0.08-0.28,0.08-0.48-0.04-0.641c-0.08-0.08-0.201-0.16-0.32-0.16c-0.12,0-0.28,0.04-0.48,0.12
		c-0.16,0.08-0.521,0.24-1.041,0.561c-0.561,0.32-0.961,0.521-1.201,0.561c-0.36,0.08-0.641,0-0.801-0.24
		c-0.2-0.24-0.24-0.561-0.12-0.881c0.12-0.4,0.36-0.721,0.761-1.041c0.2-0.16,0.4-0.28,0.601-0.36
		C38.821,44.427,39.062,44.387,39.302,44.307L39.302,44.307z M34.017,51.434l0.48-0.521c0.28-0.36,0.44-0.641,0.52-0.921
		c0.081-0.28,0.04-0.48-0.2-0.681c-0.16-0.12-0.28-0.16-0.44-0.16c-0.12,0-0.24,0.04-0.36,0.12c-0.2,0.12-0.4,0.36-0.681,0.721
		c-0.2,0.24-0.32,0.4-0.32,0.48c-0.04,0.08-0.04,0.12,0.04,0.16L34.017,51.434L34.017,51.434z M34.017,48.951
		c0.2-0.2,0.36-0.32,0.561-0.36c0.32-0.16,0.601-0.16,0.8,0c0.121,0.12,0.2,0.24,0.2,0.44c0,0.16-0.04,0.36-0.12,0.601
		s-0.28,0.561-0.56,0.961c0.28-0.24,0.48-0.4,0.601-0.48c0.16-0.04,0.28-0.08,0.4-0.08c0.12-0.04,0.36,0.04,0.641,0.12
		c0.24,0.08,0.4,0.12,0.521,0.08c0.081,0,0.16-0.04,0.2-0.12c0.04-0.04,0.08-0.12,0.04-0.24c0-0.08-0.08-0.2-0.2-0.32l0.16-0.24
		c0.4,0.4,0.4,0.841,0,1.281c-0.12,0.16-0.24,0.28-0.36,0.36c-0.12,0.04-0.28,0.08-0.4,0.08c-0.12-0.04-0.32-0.12-0.641-0.32
		c-0.2-0.08-0.36-0.16-0.48-0.12c-0.12,0-0.28,0.04-0.44,0.16c-0.16,0.08-0.28,0.24-0.44,0.44l-0.32,0.36l1.121,0.881
		c0.2,0,0.28-0.04,0.36-0.16l0.32-0.44l0.16,0.12l-1.681,2.082l-0.16-0.12l0.36-0.44c0.08-0.08,0.12-0.16,0.16-0.24l-0.8-0.721
		l-1.481-1.241c-0.04-0.04-0.12-0.04-0.16,0c-0.08,0.04-0.16,0.08-0.24,0.16l-0.32,0.44l-0.16-0.12l1.882-2.282
		C33.697,49.271,33.857,49.071,34.017,48.951L34.017,48.951z M28.292,57.719l2.162-4.003l1.121,0.48l-0.12,0.2
		c-0.4-0.08-0.721-0.04-0.961,0.08s-0.44,0.36-0.601,0.641l-0.521,1.001c-0.04,0.08-0.08,0.16-0.08,0.24l1.241,0.721l0.24-0.44
		c0.12-0.24,0.16-0.441,0.12-0.641c0-0.201-0.12-0.4-0.32-0.521l0.12-0.24l1.481,0.801l-0.16,0.24c-0.24-0.12-0.44-0.12-0.641-0.04
		c-0.16,0.08-0.32,0.24-0.48,0.521l-0.2,0.4l1.241,0.681c0.08,0,0.12,0,0.16-0.04s0.12-0.12,0.16-0.24l0.44-0.761
		c0.44-0.881,0.36-1.521-0.24-2.042l0.12-0.24l1.161,0.72l-2.242,4.204l-0.16-0.08l0.16-0.36c0.08-0.16,0.12-0.24,0.12-0.32
		s-0.04-0.12-0.08-0.16l-2.522-1.321c-0.04-0.041-0.12-0.041-0.16,0c-0.04,0.04-0.12,0.12-0.16,0.2l-0.24,0.44L28.292,57.719
		L28.292,57.719z"/>
	<path fill="#A80A2E" d="M75.494,41.063l1.162,0.761l1.361,4.284l1.121-1.722c0.119-0.2,0.16-0.36,0.08-0.521
		s-0.201-0.32-0.441-0.44l0.08-0.16l1.723,1.081l-0.121,0.16c-0.16-0.12-0.32-0.16-0.4-0.2c-0.119-0.04-0.24-0.04-0.359,0
		c-0.08,0.04-0.201,0.12-0.24,0.2l-1.563,2.402l-0.32-0.2l-1.4-4.404l-1.162,1.802c-0.119,0.16-0.16,0.32-0.08,0.521
		c0.121,0.16,0.281,0.32,0.561,0.521l-0.119,0.16l-1.842-1.201l0.119-0.16c0.24,0.16,0.441,0.2,0.641,0.2c0.201,0,0.32-0.04,0.4-0.2
		l1.322-2.042v-0.08c-0.08-0.12-0.121-0.24-0.16-0.28c-0.041-0.04-0.121-0.12-0.24-0.16l-0.201-0.16L75.494,41.063L75.494,41.063z"
		/>
	<path fill="#A80A2E" d="M81.861,45.468l1.682,1.722l-0.121,0.16l-0.32-0.32c-0.119-0.12-0.199-0.2-0.24-0.24
		c-0.08,0-0.119,0-0.16,0.04c-0.039,0-0.039,0.04-0.039,0.12l-0.041,0.08l-0.68,2.763l2.602-0.641c0.041,0,0.08-0.04,0.16-0.08
		c0.041-0.08,0.08-0.16,0.041-0.24c0-0.08-0.082-0.2-0.201-0.32l-0.24-0.28l0.119-0.12l1.482,1.521l-0.119,0.16l-0.121-0.16
		c-0.119-0.08-0.24-0.16-0.361-0.2c-0.158,0-0.32,0-0.52,0.04l-3.402,0.801l-0.201-0.2l0.922-3.724c0-0.12,0-0.2-0.041-0.32
		c-0.039-0.08-0.08-0.2-0.199-0.32l-0.121-0.12L81.861,45.468L81.861,45.468z"/>
	<path fill="#A80A2E" d="M70.209,39.142c-0.279,0-0.52,0.04-0.719,0.12c-0.402,0.12-0.682,0.48-0.881,1.041
		c-0.201,0.601-0.201,1.081,0.039,1.441c0.201,0.32,0.561,0.561,1,0.721c0.201,0.08,0.361,0.12,0.561,0.12
		c0.08,0.04,0.201,0.04,0.32,0c0.281,0,0.521-0.12,0.721-0.28c0.24-0.2,0.4-0.48,0.521-0.841c0.16-0.4,0.199-0.761,0.16-1.041
		c-0.08-0.281-0.201-0.481-0.4-0.681c-0.201-0.2-0.48-0.36-0.762-0.48C70.57,39.222,70.369,39.182,70.209,39.142L70.209,39.142z
		 M70.209,42.825c-0.24-0.04-0.439-0.12-0.639-0.16c-0.441-0.16-0.842-0.36-1.162-0.681c-0.32-0.28-0.561-0.601-0.721-0.921
		c-0.119-0.36-0.119-0.721,0-1.081c0.121-0.32,0.32-0.601,0.641-0.761c0.32-0.2,0.682-0.32,1.121-0.32c0.279,0,0.52,0,0.76,0.04
		c0.16,0.041,0.361,0.08,0.561,0.16c0.441,0.12,0.842,0.36,1.201,0.641c0.361,0.32,0.602,0.601,0.721,0.961
		c0.16,0.36,0.16,0.721,0.041,1.041c-0.121,0.32-0.32,0.601-0.682,0.801c-0.32,0.2-0.68,0.28-1.16,0.32
		C70.689,42.865,70.449,42.865,70.209,42.825L70.209,42.825z"/>
	<path fill="#A80A2E" d="M90.789,57.56l1.48,4.324l-1.121,0.521l-0.08-0.24c0.32-0.24,0.521-0.48,0.602-0.761
		c0.039-0.24,0.039-0.561-0.08-0.881l-0.361-1.081c-0.039-0.08-0.08-0.16-0.119-0.16c-0.041-0.04-0.08-0.04-0.16-0.04l-1.201,0.44
		l0.16,0.44c0.08,0.28,0.199,0.44,0.359,0.561s0.361,0.16,0.602,0.08l0.119,0.24l-1.602,0.561l-0.08-0.28
		c0.24-0.08,0.4-0.24,0.48-0.44c0.041-0.2,0.041-0.44-0.08-0.681l-0.119-0.44l-1.361,0.48c-0.041,0-0.08,0.04-0.08,0.12
		c0,0.04,0,0.12,0.039,0.24l0.281,0.881c0.32,0.881,0.881,1.281,1.641,1.201l0.121,0.24l-1.322,0.36l-1.521-4.484l0.16-0.08
		l0.121,0.4c0.039,0.12,0.119,0.24,0.16,0.28c0.039,0.04,0.119,0.04,0.16,0.04l2.682-0.921c0.08-0.04,0.121-0.08,0.121-0.12
		c0-0.08,0-0.16-0.041-0.28l-0.16-0.44L90.789,57.56L90.789,57.56z"/>
	<path fill="#A80A2E" d="M61.922,37.621l0.361-0.32l0.279,0.04v1.281h-0.279c-0.16-0.4-0.361-0.721-0.682-0.88
		c-0.32-0.201-0.68-0.32-1.08-0.32c-0.32-0.041-0.641,0.04-0.842,0.16c-0.24,0.121-0.32,0.281-0.359,0.44
		c0,0.121,0.039,0.241,0.119,0.32c0.08,0.08,0.201,0.16,0.361,0.2c0.16,0.08,0.48,0.161,0.92,0.241c0.641,0.08,1.121,0.2,1.361,0.28
		c0.24,0.12,0.441,0.241,0.561,0.36c0.121,0.16,0.201,0.32,0.16,0.481c0,0.32-0.16,0.6-0.52,0.8c-0.361,0.2-0.842,0.28-1.361,0.28
		c-0.602-0.04-1.121-0.16-1.563-0.4l-0.439,0.32l-0.281-0.04l0.041-1.401l0.279,0.04c0.08,0.36,0.32,0.681,0.721,0.921
		c0.361,0.24,0.762,0.36,1.242,0.4c0.4,0,0.721-0.08,0.961-0.2s0.359-0.28,0.4-0.521c0-0.08-0.041-0.2-0.16-0.28
		c-0.08-0.08-0.201-0.16-0.4-0.24c-0.201-0.08-0.602-0.16-1.162-0.24c-0.641-0.12-1.08-0.24-1.281-0.4
		c-0.32-0.16-0.48-0.4-0.48-0.721c0-0.28,0.201-0.561,0.521-0.721c0.32-0.2,0.76-0.28,1.24-0.28c0.24,0,0.48,0.04,0.682,0.12
		C61.482,37.38,61.682,37.5,61.922,37.621L61.922,37.621z M54.115,39.982l1-0.16l-1-1.121l-0.24-0.281l-0.76,1.722L54.115,39.982
		L54.115,39.982z M54.115,37.66l2.602,2.923c0.08,0.12,0.281,0.16,0.521,0.12h0.16l0.039,0.16l-2.281,0.36v-0.16l0.16-0.04
		c0.24-0.04,0.4-0.08,0.52-0.12c0.041-0.04,0.08-0.08,0.08-0.12l-0.641-0.761l-1.16,0.16l-1.08,0.2l-0.201,0.44
		c-0.039,0.16-0.08,0.24-0.08,0.32c0.041,0.08,0.08,0.12,0.201,0.16c0.16,0.04,0.318,0.04,0.561,0l0.158-0.04l0.041,0.2l-2.041,0.32
		l-0.041-0.16c0.201-0.04,0.4-0.12,0.521-0.2c0.08-0.08,0.199-0.2,0.279-0.4l1.441-3.323L54.115,37.66L54.115,37.66z M41.424,42.545
		l2.282-1.401l0.081,0.16l-0.401,0.24c-0.16,0.12-0.24,0.2-0.28,0.24c-0.04,0.04-0.04,0.12,0.041,0.2l1.401,2.362
		c0.04,0.08,0.12,0.12,0.16,0.12c0.08,0,0.16-0.04,0.32-0.12l0.44-0.24l0.08,0.12l-2.282,1.401l-0.08-0.16l0.44-0.28
		c0.12-0.08,0.24-0.16,0.24-0.2c0.04-0.08,0.04-0.12-0.04-0.24l-1.401-2.322c-0.04-0.08-0.08-0.12-0.16-0.12
		c-0.08,0-0.2,0.04-0.36,0.16l-0.4,0.2L41.424,42.545L41.424,42.545z M45.467,40.263l4.365-1.681l0.6,1.241l-0.24,0.12
		c-0.48-0.721-1.041-0.921-1.721-0.64c-0.16,0.04-0.24,0.12-0.281,0.16c-0.039,0.04-0.039,0.12-0.039,0.16l1.041,2.683
		c0.039,0.08,0.08,0.12,0.119,0.12c0.08,0,0.16-0.04,0.281-0.08l0.52-0.2l0.08,0.16l-2.521,0.961l-0.041-0.16l0.602-0.24
		c0.08-0.04,0.16-0.08,0.199-0.12c0-0.04,0.041-0.08,0-0.12l-1.041-2.722c0-0.041-0.039-0.081-0.119-0.081
		c-0.08-0.04-0.16,0-0.281,0.04c-0.36,0.16-0.601,0.36-0.761,0.641c-0.16,0.24-0.16,0.601-0.12,1.001l-0.28,0.08L45.467,40.263
		L45.467,40.263z"/>
	<path fill="#A80A2E" d="M92.951,64.286l0.16,1.361l-2.363,3.804l2.043-0.24c0.199-0.04,0.32-0.12,0.4-0.28s0.119-0.36,0.08-0.641
		h0.16l0.279,2.002h-0.199c-0.041-0.2-0.08-0.36-0.121-0.44c-0.039-0.08-0.119-0.161-0.199-0.24c-0.121-0.081-0.24-0.081-0.32-0.081
		l-2.844,0.361l-0.039-0.361l2.482-3.923l-2.162,0.24c-0.201,0.04-0.32,0.12-0.4,0.28c-0.08,0.2-0.121,0.44-0.08,0.761l-0.16,0.04
		l-0.281-2.202h0.16c0.041,0.28,0.16,0.48,0.281,0.601c0.119,0.16,0.24,0.24,0.4,0.2l2.441-0.28l0.041-0.08
		c0.039-0.12,0.08-0.24,0.119-0.28c0-0.08,0-0.2-0.039-0.32v-0.24L92.951,64.286L92.951,64.286z"/>
	<path fill="#A80A2E" d="M86.945,56.118l0.08-0.08c0.199-0.121,0.32-0.32,0.32-0.601c0-0.24-0.121-0.561-0.32-0.881l-0.08-0.16
		l-0.561-0.881l-0.16,0.121l-1,0.641c-0.08,0.04-0.08,0.08-0.08,0.16c0,0.04,0.039,0.16,0.119,0.28l0.359,0.601
		c0.24,0.32,0.441,0.56,0.602,0.721c0.039,0,0.08,0.04,0.119,0.04C86.545,56.198,86.744,56.198,86.945,56.118L86.945,56.118z
		 M87.586,52.795l-0.641,0.4l-0.4,0.24l0.4,0.641l0.16,0.28c0.16,0.24,0.32,0.4,0.48,0.521c0.039,0.04,0.08,0.04,0.119,0.08
		c0.201,0.08,0.441,0.08,0.682-0.08c0.119-0.08,0.24-0.2,0.24-0.32c0.039-0.16,0.039-0.32-0.041-0.48
		c-0.039-0.16-0.199-0.44-0.4-0.841c-0.199-0.24-0.32-0.4-0.359-0.48c-0.08-0.04-0.121-0.04-0.201,0L87.586,52.795L87.586,52.795z
		 M87.586,55.357c0.16,0.32,0.199,0.601,0.199,0.84c0.041,0.28-0.039,0.481-0.199,0.601c-0.201,0.16-0.4,0.16-0.602,0.12
		c-0.24-0.081-0.439-0.24-0.68-0.481c-0.041,0-0.041-0.04-0.08-0.04c-0.24-0.24-0.48-0.561-0.68-0.921l-1.563-2.482l0.16-0.08
		l0.24,0.4c0.08,0.12,0.16,0.2,0.201,0.24c0.078,0.04,0.119,0.04,0.16,0.04l1.48-0.961l0.721-0.44l0.24-0.12
		c0.039-0.04,0.08-0.12,0.08-0.16c0-0.08-0.041-0.2-0.121-0.28l-0.199-0.32l-0.08-0.12l0.08-0.04l0.08-0.04l0.561,0.881l1.041,1.642
		c0.32,0.521,0.48,0.921,0.52,1.281c0,0.36-0.08,0.601-0.279,0.721c-0.16,0.12-0.361,0.12-0.602,0
		c-0.199-0.08-0.439-0.24-0.68-0.481c-0.041-0.04-0.08-0.12-0.16-0.16C87.506,55.117,87.545,55.237,87.586,55.357L87.586,55.357z"/>
	<path fill="#A80A2E" d="M93.031,75.576l0.279,0.36l-0.039,0.32l-1.322-0.12l0.041-0.24c0.4-0.12,0.721-0.36,0.961-0.641
		c0.199-0.28,0.32-0.641,0.359-1.081c0.041-0.32,0-0.601-0.119-0.841c-0.121-0.24-0.281-0.36-0.441-0.36
		c-0.119,0-0.24,0.04-0.32,0.08c-0.08,0.08-0.16,0.2-0.24,0.36s-0.16,0.48-0.24,0.921c-0.16,0.641-0.279,1.081-0.4,1.321
		c-0.119,0.24-0.24,0.44-0.4,0.561c-0.119,0.12-0.279,0.16-0.48,0.12c-0.32,0-0.561-0.2-0.76-0.561
		c-0.16-0.4-0.24-0.841-0.201-1.401c0.041-0.601,0.24-1.081,0.521-1.521l-0.32-0.44l0.039-0.28l1.361,0.121v0.279
		c-0.4,0.08-0.721,0.28-0.961,0.641c-0.279,0.36-0.4,0.761-0.48,1.241c0,0.4,0.041,0.721,0.16,0.961c0.121,0.24,0.281,0.4,0.48,0.4
		c0.121,0.04,0.201,0,0.32-0.08c0.08-0.12,0.16-0.24,0.24-0.44s0.201-0.561,0.32-1.121c0.16-0.641,0.281-1.041,0.441-1.281
		c0.16-0.32,0.439-0.44,0.721-0.44c0.32,0.04,0.561,0.24,0.76,0.561c0.16,0.36,0.201,0.761,0.16,1.281
		c0,0.24-0.039,0.44-0.119,0.681C93.271,75.136,93.15,75.336,93.031,75.576L93.031,75.576z"/>
	<path fill="#A80A2E" d="M92.791,78.539l-0.682,2.563l-0.16-0.08l0.121-0.44c0.039-0.16,0.039-0.32,0.039-0.36
		c-0.039-0.08-0.08-0.12-0.16-0.12l-2.643-0.721c-0.119-0.04-0.199-0.04-0.24,0c-0.039,0.08-0.08,0.16-0.119,0.32l-0.121,0.521
		l-0.199-0.08l0.68-2.563l0.201,0.04l-0.16,0.521c-0.041,0.16-0.041,0.28-0.041,0.32c0.041,0.08,0.08,0.12,0.201,0.12L92.15,79.3
		c0.08,0.04,0.16,0.04,0.199,0c0.041-0.08,0.121-0.2,0.16-0.4l0.121-0.44L92.791,78.539L92.791,78.539z"/>
	<path fill="#A80A2E" d="M89.947,85.826l0.16,0.44l-0.119,0.28l-1.242-0.521l0.121-0.241c0.439,0.041,0.801-0.079,1.121-0.279
		c0.279-0.24,0.52-0.521,0.68-0.881c0.121-0.32,0.201-0.601,0.16-0.841c-0.039-0.28-0.119-0.44-0.279-0.521
		c-0.121-0.04-0.24-0.04-0.361,0c-0.08,0.04-0.199,0.12-0.32,0.24c-0.119,0.16-0.32,0.4-0.561,0.801
		c-0.32,0.561-0.6,0.921-0.76,1.121c-0.201,0.2-0.4,0.32-0.561,0.4c-0.16,0.04-0.361,0.04-0.521-0.041
		c-0.279-0.119-0.48-0.399-0.52-0.8c-0.041-0.4,0.039-0.841,0.279-1.361s0.561-0.961,0.961-1.281l-0.16-0.521l0.121-0.24
		l1.281,0.561l-0.121,0.24c-0.4-0.04-0.76,0.04-1.121,0.32c-0.359,0.24-0.641,0.601-0.84,1.001c-0.16,0.36-0.201,0.681-0.16,0.961
		c0,0.28,0.119,0.48,0.32,0.561c0.08,0.04,0.199,0.04,0.32,0c0.119-0.08,0.24-0.16,0.359-0.32c0.16-0.16,0.361-0.48,0.682-0.961
		c0.359-0.561,0.641-0.921,0.84-1.081c0.281-0.24,0.561-0.28,0.842-0.16c0.279,0.12,0.439,0.4,0.48,0.761
		c0.08,0.36,0,0.801-0.201,1.241c-0.119,0.24-0.24,0.44-0.359,0.601C90.348,85.506,90.148,85.666,89.947,85.826L89.947,85.826z"/>
	<path fill="#A80A2E" d="M84.863,92.152c-0.16,0.16-0.32,0.279-0.52,0.359c-0.16,0.041-0.32,0.041-0.4-0.039
		c-0.121-0.121-0.16-0.24-0.16-0.441c0.039-0.16,0.119-0.359,0.279-0.52c0.16-0.201,0.32-0.32,0.48-0.361
		c0.201-0.039,0.32-0.039,0.439,0.041c0.121,0.08,0.162,0.24,0.121,0.439C85.064,91.791,84.982,91.992,84.863,92.152L84.863,92.152z
		"/>
	<path fill="#A80A2E" d="M39.102,98.277l-2.563-2.162l0.721-0.961l0.12,0.121c-0.16,0.359-0.24,0.641-0.2,0.84
		c0,0.24,0.12,0.441,0.32,0.602l0.641,0.52c0.04,0.041,0.12,0.08,0.16,0.08s0.08-0.039,0.12-0.08l0.801-0.961l-0.28-0.24
		c-0.16-0.119-0.32-0.16-0.48-0.16s-0.32,0.08-0.48,0.281l-0.16-0.121l1.041-1.24l0.16,0.119c-0.16,0.201-0.24,0.4-0.2,0.561
		c0,0.16,0.08,0.32,0.24,0.441l0.28,0.24l0.881-1.082c0.04-0.039,0.04-0.08,0.04-0.119c-0.04-0.041-0.08-0.121-0.12-0.16
		l-0.521-0.441c-0.521-0.439-1.081-0.4-1.642,0.08l-0.16-0.119l0.881-0.961l2.643,2.242l-0.12,0.119l-0.201-0.16
		c-0.08-0.08-0.16-0.119-0.2-0.119c-0.08,0-0.12,0-0.16,0.039l-1.802,2.123c-0.04,0.08-0.04,0.119-0.04,0.16
		c0.04,0.039,0.08,0.119,0.12,0.16l0.28,0.199L39.102,98.277L39.102,98.277z M71.971,102.563c0.16-0.041,0.32-0.08,0.521-0.16
		c0.199-0.08,0.32-0.16,0.359-0.201c0.041-0.08,0.041-0.119,0-0.199l-0.52-1.281l-0.361,0.16l-0.16,0.08
		c-0.359,0.119-0.561,0.279-0.641,0.48c-0.119,0.16-0.119,0.399,0,0.641c0.08,0.199,0.16,0.32,0.281,0.4
		c0.119,0.08,0.24,0.119,0.4,0.119C71.891,102.563,71.932,102.563,71.971,102.563L71.971,102.563z M74.174,101.841l-1.922,0.801
		c-0.08,0.04-0.16,0.081-0.281,0.12c-0.279,0.08-0.561,0.121-0.801,0.08c-0.279-0.08-0.48-0.24-0.6-0.52
		c-0.121-0.24-0.08-0.481,0.039-0.721c0.201-0.32,0.521-0.561,0.961-0.721l0.4-0.201l0.281-0.119l-0.281-0.641l-0.199-0.441
		c0-0.08-0.041-0.119-0.08-0.119c-0.08,0-0.16,0-0.24,0.039l-0.441,0.16l-0.08-0.16l1.041-0.439l0.842-0.32l0.08,0.16l-0.4,0.16
		c-0.08,0.039-0.121,0.039-0.16,0.08c-0.041,0.039-0.041,0.119,0,0.16l1.08,2.563c0.041,0.079,0.08,0.079,0.121,0.119
		c0.08,0,0.16-0.04,0.279-0.08l0.281-0.119L74.174,101.841L74.174,101.841z M76.055,99.199l0.721,0.48l-0.16-1.723l-0.561,0.361
		l-0.721,0.4L76.055,99.199L76.055,99.199z M77.057,100.32l-0.16,0.08l-0.842-0.561l-2.121-1.402c-0.121-0.08-0.24-0.08-0.4,0.041
		l-0.121,0.039l-0.08-0.119l1.441-0.881l0.08,0.16l-0.119,0.08c-0.121,0.08-0.24,0.16-0.281,0.199c-0.039,0.041-0.039,0.08,0,0.121
		l0.721,0.52l0.881-0.52l0.561-0.32l-0.039-0.48c-0.041-0.121-0.041-0.201-0.08-0.24c-0.041-0.08-0.121-0.121-0.24-0.121
		c-0.041,0-0.121,0-0.201,0.041c-0.039,0.039-0.08,0.039-0.16,0.08l-0.119,0.08l-0.08-0.16l0.359-0.201l0.961-0.561l0.08,0.121
		c-0.16,0.08-0.24,0.199-0.279,0.279c-0.08,0.121-0.08,0.24-0.08,0.441L77.057,100.32L77.057,100.32z M51.633,102.962l0.721-0.841
		l-0.721-0.199l-0.721-0.16l0.32,1.682L51.633,102.962L51.633,102.962z M51.633,101.762l0.881,0.199l0.281-0.359
		c0.08-0.081,0.119-0.16,0.16-0.24c0-0.08,0-0.121-0.08-0.201s-0.201-0.16-0.361-0.199l-0.119-0.041l0.039-0.16l1.48,0.4
		l-0.039,0.16c-0.16-0.039-0.279-0.039-0.4,0c-0.119,0.041-0.24,0.121-0.359,0.24l-1.482,1.723l-0.641,0.8l-0.199-0.04l-0.641-3.523
		c0-0.119-0.121-0.199-0.281-0.279h-0.119l0.039-0.201l1.602,0.441l-0.039,0.16l-0.121-0.041c-0.16-0.039-0.279-0.039-0.359-0.039
		s-0.121,0.039-0.121,0.08l0.16,0.92L51.633,101.762L51.633,101.762z M42.985,100.199l1.401-2.242v-0.16
		c-0.04-0.039-0.08-0.119-0.2-0.16l-0.28-0.199c-0.28-0.16-0.56-0.24-0.841-0.281c-0.24,0.041-0.36,0.08-0.521,0.16
		c-0.2,0.121-0.4,0.361-0.6,0.682c-0.32,0.52-0.44,0.92-0.4,1.281c0.08,0.32,0.28,0.6,0.641,0.801l0.4,0.24
		c0.08,0.08,0.121,0.08,0.2,0.08c0.041,0,0.08-0.041,0.12-0.08L42.985,100.199L42.985,100.199z M43.786,101.281l-0.801-0.48
		l-1.041-0.641c-0.281-0.201-0.48-0.361-0.641-0.561c-0.16-0.24-0.24-0.561-0.281-0.881c0-0.361,0.081-0.682,0.281-1.002
		c0.16-0.279,0.36-0.48,0.601-0.641c0.16-0.119,0.4-0.199,0.601-0.199c0.16-0.041,0.32-0.041,0.48,0c0.08,0,0.2,0.039,0.28,0.08
		c0.201,0.039,0.44,0.16,0.721,0.32l1.642,1.041l-0.08,0.16l-0.36-0.201c-0.08-0.08-0.12-0.08-0.2-0.08l-1.602,2.443
		c0,0.039-0.04,0.119,0,0.16c0,0.039,0.081,0.08,0.12,0.119l0.36,0.24L43.786,101.281L43.786,101.281z M80.059,97.877v0.4
		l-0.16,0.121l-0.84-1.002l0.16-0.119c0.32,0.24,0.641,0.359,0.92,0.359c0.32,0,0.561-0.119,0.801-0.279
		c0.201-0.16,0.32-0.361,0.361-0.561c0.039-0.201,0-0.361-0.08-0.48c-0.08-0.121-0.16-0.16-0.281-0.201c-0.08,0-0.199,0-0.32,0.041
		c-0.16,0-0.359,0.119-0.641,0.279c-0.439,0.24-0.721,0.361-0.92,0.4c-0.201,0.08-0.4,0.08-0.561,0.041
		c-0.16-0.041-0.281-0.16-0.4-0.281c-0.201-0.24-0.24-0.52-0.201-0.84c0.08-0.32,0.281-0.641,0.602-0.881
		c0.32-0.281,0.68-0.4,1.08-0.441l0.041-0.439l0.16-0.121l0.84,1.041L80.5,95.035c-0.32-0.24-0.641-0.361-1.002-0.361
		c-0.359,0-0.641,0.121-0.92,0.361c-0.24,0.16-0.361,0.359-0.4,0.561c-0.041,0.24,0,0.439,0.119,0.561
		c0.041,0.119,0.16,0.16,0.24,0.199c0.121,0,0.24,0,0.4-0.039c0.121-0.041,0.4-0.16,0.762-0.361c0.439-0.24,0.76-0.359,0.961-0.359
		c0.279-0.041,0.52,0.08,0.68,0.279c0.201,0.24,0.281,0.521,0.201,0.842c-0.041,0.279-0.201,0.561-0.48,0.801
		c-0.16,0.08-0.32,0.16-0.441,0.24C80.459,97.797,80.26,97.838,80.059,97.877L80.059,97.877z M69.529,103.643l-3.242,0.801
		l-0.361-1.121l0.201-0.039c0.16,0.359,0.359,0.561,0.52,0.68c0.201,0.08,0.441,0.12,0.682,0.041l0.801-0.201
		c0.08,0,0.119-0.04,0.16-0.08v-0.119l-0.281-1.242l-0.359,0.121c-0.201,0.039-0.32,0.119-0.441,0.279
		c-0.08,0.121-0.08,0.32-0.039,0.561l-0.201,0.04l-0.4-1.562l0.201-0.08c0.08,0.281,0.199,0.441,0.32,0.521
		c0.16,0.08,0.32,0.119,0.561,0.039l0.32-0.08l-0.361-1.32c0-0.08-0.039-0.08-0.08-0.121h-0.199l-0.641,0.16
		c-0.682,0.201-1.002,0.641-0.922,1.402l-0.199,0.039l-0.24-1.281l3.363-0.84l0.039,0.199l-0.281,0.041
		c-0.119,0.039-0.158,0.08-0.199,0.119c-0.039,0.041-0.039,0.08-0.039,0.16l0.68,2.684c0,0.08,0.041,0.119,0.08,0.119h0.201
		l0.32-0.08L69.529,103.643L69.529,103.643z M62.723,103.362c-0.24,0.04-0.439,0.12-0.6,0.2c-0.16,0.16-0.24,0.32-0.201,0.602
		c0,0.199,0.08,0.319,0.16,0.439c0.08,0.08,0.16,0.16,0.281,0.16c0.08,0.04,0.199,0.04,0.359,0.04c0.08,0,0.201-0.04,0.32-0.04
		c0.24,0,0.361-0.04,0.4-0.08c0.08-0.04,0.08-0.08,0.08-0.119l-0.119-1.281l-0.521,0.039
		C62.844,103.362,62.764,103.362,62.723,103.362L62.723,103.362z M62.723,101.441l1.762-0.16v0.16l-0.4,0.039
		c-0.08,0.04-0.16,0.04-0.199,0.08c-0.041,0.041-0.041,0.08-0.041,0.121l0.281,2.802c0,0.04,0.039,0.081,0.08,0.12
		c0.039,0.04,0.119,0.04,0.199,0.04l0.4-0.079l0.041,0.199l-2.123,0.2c-0.48,0.08-0.801,0.04-1.041-0.12
		c-0.24-0.12-0.4-0.32-0.4-0.6c-0.039-0.121,0-0.281,0.08-0.4c0.08-0.121,0.201-0.24,0.361-0.32c0.16-0.121,0.439-0.201,0.801-0.24
		c-0.281-0.041-0.48-0.08-0.561-0.121c-0.121-0.08-0.201-0.12-0.281-0.24c-0.08-0.08-0.16-0.24-0.279-0.52
		c-0.08-0.201-0.16-0.361-0.201-0.4c-0.08-0.08-0.119-0.08-0.199-0.08c-0.041,0-0.08,0.039-0.121,0.119
		c-0.08,0.08-0.08,0.201-0.08,0.4h-0.199c0-0.52,0.199-0.801,0.641-0.881c0.119,0,0.279,0,0.359,0.08
		c0.121,0.041,0.201,0.121,0.281,0.2c0.039,0.081,0.08,0.321,0.199,0.681c0.041,0.201,0.08,0.32,0.16,0.44
		c0.08,0.08,0.201,0.12,0.32,0.16c0.041,0,0.08,0.04,0.16,0.04h0.32l0.32-0.04l-0.119-1.36c0-0.08-0.041-0.121-0.08-0.121
		c-0.041-0.039-0.121-0.039-0.201-0.039l-0.24,0.039h-0.16l-0.039-0.16L62.723,101.441L62.723,101.441z M59.48,105.164l-3.363-0.2
		v-1.161h0.199c0.041,0.4,0.16,0.641,0.32,0.801s0.361,0.24,0.602,0.24l0.84,0.08c0.08,0,0.121-0.04,0.16-0.04
		c0.041-0.04,0.041-0.08,0.041-0.16l0.08-1.241h-0.361c-0.199-0.039-0.359,0.041-0.48,0.121c-0.119,0.119-0.199,0.279-0.24,0.52
		h-0.199l0.119-1.602h0.16c0,0.281,0.08,0.44,0.201,0.561c0.119,0.16,0.279,0.201,0.48,0.201l0.32,0.039l0.08-1.4
		c0-0.041,0-0.081-0.041-0.121c-0.039-0.039-0.119-0.039-0.199-0.039l-0.682-0.041c-0.68-0.039-1.121,0.32-1.281,1.082l-0.199-0.041
		l0.16-1.281l3.443,0.16v0.2l-0.281-0.04c-0.119,0-0.199,0.04-0.24,0.04c-0.039,0.04-0.08,0.081-0.08,0.161l-0.16,2.762
		c0,0.08,0.041,0.12,0.08,0.16c0.041,0,0.08,0.04,0.16,0.04h0.361V105.164L59.48,105.164z M48.791,103.402l-1.643-0.641l0.08-0.16
		l0.281,0.121c0.119,0.039,0.199,0.039,0.24,0.039c0.039,0,0.08-0.039,0.119-0.08v-0.119l-0.16-2.684l-1.761,1.723
		c0,0.039-0.04,0.08-0.08,0.16c-0.04,0.079-0.04,0.16,0,0.199c0.04,0.08,0.12,0.121,0.24,0.16l0.24,0.121l-0.04,0.16l-1.441-0.562
		l0.04-0.159l0.12,0.039c0.08,0.041,0.2,0.041,0.32,0c0.12-0.039,0.24-0.119,0.36-0.24l2.322-2.242l0.201,0.08l0.199,3.443
		c0,0.121,0.041,0.2,0.08,0.28c0.041,0.08,0.121,0.12,0.201,0.161l0.16,0.039L48.791,103.402L48.791,103.402z"/>
</g>
</svg>
