<?xml version="1.0" encoding="utf-8"?>
<!-- Generator: Adobe Illustrator 15.0.0, SVG Export Plug-In . SVG Version: 6.00 Build 0)  -->
<!DOCTYPE svg PUBLIC "-//W3C//DTD SVG 1.1//EN" "http://www.w3.org/Graphics/SVG/1.1/DTD/svg11.dtd">
<svg version="1.1" id="Capa_1" xmlns="http://www.w3.org/2000/svg" xmlns:xlink="http://www.w3.org/1999/xlink" x="0px" y="0px"
	 width="425.2px" height="141.73px" viewBox="0 0 425.2 141.73" enable-background="new 0 0 425.2 141.73" xml:space="preserve">
<g>
	<polygon fill="#A80A2E" points="5.976,15.844 418.004,15.844 418.004,125.427 5.976,125.427 5.976,15.844 	"/>
	<path fill="#FFFFFF" d="M286.461,55.213c0.527,0,1.25,1.221,1.25,1.546c0,0.175-0.26,0.676-0.342,0.958
		c-0.053,0.202-0.016,0.527-0.016,0.702v2.301c0,0.176-0.572,2.082-0.572,2.258s0.215,1.054,0.215,1.229s-0.143,2.073-0.143,2.249
		s0.143,0.527,0.143,0.703s-0.074,0.258-0.098,0.319c0.025,0.131,0.027,2.448,0.027,2.597c0,0.352-0.215,0.878-0.215,1.054
		s0.215,0.913,0.215,1.089s-0.287,1.095-0.357,1.584l0.143,5.092c0,0.176-0.082,0.131-0.145,0.189v0.82
		c0.002,0.379,0.297,0.945,0.627,1.358c0.434,0.074,1.16-0.31,1.586,0.187c-0.033,0.365-0.387,1.075-0.869,1.418
		c-0.438,0.316-0.912,0.383-1.439,0.541c-0.008,0-1.617,1.038-1.939,1.038c-0.598,0-0.711-0.771-0.844-1.145
		c-0.119-0.331,0.023-0.19,0.023-0.366s-0.178-0.424-0.348-0.59c-0.105-0.105-0.188-0.078-0.367-0.078
		c-0.723,0-2.66,1.546-3.285,1.546c-0.178,0-0.523-0.158-0.756-0.193c-0.563-0.097-1.184,0.06-1.719-0.116
		c-0.537-0.175-1.115-0.416-1.58-0.706c-0.32-0.202-0.605-0.604-0.865-0.894c-0.67-0.756-1.803-1.493-1.963-2.477
		c-0.143-0.87-0.688-2.324-0.688-2.5s0.357-1.195,0.357-1.371s-0.215-0.527-0.215-0.703c0-0.175,0.467-1.543,0.807-2.263
		c0.295-0.624,0.533-0.835,0.641-1.397c0.045-0.228,0.156-0.461,0.291-0.646c0.365-0.518,0.898-1.007,1.344-1.394
		c0.215-0.193,0.688-0.102,1.01-0.26c0.65-0.316,1.451-0.31,2.076-0.494c0.285-0.088,0.689-0.396,0.867-0.396s0.357,0.114,0.5,0.114
		c0.357,0,0.965-0.044,1.143-0.044s0.588-0.043,0.865,0.018c0.365,0.079,0.957,0.333,1.135,0.333c0.5,0,1.107-0.21,1.107-0.878
		c0-0.176-0.072-0.281-0.072-1.054c0-0.14-0.178-0.268-0.195-0.417c-0.045-0.352-0.09-0.848-0.09-1.023
		c0-0.175,0.285-1.405,0.285-1.581c0-0.676-0.5-1.256-0.5-1.405c0-0.176,0.205-0.274,0.215-0.494c0.053-0.984,0.07-1.052,0.07-1.228
		s0.018-0.909-0.232-1.208c-0.67-0.79-2.053-1.138-2.053-1.955c0-0.606,0.465-1.054,1.045-1.054h0.91c0.18,0,0.287-0.157,0.43-0.192
		c0.428-0.105,0.867-0.017,1.285-0.114C285.613,55.715,286.281,55.213,286.461,55.213L286.461,55.213z M280.318,69.619
		c-1.732,0-1.463,0.066-3.588,1.216c-0.25,0.132-0.477,0.467-0.637,0.696c-0.188,0.255-0.191,0.592-0.334,0.847
		c-0.285,0.519-0.182,0.833-0.332,1.36c0.08,0.087,0.07,0.131-0.002,2.879c0.287,0.779,0.488,1.637,0.881,2.261
		c0.543,0.87,1.352,1.62,2.139,2.024c0.684,0.352,0.908,0.473,1.146,0.512c0.184,0.029,0.377,0.01,0.799,0.01
		c0.58,0,0.824-0.054,1.439-0.265c0.33-0.114,0.736-0.073,1.076-0.257c0.295-0.158,0.582-0.475,0.775-0.721
		c0.1-0.685,0.457-2.025,0.457-2.2c0-0.176-0.143-0.281-0.143-0.457s0.143-0.632,0.143-0.808s-0.213-1.934-0.213-2.108
		c0-0.176,0.143-1.37,0.143-1.546c0-0.782-0.02-0.574-0.387-1.576c-0.205-0.553-0.855-0.897-1.418-1.188
		c-0.385-0.202-0.766-0.538-1.148-0.661C280.848,69.55,280.496,69.619,280.318,69.619L280.318,69.619z M228.822,69.369
		c-1.197,0-2.52,0.399-3.652,1.77c-0.197,0.237-0.354,0.563-0.436,0.783c-0.125,0.334-0.07,0.719-0.186,0.981
		c-0.348,0.772-0.334,1.306-0.334,2.009v0.966c0,0.176,0.189,0.484,0.262,0.704c0.063,0.202-0.01,0.43,0.043,0.631
		c0.08,0.281,0.268,0.635,0.359,0.921c0.059,0.075,0.199,0.214,0.24,0.278c0.08,0.311,0.211,0.816,0.471,0.974
		c0.713,0.431,1.803,1.488,2.508,1.69c0.545,0.158,1.475,0.379,1.652,0.379c0.18,0,1.656-0.424,2.426-0.712
		c0.107-0.222,0.332-0.483,0.369-0.649c0.168-0.686,0.455-2.012,0.455-2.188s-0.107-0.27-0.125-0.357
		c-0.055-0.281,0.027-0.556,0.027-0.767c0-0.562,0-1.126-0.045-2.25c-0.018-0.491,0.08-0.985,0.045-1.407
		c-0.027-0.281-0.26-0.55-0.314-0.777c-0.115-0.458,0.035-1.124-0.268-1.423C230.955,69.581,230.09,69.369,228.822,69.369
		L228.822,69.369z M235.143,55.245c0.18,0,0.369,0.085,0.484,0.165c0.912,0.641,0.801,1.118,0.801,1.662
		c0,0.176-0.098,0.824-0.17,1.167c-0.063,0.29-0.33,0.66-0.33,0.836s0.072,1.685,0.162,4.009c-0.02,0.075,0.053-0.003,0.053,0.172
		s-0.5,1.273-0.5,1.449v15.02c0,2.029,1.857,0.404,1.857,1.941c0,0.527-0.281,1.191-0.879,1.447
		c-0.535,0.229-1.26,0.176-1.859,0.396c-0.563,0.202-1.404,0.757-1.582,0.757c-0.777,0-0.75-1.568-0.775-1.85
		c-0.041-0.063-0.107-0.127-0.168-0.19c-0.129,0.003-0.348-0.035-0.473,0.018c-1.053,0.448-2.266,1.249-3.291,1.46
		c-0.84,0.176-0.936,0.071-1.115,0.071c-0.178,0-0.994-0.028-1.404-0.169c-0.375-0.132-0.811-0.303-1.223-0.566
		c-0.223-0.148-0.439-0.537-0.715-0.748c-1.063-0.808-1.797-2.086-2.279-3.176c-0.107-0.255-0.084-0.572-0.119-0.853
		c-0.027-0.211-0.215-0.492-0.24-0.703c-0.045-0.351-0.09-0.777-0.09-1.198c0-1.055-0.072-1.16-0.072-1.336s0.02-0.589,0.092-0.852
		c0.063-0.229,0.232-0.486,0.313-0.707c0.232-0.605,0.262-1.578,1.004-2.186c0.023-0.062,0.098-0.139,0.139-0.202
		c0.025-0.203-0.088-0.603,0.127-0.788c1.035-0.896,2.178-1.148,3.348-1.648c0.215-0.088,0.475-0.325,0.787-0.448
		c0.402-0.158,0.869-0.143,1.299-0.143c0.215,0,0.607-0.088,0.785-0.088c0.18,0,0.322,0.141,0.5,0.141
		c0.18,0,0.215-0.141,0.393-0.141c0.18,0,0.68,0.141,0.857,0.141s0.957-0.14,1.445-0.231c0.275-0.386,0.627-1.034,0.627-1.209
		c0-0.703-0.563-1.403-0.43-2.112l0.072-3.861c-0.18-2.721-2.357-1.564-2.357-3.444c0-0.421,0.938-1.089,1.33-1.089h1.482
		c0.178,0,0.615-0.57,0.998-0.684C234.365,55.377,234.965,55.245,235.143,55.245L235.143,55.245z M149.971,68.877
		c0.447,0,0.822,1.687,1.322,1.687c0.4,0,2.168-1.071,2.311-1.105c0.207-0.053,0.506-0.089,0.713-0.113
		c0.064-0.041,0.127-0.116,0.307-0.116h1.838c0.848,0,1.463,0.408,2.525,0.935c0.445,0.22,0.572,0.715,0.678,1.057
		c0.232,0.703,0.555,1.479,0.699,2.186l0.07,3.802c-0.072,0.286-0.125,0.634-0.17,0.915c-0.018,0.141-0.258,0.39-0.258,0.565v1.528
		c0,0.176,0.258,0.484,0.33,0.773c0.133,0.545,0.016,1.219,0.186,1.755c0.18,0.571,0.27,0.44,0.27,0.889
		c0,0.94-0.865,1.265-1.535,1.265c-0.178,0-0.434-0.1-0.658-0.196c-0.445-0.192-1.52,0.056-1.52-0.893l0.07-5.977
		c0.072-0.354,0.357-1.016,0.357-1.191c0-0.175-0.215-0.632-0.215-0.808s0.215-0.527,0.215-0.703s-0.357-0.904-0.357-1.08v-1.002
		c0-0.193-1.049-1.46-1.264-1.557c-0.268-0.114-0.557-0.182-0.844-0.182c-0.213,0-0.463-0.044-0.643-0.044
		c-1,0-1.98,0.197-2.98,0.786c-1.018,0.606-0.912,2.183-0.912,3.009c0,0.176,0.143,1.792,0.143,1.968s-0.355,1.405-0.355,1.581
		s0.123,2.219,0.516,3.291c0.107,0.308,1.982,1.426,1.982,1.874c0,0.642-1.24,1.124-1.57,1.124c-0.178,0-0.615-0.264-0.902-0.334
		c-0.482-0.123-1.076,0.053-1.639-0.044c-0.232-0.035-0.553-0.077-0.73-0.218c-0.25-0.203-0.586-0.801-0.586-0.977v-2.898
		c0-0.176,0.43-1.143,0.43-1.318v-7.536c0-0.176-0.277-0.461-0.482-0.576c-0.375-0.211-1.447,0.119-1.447-0.716
		c0-0.571,1.789-1.054,1.969-1.036c0.285,0.026,0.574,0.106,0.844,0.027C149.121,69.142,149.793,68.877,149.971,68.877
		L149.971,68.877z M189.932,70.001c-0.178,0-1.279,0.168-1.904,0.371c-0.438,0.141-0.926,0.37-1.211,0.695
		c-0.152,0.167-0.313,0.542-0.309,0.717v0.379c0.84,0.33,1.773,0.419,2.814,0.648l1.578-0.07c0.531-0.124,0.961-0.58,0.961-0.949
		c0-0.175-0.336-0.73-0.418-0.862C191.016,70.272,190.486,70.001,189.932,70.001L189.932,70.001z M190.074,68.807
		c0.68,0,0.832,0.119,1.549,0.538c2.207,0.289,3.094,1.966,3.094,3.398c0,0.176-0.012,0.918-0.172,1.313
		c-0.115,0.29-0.818,1.006-1.221,1.006c-0.178,0-0.844-0.486-1.301-0.688c-0.33-0.15-0.771-0.146-1.199-0.155
		c-1.537-0.053-1.145-0.212-1.717-0.264c-0.285-0.026-0.641,0.088-1.428,0.053c-0.518-0.026-1.283-0.492-1.461-0.492
		c-0.625,0-0.857,0.29-0.857,0.808c0,0.176-0.215,1.23-0.215,1.406c0,0.668,0.035,0.491,0.072,2.318
		c0,0.219,0.227,0.475,0.396,0.756c0.25,0.412,0.479,0.829,0.854,1.26c0.465,0.535,0.867,1.456,1.51,1.649
		c0.535,0.157,1.945,0.798,2.668,0.798c0.445,0,1.127-0.668,1.297-0.816c0.277-0.255,1.105-0.627,1.25-1.057
		c0.043-0.133,0.08-0.393,0.248-0.559c0.107-0.105,0.383-0.168,0.563-0.168c0.48,0,0.643,0.386,0.643,0.702
		c0,0.176-0.197,0.896-0.314,1.31c-0.018,0.07-0.117,0.244-0.225,0.342c-0.402,0.359-1.035,1.061-1.277,1.561
		c-0.107,0.237-0.744,0.467-0.922,0.527c-0.223,0.08-0.434,0.113-0.639,0.209c-0.215,0.106-0.508,0.267-0.799,0.338l-3.223-0.07
		c-2.031-0.625-4.244-2.842-4.459-4.669c-0.168-1.467,0.045-1.829,0-2.743c-0.018-0.51-0.428-1.266-0.428-1.441
		s0.225-0.504,0.332-0.819c0.178-0.527,0.303-1.22,0.473-1.825c0.107-0.378,0.188-0.721,0.285-1.055
		c0.117-0.378,0.355-0.838,0.65-1.207c0.268-0.334,0.803-0.385,1.133-0.596c0.885-0.563,1.715-1.322,2.725-1.577
		C188.646,68.72,189.896,68.807,190.074,68.807L190.074,68.807z M166.791,68.245c0.732,0,0.135,1.194,1.07,1.194
		c0.18,0,0.895-0.421,1.072-0.421s0.393,0.211,0.572,0.211c0.178,0,0.893-0.281,1.07-0.281s0.654,0.23,0.975,0.326
		c0.617,0.185,1.277,0.166,1.932,0.186c0.152,0.129,0.236,0.296,0.236,0.472c0,0.747-0.785,0.588-0.785,1.756
		c0,0.176,0.33,0.776,0.4,1.225c0.135,0.764,0.463,1.766,0.855,2.662c0.115,0.264,0.18,0.653,0.26,0.917
		c0.135,0.439,0.668,0.893,0.883,1.401c0.072,0.168,0.039,1.174,0.637,1.174c0.178,0,0.268-0.135,0.373-0.197
		c0.119-0.462,0.516-0.822,0.855-1.401c0.357-0.624,0.371-1.496,0.613-2.173c0.105-0.316,0.418-0.604,0.525-0.981
		c0.24-0.817,0.811-2.345,0.811-2.521c0-1.229-1.5-1.036-1.5-1.792c0-0.422,0.563-0.492,0.75-0.492c0.18,0,1.75,0.07,1.93,0.07
		c0.178,0,0.393,0.141,0.57,0.141c0.18,0,0.357-0.141,0.5-0.141c1.287,0,1.322,0.07,1.5,0.07c0.18,0,0.5-0.141,0.68-0.141
		c0.178,0,0.408,0.145,0.564,0.228v0.248c-0.438,0.292-0.936,0.602-1.443,0.83c-0.268,0.114-0.666,0.107-0.934,0.186
		c-0.625,0.185-1.076,0.88-1.318,1.302c-0.66,1.15-1.061,2.438-1.641,3.721c-0.053,0.123-0.014,0.338-0.014,0.514
		c0,0.175-0.484,0.88-0.627,1.311c-0.063,0.201-0.047,0.511-0.117,0.704c-0.205,0.51-0.672,1.033-1.029,1.622
		c-0.072,0.113-0.014,0.368-0.014,0.543c0,0.176-0.625,1.475-0.768,2.116c-0.063,0.272-0.055,0.571-0.117,0.844
		c-0.07,0.29-0.258,0.632-0.342,1.003c-0.094,0.008-0.059,0.078-0.236,0.078c-0.482,0-0.828-1.384-0.846-1.428
		c-0.242-0.633-0.457-1.355-0.645-1.97c-0.375-1.204-0.73-2.431-1.213-3.581c-0.197-0.475-0.445-0.953-0.738-1.472
		c-0.145-0.255-0.092-0.585-0.191-0.849c-0.115-0.307-0.391-0.604-0.525-0.911c-0.143-0.325-0.125-0.722-0.26-1.056
		c-0.285-0.711-0.545-1.484-0.857-2.248c-0.088-0.237-1.537-1.172-2.01-1.172c-0.67,0-1.287,1.047-1.322,1.583l-0.143,10.118
		c-0.027,0.878,1.07,1.132,1.07,1.686c0,0.571-1.713,0.737-1.82,0.737c-0.178,0-0.572-0.14-0.75-0.14s-0.25,0.069-0.959,0.069
		c-0.283,0.07-0.568,0.211-0.859,0.281c-0.65-0.07-0.717,0-0.803-0.002c-0.082-0.078-0.141-0.07-0.221-0.101
		c-0.221-0.261-0.516-0.74-0.516-0.916c0-0.685,2.225-1.007,2.43-2.392l0.143-2.756c0-0.176-0.037-0.018-0.139-0.027v-1.167
		c-0.004-0.176,0.078-0.007,0.139-0.065v-3.519c0-0.176-0.037-0.018-0.141-0.039c0.08-0.108,0.141-0.188,0.141-0.364
		s-0.143-0.141-0.143-0.316s0.143,0.035,0.143-0.141s-0.293-0.885-0.453-1.359c-0.125-0.369-0.762-0.995-0.762-1.17
		c0-0.272,0.131-0.578,0.453-0.684c0.535-0.176,1.24-0.325,1.857-0.536C166.342,68.598,166.238,68.245,166.791,68.245
		L166.791,68.245z M220.334,68.176c0.32,0.197,0.193,0.735,0.256,0.937c0.08,0.281,0.34,0.677,0.34,0.853
		c0,0.176-0.467,1.059-0.699,1.629c-0.045,0.123,0.057,0.268,0.057,0.444l-0.072,9.656c0.07,0.205,0.109,0.512,0.297,0.758
		c0.223,0.299,0.633,0.654,0.633,0.829c0,0.633-1.1,0.843-1.402,0.843h-2.053c-0.18,0-0.688,0.281-0.867,0.281
		c-0.563,0-1.607,0.063-1.607-1.088c0-0.607,0.471-0.78,1.238-1.07c0.063-0.018,0.242-0.016,0.355,0.054
		c0.051-0.257,0.549-0.735,0.674-0.902c0.098-0.132,0.207-0.331,0.207-0.542c0-0.28,0.025-0.658,0.025-0.834v-7.186
		c0-0.175-0.166-1.216-0.381-1.734c-0.16-0.396-0.832-0.83-0.832-1.172c0-0.632,2.102-1.166,2.236-1.219
		C219.148,68.546,219.908,68.113,220.334,68.176L220.334,68.176z M211.287,68.104c0.67,0,2.988,0.729,2.988,0.729
		c0.16,0.141,1.012,1.177,1.012,1.52c0,0.176-0.6,0.855-0.77,1.312c-0.117,0.325-0.045,0.722-0.189,1.056
		c-0.16,0.369-1.104,1.005-1.398,1.005c-0.348,0-1.188-0.909-1.26-0.997c-0.098-0.123-0.168-0.373-0.168-0.549
		c0-0.272,0.17-0.422,0.357-0.422c0.178,0,0.357,0.141,0.535,0.141c0.098,0,0.607-0.167,0.607-0.457c0-1.028-1.01-0.878-1.393-0.878
		c-0.947,0-1.535,0.035-1.535,1.229c0,0.738-0.061,1.088,0.439,1.879c0.34,0.536,0.791,1.084,1.266,1.611
		c0.098,0.105,0.379,0.172,0.539,0.295c0.723,0.563,1.645,1.471,2.01,2.244c0.152,0.324,0.102,0.963,0.102,1.139
		s0.5,1.511,0.5,1.687c0,0.175-0.277,0.483-0.34,0.712c-0.072,0.264-0.002,0.594-0.119,0.848c-0.178,0.396-0.559,0.643-0.889,0.994
		c-0.162,0.176-0.416,0.737-0.816,0.896c-0.215,0.088-0.496,0.212-0.791,0.282c-0.84,0.203-2.438,0.449-2.615,0.449
		c-0.867,0-1.006-0.161-2.123-0.662c-0.311-0.141-1.377-1.428-1.377-1.973c0-0.176,0.172-1.306,0.449-1.912
		c0.072-0.166,0.336-0.231,0.516-0.231c0.178,0,0.242,0.083,0.361,0.229c0.439,1.624,1.049,2.723,2.459,2.723
		c0.91,0,2.643-0.712,2.643-1.863c0-0.57-0.139-0.846-0.381-1.391c-0.07-0.158-0.213-0.461-0.418-0.619
		c-1.213-0.932-2.184-1.885-3.246-3.123c-0.258-0.299-0.504-0.655-0.717-1.033c-0.145-0.246-0.219-0.646-0.264-0.996
		c-0.027-0.211-0.322-0.486-0.33-0.705c-0.055-0.844-0.072-0.951-0.072-1.127s0.143-0.989,0.225-1.5
		C208.68,68.855,209.779,68.104,211.287,68.104L211.287,68.104z M198.752,68.104c2.17,0,1.125,2.249,2,2.249
		c0.18,0,0.316-0.19,0.486-0.26c0.83-0.378,1.729-1.918,2.594-1.917h0.93c0.938,0.549,1.098,0.896,1.098,1.66v1.317
		c0,0.299-0.865,0.817-0.965,0.817c-0.178,0-1.713-0.351-1.893-0.351c-1.545,0-2.705,2.741-2.527,3.468
		c0.025,0.068-0.043,0.221-0.043,0.292c-0.072,1.336-0.143,2.353-0.143,2.528s0.064,0.193,0.113,0.271
		c0.029,0.36-0.043,0.96-0.043,1.136c0,1.291,0.5,0.948,0.5,1.65c0,0.176-0.143,0.422-0.143,0.598s0.072,0.246,0.072,0.422
		c0,0.826,1.346,1.477,1.701,1.801c0.107,0.098,0.154,0.272,0.154,0.447c0,0.59-1.15,0.668-1.258,0.668h-4.053
		c-0.438,0-0.83-0.553-0.83-0.913c0-0.536,1.18-1.011,1.26-1.31c0.053-0.201,0.027-0.424,0.098-0.629l-0.072-7.016
		c-0.07-0.205-0.215-0.482-0.268-0.771c-0.08-0.414-0.02-1.166-0.02-1.342s-0.414-1.15-0.734-1.668
		c-0.357-0.571-1.049-0.905-1.246-1.555c-0.018-0.071-0.018-0.08-0.018-0.255c0-0.228,0.027-0.606,0.607-0.588
		C198.102,68.903,197.477,68.104,198.752,68.104L198.752,68.104z M244.678,76.677c-0.178,0-1.4,0.627-1.865,1.136
		c-0.26,0.281-0.264,0.745-0.406,0.99c-0.205,0.379-0.621,0.816-0.621,0.992v0.861c0,0.36,1.42,1.15,1.607,1.15
		c0.295,0,0.623-0.388,0.709-0.492c0.045,0.121,0.041,0.211,0.219,0.211c0.385,0,1.465-0.518,1.465-1.229
		c0-0.176-0.018-0.284-0.072-0.986C245.65,78.484,246.088,76.677,244.678,76.677L244.678,76.677z M243.713,65.926
		c0.18,0,0.645,0.21,0.822,0.21s0.893-0.21,1.072-0.21c0.473,0,1.207,0.455,1.43,0.789c0.197,0.299,0.242,0.704,0.434,1.008
		c0.1,0.48,0.242,0.969,0.385,1.466l-0.07,11.11c-0.1,0.757,1.168,1.087,1.627,1.181c0.35,0.555,0.301,0.854,0.301,1.417
		c0,0.229,0.08,0.734-0.18,1.008c-0.758,0.799-0.883,0.924-1.641,0.924c-1.84,0-1.705-1.896-2.322-1.896
		c-0.428,0-0.869,0.605-1.109,0.809c-0.822,0.693-1.613,0.666-2.434,0.666h-1.412c-0.82,0-1.4-1.932-1.4-2.204v-2.337
		c0-0.176,0.336-1.346,0.738-1.908c0.303-0.422,1.152-0.599,1.635-0.88c0.76-0.448,1.434-0.831,1.996-1.288
		c0.24-0.202,0.672-0.086,1.012-0.191c0.688-0.211,1.189-0.625,1.189-1.275c0-0.175-0.143-1.545-0.143-1.721s0.143-1.16,0.143-1.335
		c0-1.423-0.365-1.756-0.883-3.468c-0.045-0.176-1.107-0.959-1.402-0.959c-0.18,0-0.586,0.202-0.701,0.404
		c-0.18,0.307-0.225,0.817-0.402,1.125c-0.115,0.193-0.461,0.218-0.621,0.376c-0.51,0.492-0.383,2.382-1.383,2.382
		c-0.66,0-1.107-1.379-1.107-1.616c0-0.369,0.178-0.523,0.553-0.971c0.143-0.176,0.086-0.497,0.264-0.638
		C241.076,67.137,242.57,65.926,243.713,65.926L243.713,65.926z M131.793,62.412c-0.553,0-0.637,0.456-1.119,1.211
		c-0.195,0.299-0.15,0.72-0.33,0.983c-0.24,0.36-0.592,0.7-0.744,1.06c-0.195,0.466-0.52,1.305-0.52,1.48v1.563
		c0,0.176,0.303,0.627,0.33,0.908c0.035,0.352-0.096,0.73,0.047,1.064c0.072,0.167,0.369,0.276,0.457,0.426
		c0.117,0.193,0.082,0.528,0.189,0.703c0.393,0.615,0.844,1.132,1.273,1.526c0.293,0.273,0.746,0.177,1.096,0.177
		c0.383,0,1.178,0.176,1.178-0.667c0-0.176-0.357-1.23-0.357-1.406s0.182-0.639,0.369-0.894c0.16-0.228,0.453-0.314,0.596-0.49
		c0.145-0.175,0.045-0.526,0.188-0.702c0.215-0.255,0.615-0.507,0.883-0.771c0.348-0.352,0.443-1.011,0.602-1.34
		c0.068-0.065,0.043-0.125,0.221-0.125c0.17,0,0.428,0.185,0.428,0.448v1.564c0,1.177,1.357,1.282,1.357,2.626
		c0,0.413,0.053,0.453-0.447,1.067c-0.393,0.483-0.869,0.952-1.324,1.304c-0.178,0.141-0.449,0.221-0.645,0.396
		c-0.938,0.861-1.848,1.897-2.768,2.029c-0.293,0.035-0.609,0.263-0.789,0.263h-3.125c-0.178,0-0.83-0.505-1.105-0.831
		c-0.438-0.509-0.545-1.168-0.902-1.598c-0.107-0.123-0.75-0.558-0.752-0.707v-3.067c0.789-0.541,0.787-1.141,0.787-1.703
		c0-0.176,0-0.564-0.082-2.063c-0.096-0.01-0.168-0.08-0.244-0.079c-0.453,0.142-0.631,0.812-0.836,1.066
		c-0.49,0.606-1.908,1.537-2.078,2.758c-0.027,0.193-0.402,0.787-0.402,1.094c0,0.747,0.928,1.494,0.928,2.064v1.212
		c0,0.211,1.27,2.335,1.529,2.59c1.295,1.274,2.732,1.978,4.072,2.231c0.178,0.035,0.279,0.229,0.359,0.238
		c0.428,0.053,1.219,0.167,1.396,0.167s0.467-0.026,1.467-0.07c0.355-0.018,0.711-0.272,1.004-0.335
		c0.35-0.07,0.734-0.026,1.074-0.113c0.445-0.115,0.906-0.389,1.361-0.592c0.51-0.219,1.17-0.289,1.643-0.491
		c0.197-0.079,0.504-0.019,0.695-0.118c0.104-0.119,0.256-0.318,0.256-0.494l0.07-12.654c-0.072-0.216-0.098-1.294-0.607-1.294
		c-0.561,0-0.713,0.914-2.355,0.914c-0.18,0-1.215-0.352-1.393-0.352c-0.402,0-1.402,0.128-1.697,0.304
		c-1.027,0.624-0.67,0.961-1.34,0.961c-0.625,0-0.748-0.378-0.748-0.949c0-0.202,0.82-1.172,0.908-1.217
		c0.305-0.167,0.662-0.32,0.662-0.716C132.508,62.702,132.133,62.412,131.793,62.412L131.793,62.412z M135.33,60.304
		c0.07,0,0.137,0.071,0.715,0c2.014,0.334,1.855,1.195,3.426,1.195c2.42,0,0.813-1.125,2.75-1.125c0.725,0,1.857,0.105,1.857,1.089
		c0,0.808-1.143,0.984-1.143,1.484v6.377c0,0.175,0.285,2.679,0.285,2.854s-0.115,1.372-0.213,3.48c-0.037,0.843-0.082,1.12,0,2.385
		c0.018,0.316-0.117,1.303,0.713,1.303c0.393,0,0.188-0.277,0.662-0.541c0.25-0.141,0.838-0.232,1.018-0.232
		c0.178,0,0.301,0.004,0.453,0.08c0,0,0.082-0.01,0.082,0.166c0,0.211-0.732,1.225-0.816,1.912c-0.408,0.431-0.777,1.014-1.27,1.393
		c-0.963,0.737-2.068,1.042-3.094,2.035c-0.26,0.246-1.035,0.387-1.213,0.387c-0.188,0-0.893-0.201-0.893-0.518v-0.861
		c0-0.176,0.268-0.481,0.33-0.771c0.072-0.342,0.098-0.977,0.098-1.152c0-0.509-0.188-1.054-0.643-1.054
		c-0.49,0-1.205,1.034-1.68,1.535c-0.428,0.448-0.93,0.968-1.402,1.382c-0.17,0.148-0.547,0.123-0.787,0.325
		c-0.785,0.642-1.951,1.036-2.594,1.044c-3.027,0.063-1.83,0.141-2.75,0.141c-0.18,0-0.264,0.026-1.184-0.07
		c-1.08-0.113-2.084-0.391-3.227-1.041c-0.375-0.211-0.883-0.191-1.285-0.395c-0.445-0.229-0.836-0.777-1.113-1.252
		c-0.186-0.325-0.57-0.553-0.74-0.843c-0.115-0.193-0.08-0.526-0.188-0.702c-0.633-1.055-0.621-0.871-0.621-1.529
		c0-0.176-0.4-0.695-0.48-1.082c-0.063-0.271,0-0.635-0.045-0.986c-0.027-0.211-0.26-0.602-0.26-0.777s0.357-1.01,0.357-1.186
		v-2.127c0-0.175,0.271-0.754,0.451-1.062c0.115-0.202,0.473-0.314,0.598-0.56c0.088-0.185,0.055-0.453,0.189-0.638
		c0.223-0.307,0.609-0.458,0.814-0.704c0.143-0.176,0.109-0.5,0.182-0.693c0.125-0.333,0.584-0.948,0.816-1.273
		c0.188-0.264,0.334-0.618,0.547-0.847c0.572-0.615,1.902-1.602,1.902-2.331c0-0.465-0.18-0.492-0.465-0.492
		c-0.535,0-1.125,0.773-2.25,0.773c-0.178,0-1.643-0.773-1.82-0.773c-0.287,0-0.895,0.457-0.895,0.747v1.037
		c0,0.448-0.625,1.049-0.695,1.629c-0.055,0.413,0.086,0.958-0.119,1.416c-0.09,0.21-0.506,0.373-0.686,0.373
		c-0.178,0-0.445-0.478-0.66-0.715c-0.277-0.316-0.725-0.537-1.027-0.915c-0.25-0.307-0.203-1.034-0.096-1.362
		c-0.002-0.065-0.072-0.138-0.002-1.12c0-0.069-0.143-0.174-0.143-0.35s0.076-0.159,0.119-0.224
		c0.025-0.134-0.047-0.374-0.047-0.549c0-0.334,0.561-1.057,1.016-1.347c0.268-0.167,0.664-0.189,1.012-0.26
		c0.205-0.044,0.607-0.488,0.92-0.655c0.33-0.175,0.742-0.256,1.074-0.396c0.313-0.132,0.701-0.679,0.879-0.679h9.34
		c1.205,0,0.141,0.844,1.58,1.125c0.566-0.07,0.643,0,0.713,0C134.684,61.709,134.178,60.269,135.33,60.304L135.33,60.304z
		 M165.256,57.985c0.178,0,0.643,0.07,0.82,0.07c0.527,0,0.881,0.548,1.143,1.154c-0.07,0.711-0.082,0.753,0,0.842
		c-0.102,0.231-0.875,1.587-1.393,1.587c-0.313,0-1.158-0.593-1.301-0.936c-0.053-0.123,0.018-0.363-0.045-0.565
		c-0.072-0.22-0.332-0.573-0.332-0.749c0-0.175,0.223-0.409,0.334-0.544c0.025-0.065,0.023-0.202,0.045-0.279
		C164.746,58.305,164.916,57.985,165.256,57.985L165.256,57.985z M218.609,57.844c0.178,0,0.816,0.099,1.154,0.231
		c0.697,0.272,0.881,1.28,0.881,1.667c0,0.799-0.92,1.757-1.572,1.757c-0.607,0-0.391-0.224-1.043-0.573
		c-0.238-0.501-0.6-1.465-0.6-1.64C217.43,59.101,218.037,57.844,218.609,57.844L218.609,57.844z M257.32,70.353
		c-1.785,0-3.813,0.972-4.063,3.476c-0.035,0.359-0.33,0.803-0.33,0.979v2.125c0,0.176,0.387,1.119,0.617,1.69
		c0.045,0.123,0,0.36,0.045,0.491c0.215,0.554,0.096,1.063,0.783,1.467c0.115,0.07,0.322,0.063,0.42,0.178
		c0.83,0.975,1.881,1.4,2.809,1.488c0.305,0.025,0.682,0.193,0.861,0.193c0.178,0,1.283-0.18,1.803-0.452
		c0.668-0.343,0.74-1.005,0.891-1.47c0.09-0.281,0.262-0.563,0.271-0.782c0.061-1.476,0.07-4.147,0.07-4.323
		c0-0.738-0.074-1.25-0.412-2.225c-0.135-0.396,0.055-0.926-0.268-1.277C259.686,70.672,258.48,70.353,257.32,70.353L257.32,70.353z
		 M263.605,56.369c1.07,0,1.463,0.966,1.463,1.757c0,0.176-0.57,2.53-0.57,2.706c0,0.175,0.143,1.265,0.143,1.44
		s-0.143,1.125-0.143,1.3c0,0.176,0.143,0.492,0.143,0.668c0,0.175-0.357,1.374-0.428,2.004l0.07,13.499
		c-0.074,0.148-0.143,0.203-0.143,0.378c0,0.597,0.16,1.427,0.48,1.595c0.197,0.105,0.486,0.021,0.701,0.039
		c0.33,0.026,0.824,0.539,1.004,0.918c0.027,0.071,0.029,0.084,0.029,0.26c0,0.544-1.055,1.334-1.545,1.334h-0.982
		c-0.027,0-2.07,0.844-2.152,0.844c-1.285,0-0.105-1.967-1.285-1.967c-0.178,0-2.174,1.13-3.344,1.587
		c-0.258,0.097-0.727,0.028-0.906,0.028c-3.07,0-4.434-2.094-5.549-4.518c-0.143-0.325-0.146-0.784-0.191-1.205
		c-0.018-0.211-0.211-0.361-0.311-0.625c-0.125-0.324-0.092-0.89-0.092-1.065s-0.035-0.646,0.072-1.48
		c0.027-0.21,0.189-0.419,0.26-0.639c0.135-0.413,0.055-0.86,0.188-1.265c0.145-0.431,0.307-0.945,0.502-1.34
		c0.152-0.299,0.693-0.582,0.693-0.758s-0.143-0.141-0.143-0.316c0-0.439,1.805-1.484,2.027-1.528
		c1.135-0.237,2.258-1.02,3.295-1.002c1.5,0.026,2.248,0.141,2.428,0.141c0.178,0,0.359-0.141,0.574-0.123
		c1.25,0.105,1.533-0.966,1.533-1.563c0-0.176-0.357-1.186-0.357-1.362v-1.985c0-0.176,0.178-1.681,0.045-2.516
		c-0.072-0.448-0.217-0.968-0.494-1.319c-0.74-0.948-1.838-1.093-1.838-2.024c0-0.474,0.703-0.975,1.104-1.01
		c0.5-0.052,1.078-0.052,1.57-0.14c0.293-0.053,0.617-0.428,0.992-0.586c0.125-0.053,0.363-0.011,0.578-0.046
		C263.17,56.457,263.426,56.369,263.605,56.369L263.605,56.369z M341.314,70.111c0.178,0,0.713,0.168,1.078,0.256
		c0.205,0.044,0.51-0.07,0.697-0.026c0.76,0.185,0.76,0.5,0.76,0.965c0,0.176-0.107,0.669-0.125,1.021
		c-0.045,0.633-0.018,3.441-0.018,3.617s-0.18,0.807-0.27,1.236c-0.045,0.203,0.027,0.485,0.027,0.749
		c0,0.228-0.115,0.544-0.115,0.72s0.275,1.18,0.375,1.752c0.15,0.904,1.584,1.92,2.441,1.797c0.572-0.07,0.646,0,0.713,0
		c0.209-0.068,0.531-0.003,0.771-0.16c0.75-0.492,1.764-0.633,2.102-1.573c0.17-0.466,0.311-1.288,0.311-1.464
		s-0.213-1.049-0.285-1.545c0.072-0.848,0-0.914,0-0.988c0.072-0.354,0.285-0.875,0.285-1.051s-0.141-0.164-0.193-0.34
		c-0.09-0.264-0.119-0.641-0.145-0.922c-0.037-0.351,0.09-0.777,0.027-1.121c-0.145-0.702-2.189-1.078-2.189-1.974
		c0-0.519,1.125-0.878,1.357-0.878c0.18,0,0.764,0.143,1.115,0.282l1.633,0.07c1.262-0.254,1.395,1.467,1.395,2.108
		c0,0.176-0.5,3.514-0.5,3.689s0.215,1.687,0.215,1.862c0,0.175-0.215,1.335-0.215,1.511s0.072,1.896,0.072,2.072
		c0,1.037,1.713,0.449,1.713,1.055c0,0.176-0.213,0.46-0.445,0.601c-0.33,0.202-0.717,0.427-1.082,0.497
		c-0.35,0.061-0.795-0.018-1.145,0.043c-0.365,0.07-0.898,0.405-1.076,0.405c-0.832,0-0.814-0.935-1.23-1.409
		c-0.904,0.021-1.973,0.987-2.91,1.058c-1.215,0.097-1.793-0.07-2.363-0.123c-0.938-0.097-2.244-0.608-2.789-1.152
		c-0.09-0.088-1.029-2.835-1.029-3.222c0-0.48-0.008-0.379-0.01-0.379l0.082-2.539c0.008-0.509,0.5-1.439,0.5-1.615
		s-0.035-0.492-0.098-0.765c-0.08-0.36-0.303-0.694-0.385-1.054c-0.061-0.272,0.037-0.578-0.043-0.842
		c-0.135-0.438-0.404-1.063-0.404-1.239C339.92,70.331,340.84,70.111,341.314,70.111L341.314,70.111z M375.883,69.408
		c0.178,0,0.441,0.158,0.648,0.185c0.705,0.105,1.494,0.307,2.221,0.327c0.154,0.129,0.238,0.332,0.238,0.507
		c0,0.553-0.645,0.843-0.645,1.651c0,0.176,0.143,0.492,0.188,0.677c0.268,1.011,0.273,2.31,0.996,3.486
		c0.115,0.193,0.1,0.514,0.189,0.706c0.268,0.589,0.721,1.191,1.096,1.824c0.197,0.325-0.021,0.545,0.389,0.545
		c0.83,0,1.68-2.642,1.805-3.274c0.027-0.14,0.217-0.35,0.314-0.569c0.143-0.325,1.023-2.999,1.023-3.324
		c0-0.808-1.357-0.808-1.357-1.616c0-0.308,0.277-0.492,0.475-0.492h2.053c0.178,0,1.221,0.018,1.863-0.026
		c0.357-0.018,0.967-0.185,1.145-0.185c0.18,0,0.512,0.072,0.738,0.149c0,0,0.084-0.009,0.084,0.167s-0.48,0.652-0.873,0.916
		c-0.525,0.36-1.268,0.352-1.785,0.677c-0.582,0.368-1.021,0.983-1.229,1.511c-0.195,0.519-0.365,1.072-0.57,1.616
		c-0.215,0.571-0.615,1.106-0.813,1.686c-0.09,0.264-0.018,0.581-0.117,0.845c-0.115,0.307-0.418,0.632-0.525,0.913
		c-0.098,0.272-0.098,0.579-0.188,0.843c-0.197,0.579-0.777,1.161-1.027,1.759c-0.107,0.255-0.018,0.646-0.115,0.979
		c-0.115,0.379-0.41,0.755-0.525,1.193c-0.145,0.555-0.113,1.364-0.6,2.061h-0.406c-0.145-0.147-0.305-0.357-0.35-0.586
		c-0.152-0.686-0.707-1.416-0.787-1.898c-0.15-0.896-0.57-1.822-0.855-2.736c-0.035-0.132-0.02-0.355-0.043-0.489
		c-0.043-0.064-0.111-0.132-0.17-0.211c-0.021-0.221-0.035-0.509-0.115-0.702c-0.393-0.877-0.947-2.075-1.217-2.883
		c-0.07-0.221-0.313-0.483-0.383-0.703c-0.348-1.037-0.65-2.211-1.115-3.229c-0.107-0.237-2.119-1.147-2.119-1.525
		c0-0.457,0.742-0.703,0.785-0.703c0.18,0,0.645,0.141,0.822,0.141S375.703,69.408,375.883,69.408L375.883,69.408z M362.275,70.251
		c-0.178,0-0.379,0.15-0.611,0.185c-0.58,0.097-2.744,0.167-2.744,1.572c0,0.176,0.004,0.265,0.086,0.389
		c0.799,0.173,1.582,0.383,2.373,0.596c1.076,0,1.146,0.07,1.326,0.07c0.438,0,1.643-0.264,1.643-1.055
		c0-0.492-1.051-1.526-1.451-1.667C362.699,70.271,362.455,70.251,362.275,70.251L362.275,70.251z M361.963,69.057h0.912
		c0.482,0,2.986,1.115,3.031,1.15c0.223,0.176,0.5,0.476,0.766,0.711c0.174,0.553,0.533,1.653,0.533,1.829
		c0,1.143-0.164,1.774-1.023,2.492c-1.004,0.012-1.779-0.797-2.654-0.753c-0.428,0.018-0.969,0.086-1.369-0.046
		c-0.84-0.281-1.422-0.244-2.209-0.35c-0.428-0.062-1.172-0.324-1.352-0.324c-0.928,0-0.82,0.957-0.82,1.65
		c0.025,2.248-0.072,2.537-0.127,2.817c-0.018,0.257,0.441,0.909,0.752,1.019c0.078,0.074,0.018,0.135,0.018,0.311
		s0.422,0.543,0.609,0.824c0.09,0.141,0.035,0.307,0.115,0.42c0.285,0.396,0.727,0.893,1.182,1.086
		c0.83,0.36,2.449,0.797,2.629,0.797c0.955,0,2.033-1.234,2.846-2.235c0.145-0.185,0.512-0.364,0.689-0.364
		c0.365,0,0.643,0.404,0.643,0.632c0,0.176-0.201,1.081-0.461,1.503c-0.393,0.641-1.039,1.103-1.574,1.717
		c-0.16,0.186-0.678,0.584-1.004,0.592c-0.076-0.018-0.131-0.018-0.197-0.002c-0.434,0.235-1.094,0.477-1.664,0.477h-2.625
		c-0.18,0-0.232-0.158-0.377-0.193c-1.08-0.299-2.547-1.649-3.287-2.773c-0.33-0.501-0.576-1.127-0.719-1.697
		c-0.063-0.272,0.053-0.57,0.053-0.852l-0.072-2.105c-0.143-0.77-0.357-0.617-0.357-1.162c0-0.176,0.502-1.758,0.734-2.574
		c0.188-0.659,0.406-1.434,0.791-1.979c0.545-0.755,1.777-1.248,2.49-1.722c0.447-0.29,0.85-0.54,1.297-0.663
		C360.705,69.137,361.785,69.057,361.963,69.057L361.963,69.057z M298.496,69.268c-0.18,0-0.51,0.211-0.688,0.211h-0.982
		c-0.357,0-1.459,0.86-1.639,1.141c-0.088,0.149-0.334,0.326-0.332,0.501v0.238c0.16,0.083,0.322,0.183,0.455,0.201
		c0.992,0.176,2.793,0.519,2.971,0.519c0.24,0,2.215-0.087,2.215-0.983C300.496,70.208,299.451,69.268,298.496,69.268
		L298.496,69.268z M298.104,68.073c1.865,0,3.324,0.683,4.637,1.623c0.186,0.132,0.119,0.528,0.199,0.792
		c0.33,1.054,0.342,0.862,0.342,1.521c0,0.703-0.125,1.828-1.322,1.828c-0.178,0-2.188-0.352-2.365-0.352h-0.982
		c-0.178,0-0.982-0.422-1.16-0.422h-1.84c-0.178,0-0.508-0.211-0.688-0.211c-1.188,0-1.143,0.799-1.143,1.405
		c0,0.176,0.143,1.37,0.143,1.546s-0.143,0.879-0.143,1.055c0,0.509,0.736,1.598,0.969,1.984c0.15,0.246,0.229,0.689,0.471,0.979
		c0.25,0.308,1.135,1.061,1.607,1.228c0.77,0.272,2.275,0.656,2.453,0.656c0.973,0,2.383-1.865,2.668-2.234
		c0.143-0.185,0.439-0.295,0.617-0.295c0.545,0,0.643,0.404,0.643,0.633c0,0.176-0.18,0.531-0.27,0.75
		c-0.045,0.123-0.012,0.373-0.119,0.566c-0.482,0.844-1.367,1.91-2.27,2.516c-0.41,0.272-1.492,0.313-1.672,0.313h-3.268
		c-0.178,0-0.523-0.311-0.738-0.407c-1.625-0.721-2.938-2.532-3.328-3.618c-0.043-0.066-0.191-0.112-0.191-0.287v-3.11
		c0-0.175-0.195-0.393-0.268-0.612c-0.063-0.202-0.09-0.608-0.09-0.784s0.023-0.396,0.094-0.51c0.555-0.869,0.395-1.66,0.957-2.53
		c0.07-0.114,0.074-0.338,0.109-0.549c0.027-0.149,0.254-0.318,0.316-0.433c0.135-0.237,0.492-0.906,0.75-1.117
		c0.117-0.097,0.324-0.106,0.43-0.186c1.107-0.808,1.967-1.341,3.084-1.648C297.146,68.048,297.924,68.073,298.104,68.073
		L298.104,68.073z M394.203,75.943c-0.59,0-0.93,0.462-1.627,0.893c-0.303,0.185-0.748,0.254-0.998,0.395
		c-0.785,0.439-0.4,1.098-0.613,1.616c-0.063,0.157-0.266,0.206-0.311,0.276c-0.16,0.271-0.236,0.746-0.236,0.922v0.866
		c1.215,1.188,0.518,1.497,2.035,1.497c0.82,0,1.869-0.131,2.477-1.142c0.072-0.123,0.211-0.302,0.201-0.442
		c-0.125-1.615-0.08-2.178-0.143-3.512C394.961,76.706,395.148,75.943,394.203,75.943L394.203,75.943z M395.203,62.521
		c0.525,0,0.594-0.018,1.129,0.43c0.117,0.097,0.094,0.391,0.236,0.567c0.215,0.254,0.588,0.504,0.678,0.785
		c0.188,0.624,0.375,1.317,0.57,1.967c0.08,0.264,0.027,0.636,0.1,0.991l-0.143,13.285c0,0.614,0.742,1.225,1.197,1.488
		c0.313,0.176,0.84-0.078,1.145,0.115c0.482,0.316,0.373,0.996,0.373,1.383c0,0.175-0.02,1.055-0.172,1.521
		c-0.188,0.606-2.088,1.009-2.15,1.009c-2.49,0-1.838-2.74-3.32-2.74c-0.18,0-0.525,0.197-0.705,0.408
		c-0.223,0.272-0.596,1.215-1.105,1.391c-0.473,0.166-1.484,0.52-1.662,0.52h-1.197c-0.178,0-0.846,0.076-1.238-0.1
		c-0.678-0.308-0.758-1.078-1.043-1.605c-0.26-0.482-0.467-0.974-0.602-1.483c-0.07-0.263-0.045-0.642-0.045-0.923
		c0-0.141-0.117-0.246-0.117-0.421c0-0.272,0.377-1.062,0.402-1.202c0.125-0.545,0.158-1.215,0.479-1.698
		c0.482-0.737,1.326-1.235,1.916-1.815c0.107-0.105,0.383-0.119,0.508-0.189c0.375-0.211,0.791-0.548,1.148-0.662
		c0.277-0.088,0.662-0.088,1.002-0.185c0.17-0.044,0.338-0.347,0.49-0.444c0.268-0.175,0.682-0.186,0.93-0.326
		c0.385-0.201,0.641-0.675,0.963-0.878c0.021-0.062,0.092-0.188,0.092-0.259c0-0.984,0.07-1.195,0.07-1.371
		c0-0.175-0.143-0.351-0.143-0.527c0-0.175,0.143-0.21,0.143-0.386s-0.07-1.933-0.07-2.108c0-0.413-0.34-2.273-0.34-2.352
		c-0.055-0.834-0.537-1.799-1.287-2.273c-0.242-0.158-0.803-0.153-0.98-0.153c-1.313,0-1.346,0.732-2.311,2.093
		c-0.42,0.588-0.262,1.479-0.396,2.165c-0.053,0.272-0.828,0.801-1.078,0.801c-0.705,0-1.18-1.774-1.18-2.108
		c0-0.536,0.551-1.057,0.838-1.461c0.133-0.185,0.275-0.552,0.463-0.693c0.107-0.079,0.379-0.126,0.504-0.188
		c0.375-0.202,0.738-0.855,1.076-0.775c0.199-0.244,0.365-0.671,0.635-0.865c0.883-0.641,2.107-0.384,3.16-0.472
		C394.539,62.75,395.023,62.521,395.203,62.521L395.203,62.521z M370.74,57.462c0.723,0,1.57,0.774,1.535,1.793l-0.143,22.521
		c0,0.176-0.031,1.118,0.229,1.637c0.135,0.264,0.842,0.964,0.842,1.279c0,0.615-0.973,0.738-1.213,0.738
		c-0.18,0-2.754-0.088-3.754-0.166c-0.436-0.036-0.674-0.527-0.674-0.782c0-0.132-0.021-0.341,0.311-0.438
		c0.633-0.202,1.902-1.056,1.902-1.811l-0.143-5.481c0-0.141,0.143-0.211,0.143-0.387l-0.213-4.357c0-0.175,0.213-1.159,0.213-1.335
		c0-0.175-0.143-1.089-0.143-1.265s0.08-0.458,0.09-0.669c0.053-0.914-0.09-1.896-0.09-2.071s0.143-0.21,0.143-0.386
		c0-0.415,0.004-0.416,0.006-0.419l-0.076-3.727c-0.01-0.518,0.102-1.256-0.471-1.723c-0.197,0.069-0.566,0.281-0.744,0.281
		c-0.66,0-0.715-0.65-0.715-0.983c0-0.176,0.074-0.541,0.164-0.751C367.939,58.959,370.07,57.462,370.74,57.462L370.74,57.462z
		 M337.635,56.97c0.42,0,0.719,0.396,1.117,0.072c0.096,0.233,0.313,0.631,0.313,0.807c0,0.053-0.197,0.981-0.322,1.122
		c-0.303,0.325-0.586,0.646-0.979,0.919c-0.322,0.219-0.84,0.22-1.215,0.466c-0.68,0.439-0.648,1.135-0.871,1.653
		c-0.188,0.431-0.283,1.117-0.256,1.531l-0.143,17.288c0,0.782,1.311,1.925,1.543,1.978c0.348,0.079,0.805-0.148,1.217-0.025
		c0.482,0.141,0.924,0.455,1.371,0.877c0.115,0.115,0.357,0.238,0.582,0.469c-0.521,0.961-1.781,0.477-2.521,0.784
		c-0.197,0.079-0.504,0.091-0.727,0.099c-1.143,0.053-1.252,0.07-1.43,0.07c-0.643,0-1.232-0.491-2.25-0.491
		c-1.455,0-0.982,0.843-2.607,0.843c-0.473,0-1.82,0.018-1.82-0.948c0-1.099,1.078-0.776,1.586-1.11
		c0.313-0.21,0.662-0.756,1.072-1.01c0.348-0.22,0.697-0.296,0.697-0.621c0-0.176,0.287-0.482,0.287-0.772
		c0.025-4.216-0.125-4.348-0.125-4.497c0-0.492,0.125-1.441,0.125-1.617c0-1.404-0.018-2.564-1.965-2.564l-9.506,0.141
		c-0.219-0.072-0.467-0.141-0.645-0.141h-2.555c-0.365,0-0.688,0.475-0.688,0.738c-0.008,0.703-0.07,0.843-0.07,1.019
		s0.143,1.229,0.143,1.405s-0.143,1.195-0.143,1.371s0.143,0.562,0.143,0.737s-0.098,1.09-0.143,3.339
		c-0.01,0.703,0.844,1.772,1.629,2.404c0.68,0.545,2.229,0.143,2.229,1.108c0,0.614-1.42,1.159-1.572,1.159
		c-0.178,0-0.75-0.211-0.928-0.211c-0.18,0-0.645,0.141-0.822,0.141s-1.965-0.492-2.143-0.492s-1.5,0.422-1.678,0.422
		c-0.18,0-0.537-0.123-0.75-0.123c-0.5,0-1.086,0.097-1.576,0.026c-0.43-0.062-0.92-0.104-1.305-0.43
		c-0.322-0.272-0.727-0.844-0.727-1.02c0-0.211,0.539-0.491,0.746-0.518c0.82-0.105,2.045,0.419,2.805-0.661
		c0.313-0.457,0.252-1.277,0.324-1.742c0.035-0.229,0.242-0.418,0.314-0.639c0.133-0.412,0.025-1.043,0.025-1.219
		s0.143-0.949,0.143-1.124c0-0.176-0.215-1.511-0.215-1.687l0.072-13.943c-0.07-0.205-0.102-0.503-0.236-0.688
		c-0.223-0.307-0.773-0.618-0.951-0.618h-1.34c-0.18,0-0.844-0.333-1.158-0.597c-0.178-0.149-0.43-0.472-0.51-0.691
		c-0.125-0.333-0.037-0.786-0.117-1.128c-0.053-0.228-0.475-0.605-0.475-0.781c0-0.272,0.732-0.527,0.822-0.527
		c0.178,0,2.5,0.632,2.678,0.632c0.18,0,2.322-0.492,2.5-0.492c0.027,0,1.805,0.633,2.143,0.633c0.18,0,1.607-0.211,1.785-0.211
		c0.625,0,2.357,0.193,2.357,1.265c0,1.212-1.816,0.964-2.236,1.14c-0.365,0.149-0.361,0.72-0.514,0.887
		c-0.813,0.887-1.365,1.547-1.32,2.433c0.07,0.561,0,0.635-0.004,0.692c0.064,0.059,0.146,0.057,0.146,0.233v1.81
		c0,0.175-0.082,0.244-0.145,0.303v3.491c0.002,0.176,0.178,0.362,0.295,0.476c0.098,0.097,0.248,0.218,0.391,0.245
		c0.215,0.035,0.539,0.026,0.717,0.026h11.84c0.178,0,0.287-0.14,0.418-0.161c0.203-0.314,0.686-0.632,0.963-1.019
		c0.223-0.316,0.369-0.657,0.377-1.035c0.125-4.287,0-4.639,0.018-4.985c-0.016-0.065,0.055-0.109,0.055-0.285
		c0-1.124-0.123-0.574-0.811-2.094c-0.205-0.457-1.752-1.384-2.262-1.384c-0.178,0-0.393,0.141-0.57,0.141
		c-0.18,0-0.73-0.335-1.043-0.643c-0.045-0.044-0.1-0.201-0.1-0.376c0-0.633,0.73-1.441,1.355-1.441c0.18,0,0.787,0.352,0.965,0.352
		c0.18,0,0.563-0.21,0.854-0.281l2.793-0.07c0.361,0.071,0.926,0.281,1.104,0.281s1.01-0.42,1.527-0.543
		C336.359,57.191,337.457,56.97,337.635,56.97L337.635,56.97z"/>
	<path fill="#FFFFFF" d="M59.594,34.521c19.945,0,36.113,16.168,36.113,36.113c0,19.945-16.168,36.113-36.113,36.113
		c-19.944,0-36.112-16.168-36.112-36.113C23.482,50.69,39.649,34.521,59.594,34.521L59.594,34.521z M59.594,35.568
		c-19.366,0-35.065,15.7-35.065,35.066c0,19.367,15.699,35.066,35.065,35.066c19.367,0,35.066-15.699,35.066-35.066
		C94.66,51.268,78.961,35.568,59.594,35.568L59.594,35.568z M59.594,41.229c16.24,0,29.404,13.166,29.404,29.406
		s-13.164,29.406-29.404,29.406c-16.239,0-29.404-13.166-29.404-29.406S43.354,41.229,59.594,41.229L59.594,41.229z M76.449,68.802
		l11.379-0.833C86.5,53.721,74.633,42.534,60.098,42.281l-0.004,11.408C68.611,53.936,75.553,60.463,76.449,68.802L76.449,68.802z
		 M72.229,69.11l3.176-0.232c-0.857-7.796-7.346-13.896-15.311-14.142v3.183C66.379,58.162,71.494,62.963,72.229,69.11L72.229,69.11
		z M60.088,69.999l11.096-0.812c-0.693-5.605-5.357-9.979-11.092-10.22L60.088,69.999L60.088,69.999z M71.303,82.896l7.6,8.51
		c5.566-5.179,9.049-12.568,9.049-20.771c0-0.544-0.014-1.085-0.045-1.622l-11.377,0.833c0.012,0.262,0.018,0.525,0.018,0.79
		C76.547,75.457,74.533,79.81,71.303,82.896L71.303,82.896z M68.482,79.741l2.121,2.374c3.018-2.895,4.896-6.969,4.896-11.48
		c0-0.239-0.006-0.477-0.016-0.713l-3.174,0.232l0.008,0.481C72.318,74.204,70.85,77.43,68.482,79.741L68.482,79.741z M60.68,71.005
		l7.105,7.954c2.152-2.118,3.486-5.065,3.486-8.324l-0.006-0.404L60.68,71.005L60.68,71.005z M54.697,81.24l4.07-10.176l-10.844,0
		C48.088,75.582,50.816,79.445,54.697,81.24L54.697,81.24z M53.125,85.171l1.184-2.957c-4.268-1.95-7.268-6.19-7.432-11.149h-3.183
		C43.861,77.362,47.688,82.748,53.125,85.171L53.125,85.171z M48.498,96.74l4.238-10.596c-5.823-2.579-9.922-8.342-10.09-15.08
		l-11.407,0C31.411,82.605,38.475,92.475,48.498,96.74L48.498,96.74z M53.707,86.538l-4.238,10.595
		c3.145,1.202,6.559,1.861,10.125,1.861c7.082,0,13.559-2.597,18.527-6.89l-7.598-8.508c-2.951,2.49-6.766,3.991-10.93,3.991
		C57.523,87.588,55.541,87.217,53.707,86.538L53.707,86.538z M55.277,82.609l-1.182,2.956c1.713,0.632,3.566,0.976,5.498,0.976
		c3.896,0,7.465-1.4,10.23-3.727l-2.119-2.373c-2.203,1.822-5.029,2.919-8.111,2.919C58.078,83.36,56.625,83.096,55.277,82.609
		L55.277,82.609z M59.721,71.502l-4.055,10.135c1.229,0.438,2.551,0.677,3.928,0.677c2.814,0,5.396-0.995,7.412-2.653L59.721,71.502
		L59.721,71.502z M48.559,57.765c-0.691-1.067-1.428-2.147-2.059-2.957c-1.394-1.797-3.994-4.727-5.082-5.941
		c-6.077,5.079-9.994,12.656-10.175,21.152h11.409C42.828,65.119,45.081,60.75,48.559,57.765L48.559,57.765z M50.824,61.416
		c-0.268-0.447-0.773-1.288-1.381-2.262l-0.314-0.498c-3.19,2.79-5.256,6.833-5.429,11.362h3.185
		C47.045,66.637,48.525,63.602,50.824,61.416L50.824,61.416z M57.785,70.018l-0.396-0.268c-0.979-0.674-2.195-1.614-3.1-2.666
		c-1.191-1.311-2.117-3.087-2.949-4.712c-1.979,1.978-3.252,4.664-3.408,7.645H57.785L57.785,70.018z M52.145,61.641
		c0.539,1.024,2.006,3.736,2.928,4.75c1.186,1.377,3.021,2.603,3.969,3.187l0.004-10.609C56.428,59.09,54.035,60.073,52.145,61.641
		L52.145,61.641z M49.967,57.973c0.57,0.906,1.121,1.826,1.658,2.74c2.049-1.647,4.617-2.673,7.422-2.792v-3.184
		C55.639,54.853,52.504,56.04,49.967,57.973L49.967,57.973z M42.235,48.208c1.118,1.249,3.7,4.162,5.091,5.957
		c0.729,0.935,1.416,1.918,2.072,2.923c2.703-2.037,6.033-3.284,9.648-3.398l0.004-11.409C52.723,42.4,46.899,44.593,42.235,48.208
		L42.235,48.208z"/>
	<path fill="#FFFFFF" d="M32.696,89.527c-0.12-0.2-0.2-0.36-0.2-0.561s0.04-0.32,0.16-0.4s0.24-0.08,0.44-0.04
		c0.16,0.08,0.32,0.24,0.44,0.4c0.12,0.2,0.2,0.36,0.2,0.561c0.041,0.2-0.04,0.32-0.16,0.4c-0.08,0.08-0.24,0.08-0.4,0.04
		C32.976,89.848,32.816,89.728,32.696,89.527L32.696,89.527z"/>
	<path fill="#FFFFFF" d="M28.211,84.123l-0.761-2.283l0.2-0.08l0.12,0.4c0.041,0.16,0.12,0.28,0.16,0.32
		c0.04,0.08,0.08,0.08,0.12,0.08c0.041,0,0.08-0.039,0.12-0.12l1.882-2.241l-2.642-0.561h-0.16c-0.08,0.039-0.121,0.119-0.161,0.199
		c0,0.121,0,0.201,0.04,0.361l0.121,0.359l-0.161,0.08l-0.68-2.041l0.2-0.041l0.041,0.16c0.04,0.121,0.12,0.24,0.24,0.32
		c0.12,0.121,0.24,0.16,0.44,0.24l3.443,0.762l0.08,0.24l-2.442,2.962c-0.08,0.081-0.12,0.2-0.12,0.28c-0.04,0.12,0,0.24,0.04,0.36
		l0.08,0.2L28.211,84.123L28.211,84.123z M26.01,76.756l-0.12-1.361l2.522-3.724l-2.042,0.2c-0.2,0-0.36,0.08-0.44,0.241
		c-0.08,0.16-0.08,0.359-0.08,0.641h-0.16l-0.2-2.002h0.2c0,0.2,0.04,0.36,0.08,0.44s0.12,0.2,0.2,0.24
		c0.12,0.08,0.24,0.12,0.32,0.08l2.882-0.24v0.36l-2.602,3.844l2.162-0.201c0.2,0,0.32-0.08,0.4-0.24
		c0.08-0.199,0.12-0.439,0.12-0.76l0.16-0.041l0.2,2.203l-0.2,0.039c0-0.279-0.08-0.52-0.2-0.641c-0.12-0.16-0.28-0.24-0.44-0.24
		l-2.402,0.24l-0.04,0.08c-0.08,0.121-0.12,0.201-0.16,0.281v0.279l0.04,0.281H26.01L26.01,76.756z M25.649,68.988l0.2-2.642h0.2
		l-0.04,0.44c-0.04,0.241,0,0.361,0,0.4c0.04,0.081,0.08,0.081,0.2,0.121l2.722,0.2c0.12,0.04,0.16,0,0.2-0.04s0.08-0.16,0.08-0.32
		l0.04-0.521l0.2,0.04l-0.24,2.643l-0.16-0.041l0.04-0.48c0-0.2,0-0.281-0.04-0.361c0-0.04-0.08-0.08-0.2-0.08l-2.722-0.24
		c-0.08,0-0.16,0-0.2,0.04c-0.04,0.08-0.08,0.2-0.08,0.4l-0.04,0.44H25.649L25.649,68.988z M26.01,64.744l0.641-2.362l0.16,0.08
		l-0.12,0.4c-0.04,0.16-0.04,0.28-0.04,0.36c0,0.04,0.04,0.08,0.08,0.08c0.04,0.04,0.08,0,0.16,0l2.762-0.881l-1.882-1.882
		c-0.04-0.04-0.08-0.08-0.12-0.08c-0.12-0.04-0.2,0-0.24,0.08c-0.081,0.04-0.12,0.16-0.16,0.32l-0.121,0.36l-0.16-0.04l0.521-2.042
		l0.2,0.04l-0.04,0.16c-0.04,0.12-0.04,0.24,0,0.4c0.04,0.16,0.12,0.28,0.28,0.44l2.442,2.482l-0.08,0.28l-3.643,1.161
		c-0.12,0.04-0.201,0.08-0.28,0.16c-0.04,0.08-0.12,0.2-0.16,0.36l-0.04,0.16L26.01,64.744L26.01,64.744z"/>
	<path fill="#FFFFFF" d="M39.302,43.764l0.08-0.44l0.2-0.2l0.881,1.001l-0.2,0.16c-0.4-0.2-0.761-0.28-1.121-0.2
		c-0.36,0.04-0.721,0.2-1.041,0.44c-0.24,0.24-0.44,0.44-0.521,0.681s-0.08,0.44,0.04,0.561c0.08,0.12,0.16,0.16,0.28,0.16
		c0.12,0.04,0.28,0,0.44-0.04c0.16-0.08,0.44-0.24,0.841-0.48c0.521-0.32,0.961-0.521,1.201-0.641c0.24-0.08,0.48-0.12,0.681-0.08
		c0.16,0,0.32,0.08,0.44,0.24c0.2,0.24,0.24,0.561,0.08,0.961c-0.12,0.4-0.4,0.761-0.84,1.081c-0.48,0.4-0.921,0.641-1.441,0.721
		l-0.12,0.521l-0.2,0.2l-0.881-1.081l0.2-0.2c0.32,0.24,0.721,0.32,1.161,0.24c0.4-0.04,0.801-0.24,1.201-0.521
		c0.28-0.24,0.48-0.521,0.601-0.761c0.08-0.28,0.08-0.48-0.04-0.641c-0.08-0.08-0.201-0.16-0.32-0.16c-0.12,0-0.28,0.04-0.48,0.12
		c-0.16,0.08-0.521,0.24-1.041,0.561c-0.561,0.32-0.961,0.521-1.201,0.561c-0.36,0.08-0.641,0-0.801-0.24
		c-0.2-0.24-0.24-0.561-0.12-0.881c0.12-0.4,0.36-0.721,0.761-1.041c0.2-0.16,0.4-0.28,0.601-0.36
		C38.821,43.884,39.062,43.844,39.302,43.764L39.302,43.764z M34.017,50.891l0.48-0.52c0.28-0.36,0.44-0.641,0.52-0.921
		c0.081-0.28,0.04-0.48-0.2-0.68c-0.16-0.12-0.28-0.16-0.44-0.16c-0.12,0-0.24,0.04-0.36,0.12c-0.2,0.12-0.4,0.36-0.681,0.72
		c-0.2,0.241-0.32,0.4-0.32,0.481c-0.04,0.08-0.04,0.12,0.04,0.16L34.017,50.891L34.017,50.891z M34.017,48.409
		c0.2-0.2,0.36-0.32,0.561-0.36c0.32-0.16,0.601-0.16,0.8,0c0.121,0.12,0.2,0.24,0.2,0.44c0,0.16-0.04,0.36-0.12,0.601
		c-0.08,0.24-0.28,0.56-0.56,0.961c0.28-0.24,0.48-0.401,0.601-0.481c0.16-0.04,0.28-0.08,0.4-0.08c0.12-0.041,0.36,0.04,0.641,0.12
		c0.24,0.08,0.4,0.12,0.521,0.08c0.081,0,0.16-0.041,0.2-0.121c0.04-0.04,0.08-0.12,0.04-0.24c0-0.08-0.08-0.2-0.2-0.32l0.16-0.24
		c0.4,0.4,0.4,0.841,0,1.281c-0.12,0.16-0.24,0.28-0.36,0.36c-0.12,0.041-0.28,0.081-0.4,0.081c-0.12-0.04-0.32-0.12-0.641-0.32
		c-0.2-0.081-0.36-0.16-0.48-0.12c-0.12,0-0.28,0.04-0.44,0.16c-0.16,0.08-0.28,0.241-0.44,0.441l-0.32,0.36l1.121,0.88
		c0.2,0,0.28-0.04,0.36-0.16l0.32-0.44l0.16,0.12l-1.681,2.082l-0.16-0.12l0.36-0.44c0.08-0.08,0.12-0.16,0.16-0.24l-0.8-0.72
		l-1.481-1.242c-0.04-0.04-0.12-0.04-0.16,0c-0.08,0.04-0.16,0.081-0.24,0.16l-0.32,0.441l-0.16-0.121l1.882-2.282
		C33.697,48.729,33.857,48.529,34.017,48.409L34.017,48.409z M28.292,57.177l2.162-4.004l1.121,0.48l-0.12,0.2
		c-0.4-0.08-0.721-0.04-0.961,0.08s-0.44,0.36-0.601,0.641l-0.521,1.001c-0.04,0.08-0.08,0.16-0.08,0.24l1.241,0.721l0.24-0.44
		c0.12-0.24,0.16-0.44,0.12-0.641c0-0.2-0.12-0.4-0.32-0.521l0.12-0.24l1.481,0.801l-0.16,0.24c-0.24-0.12-0.44-0.12-0.641-0.04
		c-0.16,0.08-0.32,0.24-0.48,0.521l-0.2,0.4l1.241,0.681c0.08,0,0.12,0,0.16-0.04s0.12-0.12,0.16-0.24l0.44-0.761
		c0.44-0.881,0.36-1.521-0.24-2.042l0.12-0.24l1.161,0.721l-2.242,4.204l-0.16-0.08l0.16-0.36c0.08-0.16,0.12-0.24,0.12-0.32
		s-0.04-0.12-0.08-0.16l-2.522-1.321c-0.04-0.04-0.12-0.04-0.16,0s-0.12,0.12-0.16,0.2l-0.24,0.44L28.292,57.177L28.292,57.177z"/>
	<path fill="#FFFFFF" d="M75.494,40.521l1.162,0.761l1.361,4.284l1.121-1.722c0.119-0.2,0.16-0.36,0.08-0.521
		s-0.201-0.32-0.441-0.44l0.08-0.16l1.723,1.081l-0.121,0.16c-0.16-0.12-0.32-0.16-0.4-0.2c-0.119-0.04-0.24-0.04-0.359,0
		c-0.08,0.04-0.201,0.12-0.24,0.2l-1.563,2.402l-0.32-0.2l-1.4-4.404l-1.162,1.802c-0.119,0.16-0.16,0.32-0.08,0.521
		c0.121,0.16,0.281,0.32,0.561,0.521l-0.119,0.16l-1.842-1.201l0.119-0.16c0.24,0.16,0.441,0.2,0.641,0.2c0.201,0,0.32-0.04,0.4-0.2
		l1.322-2.042v-0.08c-0.08-0.12-0.121-0.24-0.16-0.28c-0.041-0.04-0.121-0.12-0.24-0.16l-0.201-0.16L75.494,40.521L75.494,40.521z"
		/>
	<path fill="#FFFFFF" d="M81.861,44.925l1.682,1.722l-0.121,0.16l-0.32-0.32c-0.119-0.12-0.199-0.2-0.24-0.24
		c-0.08,0-0.119,0-0.16,0.04c-0.039,0-0.039,0.04-0.039,0.12l-0.041,0.08l-0.68,2.762l2.602-0.64c0.041,0,0.08-0.04,0.16-0.08
		c0.041-0.08,0.08-0.16,0.041-0.24c0-0.08-0.082-0.2-0.201-0.32l-0.24-0.28l0.119-0.12l1.482,1.521l-0.119,0.16l-0.121-0.16
		c-0.119-0.08-0.24-0.161-0.361-0.2c-0.158,0-0.32,0-0.52,0.04l-3.402,0.801l-0.201-0.2l0.922-3.724c0-0.12,0-0.2-0.041-0.32
		c-0.039-0.08-0.08-0.2-0.199-0.32l-0.121-0.12L81.861,44.925L81.861,44.925z"/>
	<path fill="#FFFFFF" d="M70.209,38.599c-0.279,0-0.52,0.04-0.719,0.12c-0.402,0.12-0.682,0.48-0.881,1.041
		c-0.201,0.601-0.201,1.081,0.039,1.441c0.201,0.32,0.561,0.561,1,0.721c0.201,0.08,0.361,0.12,0.561,0.12
		c0.08,0.04,0.201,0.04,0.32,0c0.281,0,0.521-0.12,0.721-0.28c0.24-0.2,0.4-0.48,0.521-0.841c0.16-0.4,0.199-0.761,0.16-1.041
		c-0.08-0.28-0.201-0.48-0.4-0.681c-0.201-0.2-0.48-0.36-0.762-0.48C70.57,38.679,70.369,38.639,70.209,38.599L70.209,38.599z
		 M70.209,42.283c-0.24-0.04-0.439-0.12-0.639-0.16c-0.441-0.16-0.842-0.36-1.162-0.681c-0.32-0.28-0.561-0.601-0.721-0.921
		c-0.119-0.36-0.119-0.721,0-1.081c0.121-0.32,0.32-0.601,0.641-0.761c0.32-0.2,0.682-0.32,1.121-0.32c0.279,0,0.52,0,0.76,0.04
		c0.16,0.04,0.361,0.08,0.561,0.16c0.441,0.12,0.842,0.36,1.201,0.641c0.361,0.32,0.602,0.601,0.721,0.961
		c0.16,0.36,0.16,0.721,0.041,1.041c-0.121,0.32-0.32,0.601-0.682,0.801c-0.32,0.2-0.68,0.28-1.16,0.32
		C70.689,42.323,70.449,42.323,70.209,42.283L70.209,42.283z"/>
	<path fill="#FFFFFF" d="M90.789,57.017l1.48,4.324l-1.121,0.521l-0.08-0.24c0.32-0.24,0.521-0.48,0.602-0.761
		c0.039-0.24,0.039-0.561-0.08-0.881l-0.361-1.081c-0.039-0.08-0.08-0.16-0.119-0.16c-0.041-0.04-0.08-0.04-0.16-0.04l-1.201,0.44
		l0.16,0.44c0.08,0.28,0.199,0.44,0.359,0.561s0.361,0.16,0.602,0.08l0.119,0.24l-1.602,0.561l-0.08-0.28
		c0.24-0.08,0.4-0.24,0.48-0.44c0.041-0.2,0.041-0.44-0.08-0.681l-0.119-0.44l-1.361,0.48c-0.041,0-0.08,0.04-0.08,0.12
		c0,0.04,0,0.12,0.039,0.24l0.281,0.881c0.32,0.881,0.881,1.281,1.641,1.201l0.121,0.24l-1.322,0.36l-1.521-4.484l0.16-0.08
		l0.121,0.4c0.039,0.12,0.119,0.24,0.16,0.28c0.039,0.04,0.119,0.04,0.16,0.04l2.682-0.921c0.08-0.04,0.121-0.08,0.121-0.12
		c0-0.08,0-0.16-0.041-0.28l-0.16-0.44L90.789,57.017L90.789,57.017z"/>
	<path fill="#FFFFFF" d="M61.922,37.078l0.361-0.32l0.279,0.04v1.281h-0.279c-0.16-0.4-0.361-0.721-0.682-0.881
		c-0.32-0.2-0.68-0.32-1.08-0.32c-0.32-0.04-0.641,0.04-0.842,0.16c-0.24,0.121-0.32,0.28-0.359,0.44c0,0.12,0.039,0.24,0.119,0.32
		s0.201,0.16,0.361,0.2c0.16,0.08,0.48,0.161,0.92,0.24c0.641,0.08,1.121,0.2,1.361,0.28c0.24,0.12,0.441,0.24,0.561,0.36
		c0.121,0.16,0.201,0.32,0.16,0.48c0,0.32-0.16,0.601-0.52,0.801c-0.361,0.2-0.842,0.28-1.361,0.28
		c-0.602-0.04-1.121-0.16-1.563-0.4l-0.439,0.32l-0.281-0.04l0.041-1.401l0.279,0.04c0.08,0.36,0.32,0.681,0.721,0.921
		c0.361,0.24,0.762,0.36,1.242,0.4c0.4,0,0.721-0.08,0.961-0.2s0.359-0.28,0.4-0.521c0-0.08-0.041-0.2-0.16-0.28
		c-0.08-0.08-0.201-0.16-0.4-0.24c-0.201-0.08-0.602-0.16-1.162-0.24c-0.641-0.12-1.08-0.24-1.281-0.4
		c-0.32-0.16-0.48-0.4-0.48-0.721c0-0.28,0.201-0.561,0.521-0.721c0.32-0.2,0.76-0.28,1.24-0.28c0.24,0,0.48,0.04,0.682,0.12
		C61.482,36.837,61.682,36.958,61.922,37.078L61.922,37.078z M54.115,39.44l1-0.16l-1-1.121l-0.24-0.281l-0.76,1.722L54.115,39.44
		L54.115,39.44z M54.115,37.118l2.602,2.923c0.08,0.12,0.281,0.16,0.521,0.12h0.16l0.039,0.16l-2.281,0.36v-0.16l0.16-0.04
		c0.24-0.04,0.4-0.08,0.52-0.12c0.041-0.04,0.08-0.08,0.08-0.12l-0.641-0.761l-1.16,0.16l-1.08,0.2l-0.201,0.44
		c-0.039,0.16-0.08,0.24-0.08,0.32c0.041,0.08,0.08,0.12,0.201,0.16c0.16,0.04,0.318,0.04,0.561,0l0.158-0.04l0.041,0.2l-2.041,0.32
		l-0.041-0.16c0.201-0.04,0.4-0.12,0.521-0.2c0.08-0.08,0.199-0.2,0.279-0.4l1.441-3.323L54.115,37.118L54.115,37.118z
		 M41.424,42.002l2.282-1.401l0.081,0.16l-0.401,0.24c-0.16,0.12-0.24,0.2-0.28,0.24c-0.04,0.04-0.04,0.12,0.041,0.2l1.401,2.362
		c0.04,0.08,0.12,0.12,0.16,0.12c0.08,0,0.16-0.04,0.32-0.12l0.44-0.24l0.08,0.12l-2.282,1.401l-0.08-0.16l0.44-0.28
		c0.12-0.08,0.24-0.16,0.24-0.2c0.04-0.08,0.04-0.12-0.04-0.24l-1.401-2.322c-0.04-0.08-0.08-0.12-0.16-0.12
		c-0.08,0-0.2,0.04-0.36,0.16l-0.4,0.2L41.424,42.002L41.424,42.002z M45.467,39.72l4.365-1.682l0.6,1.241l-0.24,0.12
		c-0.48-0.721-1.041-0.921-1.721-0.641c-0.16,0.04-0.24,0.12-0.281,0.16c-0.039,0.04-0.039,0.12-0.039,0.16l1.041,2.683
		c0.039,0.08,0.08,0.12,0.119,0.12c0.08,0,0.16-0.04,0.281-0.08l0.52-0.2l0.08,0.16l-2.521,0.961l-0.041-0.16l0.602-0.24
		c0.08-0.04,0.16-0.08,0.199-0.12c0-0.04,0.041-0.08,0-0.12l-1.041-2.723c0-0.04-0.039-0.08-0.119-0.08
		c-0.08-0.04-0.16,0-0.281,0.04c-0.36,0.16-0.601,0.36-0.761,0.641c-0.16,0.24-0.16,0.601-0.12,1.001l-0.28,0.08L45.467,39.72
		L45.467,39.72z"/>
	<path fill="#FFFFFF" d="M92.951,63.743l0.16,1.361l-2.363,3.804l2.043-0.241c0.199-0.04,0.32-0.12,0.4-0.28
		c0.08-0.161,0.119-0.36,0.08-0.641h0.16l0.279,2.001h-0.199c-0.041-0.2-0.08-0.36-0.121-0.44c-0.039-0.08-0.119-0.161-0.199-0.241
		c-0.121-0.08-0.24-0.08-0.32-0.08l-2.844,0.36l-0.039-0.36l2.482-3.923l-2.162,0.24c-0.201,0.04-0.32,0.12-0.4,0.28
		c-0.08,0.2-0.121,0.44-0.08,0.761l-0.16,0.04l-0.281-2.202h0.16c0.041,0.28,0.16,0.48,0.281,0.601c0.119,0.16,0.24,0.24,0.4,0.2
		l2.441-0.28l0.041-0.08c0.039-0.12,0.08-0.24,0.119-0.28c0-0.08,0-0.2-0.039-0.32v-0.24L92.951,63.743L92.951,63.743z"/>
	<path fill="#FFFFFF" d="M86.945,55.575l0.08-0.08c0.199-0.12,0.32-0.32,0.32-0.601c0-0.24-0.121-0.561-0.32-0.881l-0.08-0.16
		l-0.561-0.881l-0.16,0.12l-1,0.641c-0.08,0.04-0.08,0.08-0.08,0.16c0,0.04,0.039,0.16,0.119,0.28l0.359,0.601
		c0.24,0.32,0.441,0.561,0.602,0.721c0.039,0,0.08,0.04,0.119,0.04C86.545,55.655,86.744,55.655,86.945,55.575L86.945,55.575z
		 M87.586,52.252l-0.641,0.4l-0.4,0.24l0.4,0.641l0.16,0.28c0.16,0.24,0.32,0.4,0.48,0.521c0.039,0.04,0.08,0.04,0.119,0.08
		c0.201,0.08,0.441,0.08,0.682-0.08c0.119-0.08,0.24-0.2,0.24-0.32c0.039-0.16,0.039-0.32-0.041-0.48
		c-0.039-0.16-0.199-0.44-0.4-0.841c-0.199-0.24-0.32-0.4-0.359-0.48c-0.08-0.04-0.121-0.04-0.201,0L87.586,52.252L87.586,52.252z
		 M87.586,54.814c0.16,0.32,0.199,0.601,0.199,0.841c0.041,0.28-0.039,0.48-0.199,0.601c-0.201,0.16-0.4,0.16-0.602,0.12
		c-0.24-0.08-0.439-0.24-0.68-0.48c-0.041,0-0.041-0.04-0.08-0.04c-0.24-0.24-0.48-0.561-0.68-0.921l-1.563-2.482l0.16-0.08
		l0.24,0.4c0.08,0.12,0.16,0.2,0.201,0.24c0.078,0.04,0.119,0.04,0.16,0.04l1.48-0.96l0.721-0.44l0.24-0.121
		c0.039-0.04,0.08-0.12,0.08-0.16c0-0.08-0.041-0.2-0.121-0.28l-0.199-0.32l-0.08-0.12l0.08-0.04l0.08-0.041l0.561,0.881
		l1.041,1.641c0.32,0.521,0.48,0.921,0.52,1.281c0,0.36-0.08,0.601-0.279,0.721c-0.16,0.12-0.361,0.12-0.602,0
		c-0.199-0.08-0.439-0.24-0.68-0.48c-0.041-0.04-0.08-0.12-0.16-0.16C87.506,54.574,87.545,54.694,87.586,54.814L87.586,54.814z"/>
	<path fill="#FFFFFF" d="M93.031,75.033l0.279,0.361l-0.039,0.32l-1.322-0.121l0.041-0.24c0.4-0.119,0.721-0.359,0.961-0.641
		c0.199-0.279,0.32-0.641,0.359-1.08c0.041-0.32,0-0.602-0.119-0.842c-0.121-0.24-0.281-0.359-0.441-0.359
		c-0.119,0-0.24,0.039-0.32,0.08c-0.08,0.08-0.16,0.199-0.24,0.359s-0.16,0.48-0.24,0.922c-0.16,0.641-0.279,1.08-0.4,1.32
		c-0.119,0.24-0.24,0.441-0.4,0.561c-0.119,0.121-0.279,0.16-0.48,0.121c-0.32,0-0.561-0.201-0.76-0.561
		c-0.16-0.4-0.24-0.842-0.201-1.402c0.041-0.6,0.24-1.08,0.521-1.521l-0.32-0.44l0.039-0.28l1.361,0.12v0.28
		c-0.4,0.08-0.721,0.281-0.961,0.64c-0.279,0.361-0.4,0.762-0.48,1.242c0,0.4,0.041,0.721,0.16,0.961c0.121,0.24,0.281,0.4,0.48,0.4
		c0.121,0.039,0.201,0,0.32-0.08c0.08-0.121,0.16-0.24,0.24-0.441c0.08-0.199,0.201-0.561,0.32-1.121
		c0.16-0.641,0.281-1.041,0.441-1.281c0.16-0.32,0.439-0.44,0.721-0.44c0.32,0.04,0.561,0.241,0.76,0.561
		c0.16,0.359,0.201,0.76,0.16,1.281c0,0.24-0.039,0.439-0.119,0.68C93.271,74.594,93.15,74.793,93.031,75.033L93.031,75.033z"/>
	<path fill="#FFFFFF" d="M92.791,77.996l-0.682,2.563l-0.16-0.08l0.121-0.439c0.039-0.16,0.039-0.32,0.039-0.361
		c-0.039-0.08-0.08-0.119-0.16-0.119l-2.643-0.721c-0.119-0.041-0.199-0.041-0.24,0c-0.039,0.08-0.08,0.16-0.119,0.32l-0.121,0.52
		l-0.199-0.08l0.68-2.563l0.201,0.041l-0.16,0.52c-0.041,0.16-0.041,0.281-0.041,0.32c0.041,0.08,0.08,0.121,0.201,0.121
		l2.643,0.721c0.08,0.039,0.16,0.039,0.199,0c0.041-0.08,0.121-0.201,0.16-0.4l0.121-0.441L92.791,77.996L92.791,77.996z"/>
	<path fill="#FFFFFF" d="M89.947,85.283l0.16,0.44l-0.119,0.28l-1.242-0.521l0.121-0.24c0.439,0.04,0.801-0.079,1.121-0.28
		c0.279-0.24,0.52-0.52,0.68-0.881c0.121-0.32,0.201-0.6,0.16-0.841c-0.039-0.28-0.119-0.44-0.279-0.521
		c-0.121-0.039-0.24-0.039-0.361,0c-0.08,0.04-0.199,0.121-0.32,0.24c-0.119,0.16-0.32,0.4-0.561,0.801
		c-0.32,0.561-0.6,0.921-0.76,1.121c-0.201,0.2-0.4,0.32-0.561,0.4c-0.16,0.04-0.361,0.04-0.521-0.04c-0.279-0.12-0.48-0.4-0.52-0.8
		c-0.041-0.4,0.039-0.842,0.279-1.362s0.561-0.961,0.961-1.281l-0.16-0.521l0.121-0.24l1.281,0.561l-0.121,0.24
		c-0.4-0.04-0.76,0.041-1.121,0.32c-0.359,0.24-0.641,0.601-0.84,1.002c-0.16,0.359-0.201,0.68-0.16,0.961
		c0,0.279,0.119,0.479,0.32,0.56c0.08,0.04,0.199,0.04,0.32,0c0.119-0.08,0.24-0.159,0.359-0.32c0.16-0.159,0.361-0.48,0.682-0.961
		c0.359-0.56,0.641-0.921,0.84-1.081c0.281-0.24,0.561-0.279,0.842-0.16c0.279,0.121,0.439,0.4,0.48,0.761
		c0.08,0.36,0,0.801-0.201,1.241c-0.119,0.24-0.24,0.44-0.359,0.602C90.348,84.963,90.148,85.123,89.947,85.283L89.947,85.283z"/>
	<path fill="#FFFFFF" d="M84.863,91.609c-0.16,0.16-0.32,0.28-0.52,0.36c-0.16,0.04-0.32,0.04-0.4-0.04
		c-0.121-0.12-0.16-0.24-0.16-0.44c0.039-0.16,0.119-0.36,0.279-0.521c0.16-0.2,0.32-0.32,0.48-0.36
		c0.201-0.04,0.32-0.04,0.439,0.04c0.121,0.08,0.162,0.24,0.121,0.44C85.064,91.249,84.982,91.449,84.863,91.609L84.863,91.609z"/>
	<path fill="#FFFFFF" d="M39.102,97.735l-2.563-2.162l0.721-0.961l0.12,0.12c-0.16,0.36-0.24,0.641-0.2,0.841
		c0,0.24,0.12,0.44,0.32,0.601l0.641,0.521c0.04,0.04,0.12,0.08,0.16,0.08s0.08-0.04,0.12-0.08l0.801-0.961l-0.28-0.24
		c-0.16-0.12-0.32-0.16-0.48-0.16s-0.32,0.08-0.48,0.28l-0.16-0.12l1.041-1.241l0.16,0.12c-0.16,0.2-0.24,0.4-0.2,0.561
		c0,0.16,0.08,0.32,0.24,0.44l0.28,0.24l0.881-1.081c0.04-0.04,0.04-0.08,0.04-0.12c-0.04-0.04-0.08-0.12-0.12-0.16l-0.521-0.44
		c-0.521-0.44-1.081-0.4-1.642,0.08l-0.16-0.12l0.881-0.961l2.643,2.242l-0.12,0.12l-0.201-0.16c-0.08-0.08-0.16-0.12-0.2-0.12
		c-0.08,0-0.12,0-0.16,0.04l-1.802,2.122c-0.04,0.08-0.04,0.12-0.04,0.16c0.04,0.04,0.08,0.12,0.12,0.16l0.28,0.2L39.102,97.735
		L39.102,97.735z M71.971,102.02c0.16-0.041,0.32-0.08,0.521-0.16c0.199-0.08,0.32-0.16,0.359-0.2c0.041-0.081,0.041-0.12,0-0.2
		l-0.52-1.281l-0.361,0.16l-0.16,0.08c-0.359,0.12-0.561,0.279-0.641,0.48c-0.119,0.16-0.119,0.4,0,0.641
		c0.08,0.199,0.16,0.32,0.281,0.4c0.119,0.08,0.24,0.119,0.4,0.119C71.891,102.02,71.932,102.02,71.971,102.02L71.971,102.02z
		 M74.174,101.299l-1.922,0.801c-0.08,0.039-0.16,0.08-0.281,0.119c-0.279,0.08-0.561,0.121-0.801,0.08
		c-0.279-0.08-0.48-0.24-0.6-0.52c-0.121-0.24-0.08-0.48,0.039-0.721c0.201-0.32,0.521-0.561,0.961-0.721l0.4-0.2l0.281-0.12
		l-0.281-0.641l-0.199-0.44c0-0.081-0.041-0.12-0.08-0.12c-0.08,0-0.16,0-0.24,0.039l-0.441,0.161l-0.08-0.161l1.041-0.439
		l0.842-0.32l0.08,0.16l-0.4,0.16c-0.08,0.04-0.121,0.04-0.16,0.08c-0.041,0.039-0.041,0.12,0,0.16l1.08,2.563
		c0.041,0.08,0.08,0.08,0.121,0.119c0.08,0,0.16-0.039,0.279-0.079l0.281-0.12L74.174,101.299L74.174,101.299z M76.055,98.656
		l0.721,0.48l-0.16-1.722l-0.561,0.36l-0.721,0.4L76.055,98.656L76.055,98.656z M77.057,99.777l-0.16,0.08l-0.842-0.561
		l-2.121-1.401c-0.121-0.08-0.24-0.08-0.4,0.04l-0.121,0.04l-0.08-0.12l1.441-0.881l0.08,0.16l-0.119,0.08
		c-0.121,0.08-0.24,0.16-0.281,0.2c-0.039,0.04-0.039,0.08,0,0.12l0.721,0.521l0.881-0.521l0.561-0.32l-0.039-0.48
		c-0.041-0.12-0.041-0.2-0.08-0.24c-0.041-0.08-0.121-0.12-0.24-0.12c-0.041,0-0.121,0-0.201,0.04c-0.039,0.04-0.08,0.04-0.16,0.08
		l-0.119,0.08l-0.08-0.16l0.359-0.2l0.961-0.561l0.08,0.12c-0.16,0.08-0.24,0.2-0.279,0.28c-0.08,0.12-0.08,0.24-0.08,0.44
		L77.057,99.777L77.057,99.777z M51.633,102.42l0.721-0.842l-0.721-0.199l-0.721-0.16l0.32,1.682L51.633,102.42L51.633,102.42z
		 M51.633,101.219l0.881,0.199l0.281-0.359c0.08-0.08,0.119-0.16,0.16-0.24c0-0.08,0-0.121-0.08-0.2
		c-0.08-0.08-0.201-0.161-0.361-0.2l-0.119-0.04l0.039-0.161l1.48,0.401l-0.039,0.16c-0.16-0.04-0.279-0.04-0.4,0
		c-0.119,0.04-0.24,0.12-0.359,0.239l-1.482,1.723l-0.641,0.801l-0.199-0.041l-0.641-3.522c0-0.12-0.121-0.2-0.281-0.28h-0.119
		l0.039-0.2l1.602,0.44l-0.039,0.16l-0.121-0.04c-0.16-0.04-0.279-0.04-0.359-0.04s-0.121,0.04-0.121,0.08l0.16,0.92L51.633,101.219
		L51.633,101.219z M42.985,99.657l1.401-2.242v-0.16c-0.04-0.04-0.08-0.12-0.2-0.16l-0.28-0.2c-0.28-0.16-0.56-0.24-0.841-0.28
		c-0.24,0.04-0.36,0.08-0.521,0.16c-0.2,0.12-0.4,0.36-0.6,0.681c-0.32,0.521-0.44,0.921-0.4,1.281
		c0.08,0.32,0.28,0.601,0.641,0.801l0.4,0.24c0.08,0.08,0.121,0.08,0.2,0.08c0.041,0,0.08-0.041,0.12-0.08L42.985,99.657
		L42.985,99.657z M43.786,100.738l-0.801-0.48l-1.041-0.641c-0.281-0.2-0.48-0.36-0.641-0.561c-0.16-0.24-0.24-0.561-0.281-0.881
		c0-0.36,0.081-0.681,0.281-1.001c0.16-0.28,0.36-0.48,0.601-0.641c0.16-0.12,0.4-0.2,0.601-0.2c0.16-0.04,0.32-0.04,0.48,0
		c0.08,0,0.2,0.04,0.28,0.08c0.201,0.04,0.44,0.16,0.721,0.32l1.642,1.041l-0.08,0.16l-0.36-0.2c-0.08-0.08-0.12-0.08-0.2-0.08
		l-1.602,2.442c0,0.04-0.04,0.119,0,0.16c0,0.04,0.081,0.08,0.12,0.12l0.36,0.24L43.786,100.738L43.786,100.738z M80.059,97.335v0.4
		l-0.16,0.12l-0.84-1.001l0.16-0.12c0.32,0.24,0.641,0.36,0.92,0.36c0.32,0,0.561-0.12,0.801-0.28c0.201-0.16,0.32-0.36,0.361-0.561
		c0.039-0.2,0-0.36-0.08-0.48s-0.16-0.16-0.281-0.2c-0.08,0-0.199,0-0.32,0.04c-0.16,0-0.359,0.12-0.641,0.28
		c-0.439,0.24-0.721,0.36-0.92,0.4c-0.201,0.08-0.4,0.08-0.561,0.04s-0.281-0.16-0.4-0.28c-0.201-0.24-0.24-0.521-0.201-0.841
		c0.08-0.32,0.281-0.641,0.602-0.881c0.32-0.28,0.68-0.4,1.08-0.44l0.041-0.44l0.16-0.12l0.84,1.041l-0.119,0.12
		c-0.32-0.24-0.641-0.36-1.002-0.36c-0.359,0-0.641,0.12-0.92,0.36c-0.24,0.16-0.361,0.36-0.4,0.561c-0.041,0.24,0,0.44,0.119,0.561
		c0.041,0.12,0.16,0.16,0.24,0.2c0.121,0,0.24,0,0.4-0.04c0.121-0.04,0.4-0.16,0.762-0.36c0.439-0.24,0.76-0.36,0.961-0.36
		c0.279-0.04,0.52,0.08,0.68,0.28c0.201,0.24,0.281,0.521,0.201,0.841c-0.041,0.28-0.201,0.561-0.48,0.801
		c-0.16,0.08-0.32,0.16-0.441,0.24C80.459,97.255,80.26,97.295,80.059,97.335L80.059,97.335z M69.529,103.1l-3.242,0.801
		l-0.361-1.121l0.201-0.039c0.16,0.359,0.359,0.561,0.52,0.68c0.201,0.08,0.441,0.121,0.682,0.041l0.801-0.201
		c0.08,0,0.119-0.039,0.16-0.08v-0.119l-0.281-1.242l-0.359,0.121c-0.201,0.039-0.32,0.119-0.441,0.279
		c-0.08,0.121-0.08,0.32-0.039,0.561l-0.201,0.041l-0.4-1.562l0.201-0.08c0.08,0.28,0.199,0.44,0.32,0.521
		c0.16,0.08,0.32,0.119,0.561,0.039l0.32-0.079l-0.361-1.321c0-0.08-0.039-0.08-0.08-0.121h-0.199l-0.641,0.161
		c-0.682,0.2-1.002,0.64-0.922,1.401l-0.199,0.039l-0.24-1.28l3.363-0.841l0.039,0.2l-0.281,0.04c-0.119,0.04-0.158,0.08-0.199,0.12
		c-0.039,0.04-0.039,0.08-0.039,0.159l0.68,2.684c0,0.08,0.041,0.119,0.08,0.119h0.201l0.32-0.08L69.529,103.1L69.529,103.1z
		 M62.723,102.82c-0.24,0.039-0.439,0.119-0.6,0.199c-0.16,0.16-0.24,0.32-0.201,0.602c0,0.199,0.08,0.32,0.16,0.439
		c0.08,0.08,0.16,0.16,0.281,0.16c0.08,0.041,0.199,0.041,0.359,0.041c0.08,0,0.201-0.041,0.32-0.041c0.24,0,0.361-0.039,0.4-0.08
		c0.08-0.039,0.08-0.08,0.08-0.119l-0.119-1.281l-0.521,0.039C62.844,102.82,62.764,102.82,62.723,102.82L62.723,102.82z
		 M62.723,100.898l1.762-0.16v0.16l-0.4,0.04c-0.08,0.04-0.16,0.04-0.199,0.079c-0.041,0.041-0.041,0.08-0.041,0.121l0.281,2.803
		c0,0.039,0.039,0.08,0.08,0.119c0.039,0.041,0.119,0.041,0.199,0.041l0.4-0.08l0.041,0.199l-2.123,0.201
		c-0.48,0.08-0.801,0.039-1.041-0.121c-0.24-0.119-0.4-0.32-0.4-0.6c-0.039-0.121,0-0.281,0.08-0.4
		c0.08-0.121,0.201-0.24,0.361-0.32c0.16-0.121,0.439-0.201,0.801-0.24c-0.281-0.041-0.48-0.08-0.561-0.12
		c-0.121-0.081-0.201-0.12-0.281-0.241c-0.08-0.08-0.16-0.24-0.279-0.52c-0.08-0.2-0.16-0.36-0.201-0.4
		c-0.08-0.08-0.119-0.08-0.199-0.08c-0.041,0-0.08,0.039-0.121,0.12c-0.08,0.079-0.08,0.2-0.08,0.4h-0.199
		c0-0.521,0.199-0.802,0.641-0.882c0.119,0,0.279,0,0.359,0.08c0.121,0.041,0.201,0.121,0.281,0.201
		c0.039,0.08,0.08,0.32,0.199,0.68c0.041,0.201,0.08,0.32,0.16,0.441c0.08,0.08,0.201,0.119,0.32,0.16c0.041,0,0.08,0.04,0.16,0.04
		h0.32l0.32-0.04l-0.119-1.361c0-0.08-0.041-0.121-0.08-0.121c-0.041-0.039-0.121-0.039-0.201-0.039l-0.24,0.039h-0.16l-0.039-0.159
		L62.723,100.898L62.723,100.898z M59.48,104.621l-3.363-0.199v-1.162h0.199c0.041,0.4,0.16,0.641,0.32,0.801s0.361,0.24,0.602,0.24
		l0.84,0.08c0.08,0,0.121-0.039,0.16-0.039c0.041-0.041,0.041-0.08,0.041-0.16l0.08-1.242h-0.361
		c-0.199-0.039-0.359,0.041-0.48,0.121c-0.119,0.119-0.199,0.279-0.24,0.52h-0.199l0.119-1.602h0.16c0,0.281,0.08,0.441,0.201,0.561
		c0.119,0.16,0.279,0.201,0.48,0.201l0.32,0.039l0.08-1.4c0-0.041,0-0.08-0.041-0.12c-0.039-0.04-0.119-0.04-0.199-0.04l-0.682-0.04
		c-0.68-0.04-1.121,0.32-1.281,1.081l-0.199-0.041l0.16-1.28l3.443,0.159v0.201l-0.281-0.04c-0.119,0-0.199,0.04-0.24,0.04
		c-0.039,0.039-0.08,0.08-0.08,0.16l-0.16,2.762c0,0.08,0.041,0.121,0.08,0.16c0.041,0,0.08,0.041,0.16,0.041h0.361V104.621
		L59.48,104.621z M48.791,102.859l-1.643-0.641l0.08-0.16l0.281,0.121c0.119,0.039,0.199,0.039,0.24,0.039
		c0.039,0,0.08-0.039,0.119-0.08v-0.119l-0.16-2.683l-1.761,1.722c0,0.039-0.04,0.08-0.08,0.16s-0.04,0.16,0,0.199
		c0.04,0.081,0.12,0.121,0.24,0.16l0.24,0.121l-0.04,0.16l-1.441-0.561l0.04-0.16l0.12,0.04c0.08,0.04,0.2,0.04,0.32,0
		s0.24-0.12,0.36-0.24l2.322-2.242l0.201,0.08l0.199,3.442c0,0.121,0.041,0.201,0.08,0.281c0.041,0.08,0.121,0.12,0.201,0.16
		l0.16,0.039L48.791,102.859L48.791,102.859z"/>
</g>
</svg>
